G75*
G70*
%OFA0B0*%
%FSLAX24Y24*%
%IPPOS*%
%LPD*%
%AMOC8*
5,1,8,0,0,1.08239X$1,22.5*
%
%ADD10C,0.0000*%
%ADD11C,0.0000*%
%ADD12R,0.0394X0.0394*%
%ADD13C,0.0160*%
%ADD14R,0.0250X0.0500*%
%ADD15OC8,0.0240*%
%ADD16C,0.0320*%
%ADD17C,0.0400*%
D10*
X013467Y008998D02*
X013469Y009048D01*
X013475Y009098D01*
X013485Y009147D01*
X013499Y009195D01*
X013516Y009242D01*
X013537Y009287D01*
X013562Y009331D01*
X013590Y009372D01*
X013622Y009411D01*
X013656Y009448D01*
X013693Y009482D01*
X013733Y009512D01*
X013775Y009539D01*
X013819Y009563D01*
X013865Y009584D01*
X013912Y009600D01*
X013960Y009613D01*
X014010Y009622D01*
X014059Y009627D01*
X014110Y009628D01*
X014160Y009625D01*
X014209Y009618D01*
X014258Y009607D01*
X014306Y009592D01*
X014352Y009574D01*
X014397Y009552D01*
X014440Y009526D01*
X014481Y009497D01*
X014520Y009465D01*
X014556Y009430D01*
X014588Y009392D01*
X014618Y009352D01*
X014645Y009309D01*
X014668Y009265D01*
X014687Y009219D01*
X014703Y009171D01*
X014715Y009122D01*
X014723Y009073D01*
X014727Y009023D01*
X014727Y008973D01*
X014723Y008923D01*
X014715Y008874D01*
X014703Y008825D01*
X014687Y008777D01*
X014668Y008731D01*
X014645Y008687D01*
X014618Y008644D01*
X014588Y008604D01*
X014556Y008566D01*
X014520Y008531D01*
X014481Y008499D01*
X014440Y008470D01*
X014397Y008444D01*
X014352Y008422D01*
X014306Y008404D01*
X014258Y008389D01*
X014209Y008378D01*
X014160Y008371D01*
X014110Y008368D01*
X014059Y008369D01*
X014010Y008374D01*
X013960Y008383D01*
X013912Y008396D01*
X013865Y008412D01*
X013819Y008433D01*
X013775Y008457D01*
X013733Y008484D01*
X013693Y008514D01*
X013656Y008548D01*
X013622Y008585D01*
X013590Y008624D01*
X013562Y008665D01*
X013537Y008709D01*
X013516Y008754D01*
X013499Y008801D01*
X013485Y008849D01*
X013475Y008898D01*
X013469Y008948D01*
X013467Y008998D01*
X020948Y021203D02*
X020950Y021253D01*
X020956Y021303D01*
X020966Y021352D01*
X020980Y021400D01*
X020997Y021447D01*
X021018Y021492D01*
X021043Y021536D01*
X021071Y021577D01*
X021103Y021616D01*
X021137Y021653D01*
X021174Y021687D01*
X021214Y021717D01*
X021256Y021744D01*
X021300Y021768D01*
X021346Y021789D01*
X021393Y021805D01*
X021441Y021818D01*
X021491Y021827D01*
X021540Y021832D01*
X021591Y021833D01*
X021641Y021830D01*
X021690Y021823D01*
X021739Y021812D01*
X021787Y021797D01*
X021833Y021779D01*
X021878Y021757D01*
X021921Y021731D01*
X021962Y021702D01*
X022001Y021670D01*
X022037Y021635D01*
X022069Y021597D01*
X022099Y021557D01*
X022126Y021514D01*
X022149Y021470D01*
X022168Y021424D01*
X022184Y021376D01*
X022196Y021327D01*
X022204Y021278D01*
X022208Y021228D01*
X022208Y021178D01*
X022204Y021128D01*
X022196Y021079D01*
X022184Y021030D01*
X022168Y020982D01*
X022149Y020936D01*
X022126Y020892D01*
X022099Y020849D01*
X022069Y020809D01*
X022037Y020771D01*
X022001Y020736D01*
X021962Y020704D01*
X021921Y020675D01*
X021878Y020649D01*
X021833Y020627D01*
X021787Y020609D01*
X021739Y020594D01*
X021690Y020583D01*
X021641Y020576D01*
X021591Y020573D01*
X021540Y020574D01*
X021491Y020579D01*
X021441Y020588D01*
X021393Y020601D01*
X021346Y020617D01*
X021300Y020638D01*
X021256Y020662D01*
X021214Y020689D01*
X021174Y020719D01*
X021137Y020753D01*
X021103Y020790D01*
X021071Y020829D01*
X021043Y020870D01*
X021018Y020914D01*
X020997Y020959D01*
X020980Y021006D01*
X020966Y021054D01*
X020956Y021103D01*
X020950Y021153D01*
X020948Y021203D01*
X020948Y030651D02*
X020950Y030701D01*
X020956Y030751D01*
X020966Y030800D01*
X020980Y030848D01*
X020997Y030895D01*
X021018Y030940D01*
X021043Y030984D01*
X021071Y031025D01*
X021103Y031064D01*
X021137Y031101D01*
X021174Y031135D01*
X021214Y031165D01*
X021256Y031192D01*
X021300Y031216D01*
X021346Y031237D01*
X021393Y031253D01*
X021441Y031266D01*
X021491Y031275D01*
X021540Y031280D01*
X021591Y031281D01*
X021641Y031278D01*
X021690Y031271D01*
X021739Y031260D01*
X021787Y031245D01*
X021833Y031227D01*
X021878Y031205D01*
X021921Y031179D01*
X021962Y031150D01*
X022001Y031118D01*
X022037Y031083D01*
X022069Y031045D01*
X022099Y031005D01*
X022126Y030962D01*
X022149Y030918D01*
X022168Y030872D01*
X022184Y030824D01*
X022196Y030775D01*
X022204Y030726D01*
X022208Y030676D01*
X022208Y030626D01*
X022204Y030576D01*
X022196Y030527D01*
X022184Y030478D01*
X022168Y030430D01*
X022149Y030384D01*
X022126Y030340D01*
X022099Y030297D01*
X022069Y030257D01*
X022037Y030219D01*
X022001Y030184D01*
X021962Y030152D01*
X021921Y030123D01*
X021878Y030097D01*
X021833Y030075D01*
X021787Y030057D01*
X021739Y030042D01*
X021690Y030031D01*
X021641Y030024D01*
X021591Y030021D01*
X021540Y030022D01*
X021491Y030027D01*
X021441Y030036D01*
X021393Y030049D01*
X021346Y030065D01*
X021300Y030086D01*
X021256Y030110D01*
X021214Y030137D01*
X021174Y030167D01*
X021137Y030201D01*
X021103Y030238D01*
X021071Y030277D01*
X021043Y030318D01*
X021018Y030362D01*
X020997Y030407D01*
X020980Y030454D01*
X020966Y030502D01*
X020956Y030551D01*
X020950Y030601D01*
X020948Y030651D01*
X028428Y008998D02*
X028430Y009048D01*
X028436Y009098D01*
X028446Y009147D01*
X028460Y009195D01*
X028477Y009242D01*
X028498Y009287D01*
X028523Y009331D01*
X028551Y009372D01*
X028583Y009411D01*
X028617Y009448D01*
X028654Y009482D01*
X028694Y009512D01*
X028736Y009539D01*
X028780Y009563D01*
X028826Y009584D01*
X028873Y009600D01*
X028921Y009613D01*
X028971Y009622D01*
X029020Y009627D01*
X029071Y009628D01*
X029121Y009625D01*
X029170Y009618D01*
X029219Y009607D01*
X029267Y009592D01*
X029313Y009574D01*
X029358Y009552D01*
X029401Y009526D01*
X029442Y009497D01*
X029481Y009465D01*
X029517Y009430D01*
X029549Y009392D01*
X029579Y009352D01*
X029606Y009309D01*
X029629Y009265D01*
X029648Y009219D01*
X029664Y009171D01*
X029676Y009122D01*
X029684Y009073D01*
X029688Y009023D01*
X029688Y008973D01*
X029684Y008923D01*
X029676Y008874D01*
X029664Y008825D01*
X029648Y008777D01*
X029629Y008731D01*
X029606Y008687D01*
X029579Y008644D01*
X029549Y008604D01*
X029517Y008566D01*
X029481Y008531D01*
X029442Y008499D01*
X029401Y008470D01*
X029358Y008444D01*
X029313Y008422D01*
X029267Y008404D01*
X029219Y008389D01*
X029170Y008378D01*
X029121Y008371D01*
X029071Y008368D01*
X029020Y008369D01*
X028971Y008374D01*
X028921Y008383D01*
X028873Y008396D01*
X028826Y008412D01*
X028780Y008433D01*
X028736Y008457D01*
X028694Y008484D01*
X028654Y008514D01*
X028617Y008548D01*
X028583Y008585D01*
X028551Y008624D01*
X028523Y008665D01*
X028498Y008709D01*
X028477Y008754D01*
X028460Y008801D01*
X028446Y008849D01*
X028436Y008898D01*
X028430Y008948D01*
X028428Y008998D01*
D11*
X002680Y021203D02*
X002703Y022130D01*
X002771Y023055D01*
X002885Y023976D01*
X003043Y024890D01*
X003246Y025795D01*
X003494Y026689D01*
X003785Y027570D01*
X004119Y028435D01*
X004494Y029283D01*
X004911Y030111D01*
X005369Y030919D01*
X005865Y031702D01*
X006399Y032461D01*
X006970Y033192D01*
X007576Y033894D01*
X008215Y034566D01*
X008887Y035205D01*
X009589Y035811D01*
X010320Y036382D01*
X011079Y036916D01*
X011862Y037412D01*
X012670Y037870D01*
X013498Y038287D01*
X014346Y038662D01*
X015211Y038996D01*
X016092Y039287D01*
X016986Y039535D01*
X017891Y039738D01*
X018805Y039896D01*
X019726Y040010D01*
X020651Y040078D01*
X021578Y040101D01*
X022505Y040078D01*
X023430Y040010D01*
X024351Y039896D01*
X025265Y039738D01*
X026170Y039535D01*
X027064Y039287D01*
X027945Y038996D01*
X028810Y038662D01*
X029658Y038287D01*
X030486Y037870D01*
X031294Y037412D01*
X032077Y036916D01*
X032836Y036382D01*
X033567Y035811D01*
X034269Y035205D01*
X034941Y034566D01*
X035580Y033894D01*
X036186Y033192D01*
X036757Y032461D01*
X037291Y031702D01*
X037787Y030919D01*
X038245Y030111D01*
X038662Y029283D01*
X039037Y028435D01*
X039371Y027570D01*
X039662Y026689D01*
X039910Y025795D01*
X040113Y024890D01*
X040271Y023976D01*
X040385Y023055D01*
X040453Y022130D01*
X040476Y021203D01*
X040453Y020276D01*
X040385Y019351D01*
X040271Y018430D01*
X040113Y017516D01*
X039910Y016611D01*
X039662Y015717D01*
X039371Y014836D01*
X039037Y013971D01*
X038662Y013123D01*
X038245Y012295D01*
X037787Y011487D01*
X037291Y010704D01*
X036757Y009945D01*
X036186Y009214D01*
X035580Y008512D01*
X034941Y007840D01*
X034269Y007201D01*
X033567Y006595D01*
X032836Y006024D01*
X032077Y005490D01*
X031294Y004994D01*
X030486Y004536D01*
X029658Y004119D01*
X028810Y003744D01*
X027945Y003410D01*
X027064Y003119D01*
X026170Y002871D01*
X025265Y002668D01*
X024351Y002510D01*
X023430Y002396D01*
X022505Y002328D01*
X021578Y002305D01*
X020651Y002328D01*
X019726Y002396D01*
X018805Y002510D01*
X017891Y002668D01*
X016986Y002871D01*
X016092Y003119D01*
X015211Y003410D01*
X014346Y003744D01*
X013498Y004119D01*
X012670Y004536D01*
X011862Y004994D01*
X011079Y005490D01*
X010320Y006024D01*
X009589Y006595D01*
X008887Y007201D01*
X008215Y007840D01*
X007576Y008512D01*
X006970Y009214D01*
X006399Y009945D01*
X005865Y010704D01*
X005369Y011487D01*
X004911Y012295D01*
X004494Y013123D01*
X004119Y013971D01*
X003785Y014836D01*
X003494Y015717D01*
X003246Y016611D01*
X003043Y017516D01*
X002885Y018430D01*
X002771Y019351D01*
X002703Y020276D01*
X002680Y021203D01*
D12*
X003113Y021203D03*
X003822Y021203D03*
X003822Y021990D03*
X003113Y021990D03*
X003389Y024313D03*
X004097Y024313D03*
X006105Y024352D03*
X006814Y024352D03*
X008900Y024352D03*
X009609Y024352D03*
X009334Y021990D03*
X008625Y021990D03*
X008625Y021203D03*
X009334Y021203D03*
X011774Y021203D03*
X012483Y021203D03*
X012483Y021990D03*
X011774Y021990D03*
X011971Y024352D03*
X012680Y024352D03*
X014924Y021990D03*
X015633Y021990D03*
X015633Y021203D03*
X014924Y021203D03*
X015082Y024352D03*
X015790Y024352D03*
X018113Y024352D03*
X018822Y024352D03*
X018782Y021990D03*
X018074Y021990D03*
X018074Y021203D03*
X018782Y021203D03*
X021223Y022777D03*
X021932Y022777D03*
X024373Y021990D03*
X025082Y021990D03*
X025082Y021203D03*
X024373Y021203D03*
X021932Y019628D03*
X021223Y019628D03*
X021223Y018053D03*
X021932Y018053D03*
X021932Y016478D03*
X021223Y016478D03*
X019019Y015455D03*
X018310Y015455D03*
X016499Y014116D03*
X015790Y014116D03*
X013349Y014707D03*
X012641Y014707D03*
X010318Y014903D03*
X009609Y014903D03*
X007601Y014903D03*
X006893Y014903D03*
X005160Y014195D03*
X004452Y014195D03*
X006263Y010848D03*
X006971Y010848D03*
X008349Y011675D03*
X009058Y011675D03*
X009019Y010966D03*
X009727Y010966D03*
X010987Y011360D03*
X011696Y011360D03*
X011381Y012148D03*
X010672Y012148D03*
X012168Y009588D03*
X012877Y009588D03*
X013940Y011321D03*
X014649Y011321D03*
X014924Y009785D03*
X015633Y009785D03*
X016971Y009903D03*
X017680Y009903D03*
X018861Y010573D03*
X019570Y010573D03*
X019294Y009037D03*
X020003Y009037D03*
X021223Y008211D03*
X021932Y008211D03*
X023152Y009037D03*
X023861Y009037D03*
X024373Y007817D03*
X025082Y007817D03*
X026578Y007817D03*
X027286Y007817D03*
X028349Y007226D03*
X029058Y007226D03*
X029255Y005533D03*
X028546Y005533D03*
X028231Y004667D03*
X027523Y004667D03*
X026696Y005061D03*
X025987Y005061D03*
X025672Y003801D03*
X026381Y003801D03*
X024688Y003880D03*
X023979Y003880D03*
X024058Y003329D03*
X023349Y003329D03*
X021932Y002699D03*
X021932Y002699D03*
X021223Y002699D03*
X021223Y002699D03*
X019806Y003329D03*
X019097Y003329D03*
X019176Y003880D03*
X018467Y003880D03*
X017483Y003801D03*
X016774Y003801D03*
X016460Y005061D03*
X017168Y005061D03*
X018861Y006085D03*
X019570Y006085D03*
X021223Y006636D03*
X021932Y006636D03*
X023586Y006085D03*
X024294Y006085D03*
X027523Y009785D03*
X028231Y009785D03*
X028507Y011321D03*
X029215Y011321D03*
X030278Y009588D03*
X030987Y009588D03*
X032641Y009392D03*
X033349Y009392D03*
X034609Y008998D03*
X035318Y008998D03*
X034294Y007856D03*
X033586Y007856D03*
X031499Y007423D03*
X030790Y007423D03*
X033428Y010966D03*
X034137Y010966D03*
X034097Y011675D03*
X034806Y011675D03*
X036184Y010848D03*
X036893Y010848D03*
X037995Y014195D03*
X038704Y014195D03*
X036263Y014903D03*
X035554Y014903D03*
X033546Y014903D03*
X032837Y014903D03*
X030515Y014707D03*
X029806Y014707D03*
X027365Y014116D03*
X026656Y014116D03*
X024845Y015455D03*
X024137Y015455D03*
X021932Y013329D03*
X021223Y013329D03*
X019452Y012344D03*
X018743Y012344D03*
X021223Y010179D03*
X021932Y010179D03*
X023586Y010573D03*
X024294Y010573D03*
X025475Y009903D03*
X026184Y009903D03*
X024412Y012344D03*
X023704Y012344D03*
X018782Y007817D03*
X018074Y007817D03*
X016578Y007817D03*
X015869Y007817D03*
X014806Y007226D03*
X014097Y007226D03*
X013900Y005533D03*
X014609Y005533D03*
X014924Y004667D03*
X015633Y004667D03*
X012365Y007423D03*
X011656Y007423D03*
X010515Y009392D03*
X009806Y009392D03*
X008546Y008998D03*
X007837Y008998D03*
X008861Y007856D03*
X009570Y007856D03*
X009609Y018053D03*
X008900Y018053D03*
X006814Y018053D03*
X006105Y018053D03*
X004097Y018092D03*
X003389Y018092D03*
X005869Y021203D03*
X006578Y021203D03*
X006578Y021990D03*
X005869Y021990D03*
X006893Y027502D03*
X007601Y027502D03*
X009609Y027502D03*
X010318Y027502D03*
X012641Y027699D03*
X013349Y027699D03*
X015790Y028289D03*
X016499Y028289D03*
X018310Y026951D03*
X019019Y026951D03*
X021223Y027502D03*
X021932Y027502D03*
X021932Y025927D03*
X021223Y025927D03*
X024137Y026951D03*
X024845Y026951D03*
X026656Y028289D03*
X027365Y028289D03*
X029806Y027699D03*
X030515Y027699D03*
X032837Y027502D03*
X033546Y027502D03*
X035554Y027502D03*
X036263Y027502D03*
X037995Y028211D03*
X038704Y028211D03*
X036893Y031557D03*
X036184Y031557D03*
X034806Y030730D03*
X034097Y030730D03*
X034137Y031439D03*
X033428Y031439D03*
X032168Y031045D03*
X031460Y031045D03*
X031774Y030258D03*
X032483Y030258D03*
X032641Y033014D03*
X033349Y033014D03*
X034609Y033407D03*
X035318Y033407D03*
X034294Y034549D03*
X033586Y034549D03*
X031499Y034982D03*
X030790Y034982D03*
X029058Y035179D03*
X028349Y035179D03*
X027286Y034588D03*
X026578Y034588D03*
X025082Y034588D03*
X024373Y034588D03*
X023861Y033368D03*
X023152Y033368D03*
X023586Y031833D03*
X024294Y031833D03*
X025475Y032502D03*
X026184Y032502D03*
X027523Y032620D03*
X028231Y032620D03*
X028507Y031085D03*
X029215Y031085D03*
X030278Y032817D03*
X030987Y032817D03*
X029255Y036872D03*
X028546Y036872D03*
X028231Y037738D03*
X027523Y037738D03*
X026696Y037344D03*
X025987Y037344D03*
X025672Y038604D03*
X026381Y038604D03*
X024688Y038525D03*
X023979Y038525D03*
X024058Y039077D03*
X023349Y039077D03*
X021932Y039707D03*
X021223Y039707D03*
X019806Y039077D03*
X019097Y039077D03*
X019176Y038525D03*
X018467Y038525D03*
X017483Y038604D03*
X016774Y038604D03*
X016460Y037344D03*
X017168Y037344D03*
X018861Y036321D03*
X019570Y036321D03*
X021223Y035770D03*
X021932Y035770D03*
X023586Y036321D03*
X024294Y036321D03*
X021932Y037738D03*
X021223Y037738D03*
X018782Y034588D03*
X018074Y034588D03*
X019294Y033368D03*
X020003Y033368D03*
X019570Y031833D03*
X018861Y031833D03*
X017680Y032502D03*
X016971Y032502D03*
X015633Y032620D03*
X014924Y032620D03*
X014649Y031085D03*
X013940Y031085D03*
X012877Y032817D03*
X012168Y032817D03*
X010515Y033014D03*
X009806Y033014D03*
X008546Y033407D03*
X007837Y033407D03*
X008861Y034549D03*
X009570Y034549D03*
X011656Y034982D03*
X012365Y034982D03*
X014097Y035179D03*
X014806Y035179D03*
X015869Y034588D03*
X016578Y034588D03*
X014609Y036872D03*
X013900Y036872D03*
X014924Y037738D03*
X015633Y037738D03*
X021223Y032226D03*
X021932Y032226D03*
X023704Y030061D03*
X024412Y030061D03*
X021932Y029077D03*
X021223Y029077D03*
X019452Y030061D03*
X018743Y030061D03*
X024334Y024352D03*
X025042Y024352D03*
X027365Y024352D03*
X028074Y024352D03*
X028231Y021990D03*
X027523Y021990D03*
X027523Y021203D03*
X028231Y021203D03*
X030672Y021203D03*
X031381Y021203D03*
X031381Y021990D03*
X030672Y021990D03*
X030475Y024352D03*
X031184Y024352D03*
X033546Y024352D03*
X034255Y024352D03*
X036341Y024352D03*
X037050Y024352D03*
X039058Y024313D03*
X039767Y024313D03*
X040042Y021990D03*
X039334Y021990D03*
X039334Y021203D03*
X040042Y021203D03*
X037286Y021203D03*
X036578Y021203D03*
X036578Y021990D03*
X037286Y021990D03*
X034530Y021990D03*
X033822Y021990D03*
X033822Y021203D03*
X034530Y021203D03*
X034255Y018053D03*
X033546Y018053D03*
X031184Y018053D03*
X030475Y018053D03*
X028074Y018053D03*
X027365Y018053D03*
X025042Y018053D03*
X024334Y018053D03*
X018822Y018053D03*
X018113Y018053D03*
X015790Y018053D03*
X015082Y018053D03*
X012680Y018053D03*
X011971Y018053D03*
X005160Y028211D03*
X004452Y028211D03*
X006263Y031557D03*
X006971Y031557D03*
X008349Y030730D03*
X009058Y030730D03*
X009019Y031439D03*
X009727Y031439D03*
X010987Y031045D03*
X011696Y031045D03*
X011381Y030258D03*
X010672Y030258D03*
X031460Y011360D03*
X032168Y011360D03*
X032483Y012148D03*
X031774Y012148D03*
X036341Y018053D03*
X037050Y018053D03*
X039058Y018092D03*
X039767Y018092D03*
D13*
X008822Y008289D02*
X008625Y008486D01*
X008625Y008998D01*
X008979Y008604D02*
X008979Y009785D01*
X005830Y012935D01*
X005830Y014510D01*
X005042Y015297D01*
X005042Y020415D01*
X004649Y020809D01*
X004649Y024746D01*
X005042Y025140D01*
X005042Y027108D01*
X006617Y028683D01*
X006617Y030258D01*
X007798Y031439D01*
X007798Y031833D01*
X008979Y033014D01*
X008979Y033407D01*
X009570Y033998D01*
X009570Y034588D01*
X008861Y034549D02*
X008861Y033683D01*
X008586Y033407D01*
X009373Y033407D02*
X009373Y032620D01*
X006971Y030218D01*
X006971Y026281D01*
X005042Y024352D01*
X005042Y020809D01*
X006223Y019628D01*
X006223Y016872D01*
X006223Y015770D01*
X006893Y015100D01*
X006893Y012266D01*
X009373Y009785D01*
X009373Y008998D01*
X010948Y007423D01*
X011735Y007423D01*
X011901Y006986D02*
X011412Y006986D01*
X011324Y007023D01*
X011256Y007090D01*
X011251Y007103D01*
X010884Y007103D01*
X010766Y007152D01*
X010676Y007242D01*
X010007Y007912D01*
X010007Y007612D01*
X009970Y007523D01*
X009903Y007456D01*
X009814Y007419D01*
X009325Y007419D01*
X009237Y007456D01*
X009215Y007477D01*
X009194Y007456D01*
X009106Y007419D01*
X009086Y007419D01*
X009970Y006647D01*
X011321Y005665D01*
X012755Y004808D01*
X014261Y004083D01*
X015825Y003496D01*
X017435Y003052D01*
X019079Y002754D01*
X020742Y002604D01*
X020786Y002604D01*
X020786Y002943D01*
X020823Y003031D01*
X020864Y003072D01*
X020864Y005518D01*
X020913Y005636D01*
X021003Y005726D01*
X021003Y005726D01*
X021481Y006204D01*
X021468Y006199D01*
X020979Y006199D01*
X020891Y006235D01*
X020823Y006303D01*
X020786Y006391D01*
X020786Y006880D01*
X020823Y006969D01*
X020864Y007009D01*
X020864Y007093D01*
X020913Y007211D01*
X021481Y007779D01*
X021468Y007774D01*
X020979Y007774D01*
X020891Y007810D01*
X020823Y007878D01*
X020786Y007966D01*
X020786Y008455D01*
X020823Y008543D01*
X020864Y008584D01*
X020864Y009062D01*
X020913Y009179D01*
X021481Y009748D01*
X021468Y009742D01*
X020979Y009742D01*
X020891Y009779D01*
X020823Y009846D01*
X020786Y009934D01*
X020786Y010124D01*
X020362Y010548D01*
X020362Y009411D01*
X020403Y009370D01*
X020440Y009282D01*
X020440Y008793D01*
X020403Y008704D01*
X020336Y008637D01*
X020247Y008600D01*
X019758Y008600D01*
X019670Y008637D01*
X019649Y008659D01*
X019627Y008637D01*
X019539Y008600D01*
X019278Y008600D01*
X019880Y007998D01*
X019929Y007880D01*
X019929Y006458D01*
X019970Y006417D01*
X020007Y006329D01*
X020007Y005840D01*
X019970Y005752D01*
X019903Y005684D01*
X019814Y005648D01*
X019325Y005648D01*
X019237Y005684D01*
X019215Y005706D01*
X019194Y005684D01*
X019106Y005648D01*
X018617Y005648D01*
X018528Y005684D01*
X018461Y005752D01*
X018424Y005840D01*
X018424Y006329D01*
X018461Y006417D01*
X018528Y006485D01*
X018580Y006506D01*
X018580Y007380D01*
X018538Y007380D01*
X018450Y007416D01*
X018428Y007438D01*
X018406Y007416D01*
X018318Y007380D01*
X017829Y007380D01*
X017741Y007416D01*
X017673Y007484D01*
X017637Y007572D01*
X017637Y008061D01*
X017673Y008150D01*
X017741Y008217D01*
X017793Y008239D01*
X017793Y009456D01*
X017782Y009467D01*
X017435Y009467D01*
X017347Y009503D01*
X017326Y009525D01*
X017304Y009503D01*
X017216Y009467D01*
X016780Y009467D01*
X016780Y008737D01*
X016928Y008589D01*
X016976Y008471D01*
X016976Y008151D01*
X016978Y008150D01*
X017014Y008061D01*
X017014Y007572D01*
X016978Y007484D01*
X016910Y007416D01*
X016822Y007380D01*
X016333Y007380D01*
X016245Y007416D01*
X016223Y007438D01*
X016202Y007416D01*
X016114Y007380D01*
X015774Y007380D01*
X017379Y005775D01*
X017704Y005775D01*
X017822Y005726D01*
X017912Y005636D01*
X018954Y004594D01*
X019673Y004594D01*
X019790Y004545D01*
X019880Y004455D01*
X020077Y004258D01*
X020126Y004140D01*
X020126Y003734D01*
X020139Y003729D01*
X020206Y003661D01*
X020243Y003573D01*
X020864Y003573D01*
X020864Y003415D02*
X020243Y003415D01*
X020243Y003573D02*
X020243Y003084D01*
X020206Y002996D01*
X020139Y002928D01*
X020051Y002892D01*
X019561Y002892D01*
X019473Y002928D01*
X019452Y002950D01*
X019430Y002928D01*
X019342Y002892D01*
X018853Y002892D01*
X018765Y002928D01*
X018697Y002996D01*
X018660Y003084D01*
X018660Y003443D01*
X018223Y003443D01*
X018135Y003479D01*
X018067Y003547D01*
X018031Y003635D01*
X018031Y004124D01*
X018058Y004191D01*
X017547Y004702D01*
X017542Y004702D01*
X017501Y004661D01*
X017413Y004624D01*
X016924Y004624D01*
X016835Y004661D01*
X016814Y004682D01*
X016792Y004661D01*
X016704Y004624D01*
X016562Y004624D01*
X016592Y004594D01*
X017114Y004594D01*
X017231Y004545D01*
X017321Y004455D01*
X017538Y004238D01*
X017728Y004238D01*
X017816Y004201D01*
X017883Y004134D01*
X017920Y004046D01*
X017920Y003556D01*
X017883Y003468D01*
X017816Y003401D01*
X017728Y003364D01*
X017239Y003364D01*
X017150Y003401D01*
X017129Y003422D01*
X017107Y003401D01*
X017019Y003364D01*
X016530Y003364D01*
X016442Y003401D01*
X016374Y003468D01*
X016369Y003481D01*
X016199Y003481D01*
X016081Y003530D01*
X015451Y004160D01*
X015376Y004236D01*
X015300Y004267D01*
X015278Y004288D01*
X015257Y004267D01*
X015169Y004230D01*
X014680Y004230D01*
X014591Y004267D01*
X014524Y004334D01*
X014487Y004423D01*
X014487Y004912D01*
X014524Y005000D01*
X014591Y005068D01*
X014604Y005073D01*
X014604Y005086D01*
X014593Y005096D01*
X014365Y005096D01*
X014276Y005133D01*
X014255Y005155D01*
X014233Y005133D01*
X014145Y005096D01*
X013656Y005096D01*
X013568Y005133D01*
X013500Y005201D01*
X013464Y005289D01*
X013464Y005778D01*
X013491Y005844D01*
X012349Y006986D01*
X012120Y006986D01*
X012032Y007023D01*
X012011Y007044D01*
X011989Y007023D01*
X011901Y006986D01*
X012434Y006902D02*
X009678Y006902D01*
X009497Y007060D02*
X011286Y007060D01*
X010700Y007219D02*
X009316Y007219D01*
X009134Y007377D02*
X010541Y007377D01*
X010383Y007536D02*
X009975Y007536D01*
X010007Y007694D02*
X010224Y007694D01*
X010066Y007853D02*
X010007Y007853D01*
X009649Y007856D02*
X009649Y007935D01*
X008979Y008604D01*
X008822Y008289D02*
X008822Y007896D01*
X007837Y008998D02*
X007837Y009352D01*
X007050Y010140D01*
X007050Y010848D01*
X006223Y010848D02*
X006223Y011478D01*
X005200Y012502D01*
X005200Y014155D01*
X004412Y014195D02*
X004412Y015927D01*
X003861Y016478D01*
X003861Y017266D01*
X004255Y017266D01*
X004649Y017659D01*
X004649Y020022D01*
X004255Y020415D01*
X004255Y022777D01*
X003743Y023289D01*
X003743Y024667D01*
X004452Y025376D01*
X004452Y028211D01*
X005239Y028211D02*
X006302Y029274D01*
X006302Y031557D01*
X007011Y031557D02*
X007798Y032344D01*
X007798Y033407D01*
X009373Y033407D02*
X010948Y034982D01*
X011735Y034982D01*
X012365Y034943D02*
X013900Y036478D01*
X013900Y036872D01*
X014649Y036872D02*
X014924Y037148D01*
X014924Y037777D01*
X015633Y037738D02*
X016538Y038644D01*
X016735Y038644D01*
X017523Y038604D02*
X016656Y037738D01*
X016066Y037738D01*
X016066Y037344D01*
X014491Y035770D01*
X013704Y035770D01*
X012916Y034982D01*
X012916Y034588D01*
X012523Y034195D01*
X010948Y034195D01*
X010554Y033801D01*
X010554Y032620D01*
X010160Y032226D01*
X010160Y031045D01*
X008586Y029470D01*
X008586Y029077D01*
X008192Y028683D01*
X008192Y026321D01*
X007011Y025140D01*
X007011Y020022D01*
X007404Y019628D01*
X007404Y016085D01*
X008192Y015297D01*
X008192Y013329D01*
X010160Y011360D01*
X010160Y009785D01*
X010554Y009392D01*
X010554Y008604D01*
X010948Y008211D01*
X012523Y008211D01*
X012916Y007817D01*
X012916Y007423D01*
X014097Y006242D01*
X014885Y006242D01*
X016066Y005061D01*
X016066Y004667D01*
X016460Y004274D01*
X017050Y004274D01*
X017523Y003801D01*
X017920Y003732D02*
X018031Y003732D01*
X018031Y003890D02*
X017920Y003890D01*
X017919Y004049D02*
X018031Y004049D01*
X018042Y004207D02*
X017802Y004207D01*
X017883Y004366D02*
X017411Y004366D01*
X017252Y004524D02*
X017725Y004524D01*
X017566Y004683D02*
X017523Y004683D01*
X017680Y005022D02*
X017247Y005022D01*
X017208Y005061D01*
X017247Y005455D02*
X014885Y007817D01*
X013704Y007817D01*
X012916Y008604D01*
X012916Y009785D01*
X012523Y010179D01*
X012523Y011754D01*
X010948Y013329D01*
X010948Y015297D01*
X010160Y016085D01*
X010160Y020022D01*
X009767Y020415D01*
X009767Y025927D01*
X010948Y027108D01*
X010948Y029077D01*
X012523Y030651D01*
X012523Y032226D01*
X012916Y032620D01*
X012916Y033407D01*
X014097Y034588D01*
X014885Y034588D01*
X017247Y036951D01*
X017641Y036951D01*
X018822Y038132D01*
X019609Y038132D01*
X019845Y038368D01*
X019845Y039077D01*
X020397Y038919D02*
X021184Y039707D01*
X021971Y039707D02*
X021971Y039313D01*
X021184Y038525D01*
X021184Y037738D01*
X021971Y037738D02*
X021971Y037344D01*
X021184Y036557D01*
X021184Y035770D01*
X021971Y035770D02*
X021971Y035376D01*
X021184Y034588D01*
X021184Y032226D01*
X021971Y032226D02*
X022759Y031439D01*
X022759Y022777D01*
X021971Y022777D01*
X021184Y022777D02*
X021184Y024746D01*
X021971Y025533D01*
X021971Y025927D01*
X021184Y025927D02*
X021184Y026321D01*
X021971Y027108D01*
X021971Y027502D01*
X021184Y027502D02*
X021184Y027896D01*
X021971Y028683D01*
X021971Y029077D01*
X021184Y029077D02*
X020397Y029077D01*
X020397Y038919D01*
X019215Y038919D02*
X019215Y038525D01*
X019215Y038919D02*
X019058Y039077D01*
X018467Y038525D02*
X017286Y037344D01*
X017208Y037344D01*
X016460Y037344D02*
X014806Y035691D01*
X014806Y035179D01*
X014097Y035179D02*
X012326Y033407D01*
X011735Y033407D01*
X010554Y032226D01*
X010554Y031045D01*
X009609Y030100D01*
X009609Y026163D01*
X008192Y024746D01*
X008192Y020415D01*
X008979Y019628D01*
X008979Y018053D01*
X008586Y017659D01*
X008586Y016085D01*
X009609Y015061D01*
X009609Y012305D01*
X010554Y011360D01*
X010554Y010179D01*
X012129Y008604D01*
X012523Y008604D01*
X013900Y007226D01*
X014097Y007226D01*
X014806Y007226D02*
X016499Y005533D01*
X016499Y005061D01*
X017247Y005455D02*
X017641Y005455D01*
X018822Y004274D01*
X019609Y004274D01*
X019806Y004077D01*
X019806Y003329D01*
X020243Y003256D02*
X020864Y003256D01*
X020864Y003098D02*
X020243Y003098D01*
X020149Y002939D02*
X020786Y002939D01*
X020786Y002781D02*
X018931Y002781D01*
X018754Y002939D02*
X018057Y002939D01*
X017830Y003415D02*
X018660Y003415D01*
X018660Y003256D02*
X016696Y003256D01*
X016428Y003415D02*
X016121Y003415D01*
X016038Y003573D02*
X015620Y003573D01*
X015880Y003732D02*
X015198Y003732D01*
X014776Y003890D02*
X015721Y003890D01*
X015563Y004049D02*
X014353Y004049D01*
X014511Y004366D02*
X013675Y004366D01*
X014004Y004207D02*
X015404Y004207D01*
X015633Y004431D02*
X015633Y004667D01*
X015633Y004431D02*
X016263Y003801D01*
X016774Y003801D01*
X017121Y003415D02*
X017137Y003415D01*
X017270Y003098D02*
X018660Y003098D01*
X019097Y003329D02*
X019215Y003447D01*
X019215Y003840D01*
X018467Y003919D02*
X018467Y004234D01*
X017680Y005022D01*
X018073Y005475D02*
X020864Y005475D01*
X020864Y005317D02*
X018231Y005317D01*
X018390Y005158D02*
X020864Y005158D01*
X020864Y005000D02*
X018548Y005000D01*
X018707Y004841D02*
X020864Y004841D01*
X020864Y004683D02*
X018865Y004683D01*
X018056Y003573D02*
X017920Y003573D01*
X019441Y002939D02*
X019462Y002939D01*
X020133Y003732D02*
X020864Y003732D01*
X020864Y003890D02*
X020126Y003890D01*
X020126Y004049D02*
X020864Y004049D01*
X020864Y004207D02*
X020098Y004207D01*
X019970Y004366D02*
X020864Y004366D01*
X020864Y004524D02*
X019811Y004524D01*
X019987Y005792D02*
X021069Y005792D01*
X020912Y005634D02*
X017914Y005634D01*
X018444Y005792D02*
X017362Y005792D01*
X017204Y005951D02*
X018424Y005951D01*
X018424Y006109D02*
X017045Y006109D01*
X016887Y006268D02*
X018424Y006268D01*
X018469Y006426D02*
X016728Y006426D01*
X016570Y006585D02*
X018580Y006585D01*
X018580Y006743D02*
X016411Y006743D01*
X016253Y006902D02*
X018580Y006902D01*
X018580Y007060D02*
X016094Y007060D01*
X015936Y007219D02*
X018580Y007219D01*
X018580Y007377D02*
X015777Y007377D01*
X015908Y007777D02*
X015908Y009510D01*
X015633Y009785D01*
X014885Y009746D02*
X014885Y011085D01*
X014649Y011321D01*
X014565Y010884D02*
X014404Y010884D01*
X014316Y010920D01*
X014294Y010942D01*
X014273Y010920D01*
X014184Y010884D01*
X013695Y010884D01*
X013607Y010920D01*
X013540Y010988D01*
X013503Y011076D01*
X013503Y011565D01*
X013540Y011654D01*
X013580Y011694D01*
X013580Y014023D01*
X013334Y014270D01*
X013105Y014270D01*
X013016Y014306D01*
X012995Y014328D01*
X012973Y014306D01*
X012885Y014270D01*
X012396Y014270D01*
X012308Y014306D01*
X012240Y014374D01*
X012204Y014462D01*
X012204Y014652D01*
X011464Y015391D01*
X011415Y015509D01*
X011415Y016478D01*
X011407Y016486D01*
X011370Y016574D01*
X011370Y016671D01*
X011341Y016700D01*
X011280Y016847D01*
X011280Y017260D01*
X011341Y017407D01*
X011415Y017481D01*
X011415Y019889D01*
X010766Y020538D01*
X010676Y020628D01*
X010628Y020745D01*
X010628Y026069D01*
X010676Y026187D01*
X012204Y027714D01*
X012204Y027943D01*
X012240Y028031D01*
X012308Y028099D01*
X012396Y028136D01*
X012885Y028136D01*
X012973Y028099D01*
X012995Y028077D01*
X013016Y028099D01*
X013069Y028121D01*
X013069Y029888D01*
X013117Y030006D01*
X013580Y030469D01*
X013580Y030711D01*
X013540Y030752D01*
X013503Y030840D01*
X013503Y031329D01*
X013540Y031417D01*
X013607Y031485D01*
X013695Y031521D01*
X014184Y031521D01*
X014273Y031485D01*
X014294Y031463D01*
X014316Y031485D01*
X014368Y031506D01*
X014368Y031778D01*
X014417Y031896D01*
X014604Y032083D01*
X014604Y032214D01*
X014591Y032220D01*
X014524Y032287D01*
X014487Y032375D01*
X014487Y032865D01*
X014524Y032953D01*
X014591Y033020D01*
X014680Y033057D01*
X015169Y033057D01*
X015257Y033020D01*
X015278Y032999D01*
X015300Y033020D01*
X015352Y033042D01*
X015352Y033865D01*
X015401Y033982D01*
X015549Y034130D01*
X015549Y034183D01*
X015536Y034188D01*
X015469Y034256D01*
X015432Y034344D01*
X015432Y034683D01*
X015066Y034317D01*
X014948Y034268D01*
X014230Y034268D01*
X013236Y033275D01*
X013236Y033191D01*
X013277Y033150D01*
X013314Y033061D01*
X013314Y032572D01*
X013277Y032484D01*
X013210Y032416D01*
X013134Y032385D01*
X013097Y032349D01*
X012843Y032094D01*
X012843Y030588D01*
X012794Y030470D01*
X012704Y030380D01*
X011268Y028944D01*
X011268Y027044D01*
X011219Y026927D01*
X011129Y026837D01*
X010087Y025794D01*
X010087Y020548D01*
X010432Y020203D01*
X010480Y020085D01*
X010480Y017266D01*
X010489Y017258D01*
X010525Y017170D01*
X010525Y017129D01*
X010553Y017101D01*
X010620Y016940D01*
X010620Y016342D01*
X010553Y016181D01*
X010535Y016163D01*
X011219Y015478D01*
X011268Y015361D01*
X011268Y013461D01*
X012794Y011935D01*
X012843Y011817D01*
X012843Y010312D01*
X013134Y010020D01*
X013210Y009989D01*
X013277Y009921D01*
X013314Y009833D01*
X013314Y009484D01*
X013326Y009513D01*
X013582Y009769D01*
X013916Y009908D01*
X014278Y009908D01*
X014487Y009821D01*
X014487Y010030D01*
X014524Y010118D01*
X014565Y010159D01*
X014565Y010884D01*
X014565Y010864D02*
X012843Y010864D01*
X012843Y010706D02*
X014565Y010706D01*
X014565Y010547D02*
X012843Y010547D01*
X012843Y010389D02*
X014565Y010389D01*
X014565Y010230D02*
X012924Y010230D01*
X013083Y010072D02*
X014504Y010072D01*
X014487Y009913D02*
X013281Y009913D01*
X013314Y009755D02*
X013567Y009755D01*
X013409Y009596D02*
X013314Y009596D01*
X012168Y009628D02*
X012168Y010927D01*
X011735Y011360D01*
X010987Y011360D02*
X010987Y011675D01*
X011420Y012108D01*
X010672Y012148D02*
X010672Y014077D01*
X010318Y014431D01*
X010318Y014864D01*
X010278Y014903D01*
X011268Y014827D02*
X012029Y014827D01*
X011870Y014985D02*
X011268Y014985D01*
X011268Y015144D02*
X011712Y015144D01*
X011553Y015302D02*
X011268Y015302D01*
X011226Y015461D02*
X011435Y015461D01*
X011415Y015619D02*
X011078Y015619D01*
X010920Y015778D02*
X011415Y015778D01*
X011415Y015936D02*
X010761Y015936D01*
X010603Y016095D02*
X011415Y016095D01*
X011415Y016253D02*
X010583Y016253D01*
X010620Y016412D02*
X011415Y016412D01*
X011372Y016570D02*
X010620Y016570D01*
X010620Y016729D02*
X011329Y016729D01*
X011280Y016887D02*
X010620Y016887D01*
X010576Y017046D02*
X011280Y017046D01*
X011280Y017204D02*
X010511Y017204D01*
X010480Y017363D02*
X011323Y017363D01*
X011415Y017521D02*
X010480Y017521D01*
X010480Y017680D02*
X011415Y017680D01*
X011415Y017838D02*
X010480Y017838D01*
X010480Y017997D02*
X011415Y017997D01*
X011415Y018155D02*
X010480Y018155D01*
X010480Y018314D02*
X011415Y018314D01*
X011415Y018472D02*
X010480Y018472D01*
X010480Y018631D02*
X011415Y018631D01*
X011415Y018789D02*
X010480Y018789D01*
X010480Y018948D02*
X011415Y018948D01*
X011415Y019106D02*
X010480Y019106D01*
X010480Y019265D02*
X011415Y019265D01*
X011415Y019423D02*
X010480Y019423D01*
X010480Y019582D02*
X011415Y019582D01*
X011415Y019740D02*
X010480Y019740D01*
X010480Y019899D02*
X011406Y019899D01*
X011247Y020057D02*
X010480Y020057D01*
X010419Y020216D02*
X011089Y020216D01*
X010930Y020374D02*
X010260Y020374D01*
X010102Y020533D02*
X010772Y020533D01*
X010650Y020691D02*
X010087Y020691D01*
X010087Y020850D02*
X010628Y020850D01*
X010628Y021008D02*
X010087Y021008D01*
X010087Y021167D02*
X010628Y021167D01*
X010628Y021325D02*
X010087Y021325D01*
X010087Y021484D02*
X010628Y021484D01*
X010628Y021642D02*
X010087Y021642D01*
X010087Y021801D02*
X010628Y021801D01*
X010628Y021959D02*
X010087Y021959D01*
X010087Y022118D02*
X010628Y022118D01*
X010628Y022276D02*
X010087Y022276D01*
X010087Y022435D02*
X010628Y022435D01*
X010628Y022593D02*
X010087Y022593D01*
X010087Y022752D02*
X010628Y022752D01*
X010628Y022910D02*
X010087Y022910D01*
X010087Y023069D02*
X010628Y023069D01*
X010628Y023227D02*
X010087Y023227D01*
X010087Y023386D02*
X010628Y023386D01*
X010628Y023544D02*
X010087Y023544D01*
X010087Y023703D02*
X010628Y023703D01*
X010628Y023861D02*
X010087Y023861D01*
X010087Y024020D02*
X010628Y024020D01*
X010628Y024178D02*
X010087Y024178D01*
X010087Y024337D02*
X010628Y024337D01*
X010628Y024495D02*
X010087Y024495D01*
X010087Y024654D02*
X010628Y024654D01*
X010628Y024812D02*
X010087Y024812D01*
X010087Y024971D02*
X010628Y024971D01*
X010628Y025129D02*
X010087Y025129D01*
X010087Y025288D02*
X010628Y025288D01*
X010628Y025446D02*
X010087Y025446D01*
X010087Y025605D02*
X010628Y025605D01*
X010628Y025763D02*
X010087Y025763D01*
X010214Y025922D02*
X010628Y025922D01*
X010632Y026080D02*
X010372Y026080D01*
X010531Y026239D02*
X010728Y026239D01*
X010689Y026397D02*
X010886Y026397D01*
X010848Y026556D02*
X011045Y026556D01*
X011006Y026714D02*
X011203Y026714D01*
X011165Y026873D02*
X011362Y026873D01*
X011262Y027031D02*
X011520Y027031D01*
X011679Y027190D02*
X011268Y027190D01*
X011268Y027348D02*
X011837Y027348D01*
X011996Y027507D02*
X011268Y027507D01*
X011268Y027665D02*
X012154Y027665D01*
X012204Y027824D02*
X011268Y027824D01*
X011268Y027982D02*
X012220Y027982D01*
X012641Y027699D02*
X010948Y026006D01*
X010948Y020809D01*
X011735Y020022D01*
X011735Y016872D01*
X011735Y015573D01*
X012601Y014707D01*
X012187Y014668D02*
X011268Y014668D01*
X011268Y014510D02*
X012204Y014510D01*
X012263Y014351D02*
X011268Y014351D01*
X011268Y014193D02*
X013411Y014193D01*
X013569Y014034D02*
X011268Y014034D01*
X011268Y013876D02*
X013580Y013876D01*
X013580Y013717D02*
X011268Y013717D01*
X011268Y013559D02*
X013580Y013559D01*
X013580Y013400D02*
X011329Y013400D01*
X011487Y013242D02*
X013580Y013242D01*
X013580Y013083D02*
X011646Y013083D01*
X011804Y012925D02*
X013580Y012925D01*
X013580Y012766D02*
X011963Y012766D01*
X012121Y012608D02*
X013580Y012608D01*
X013580Y012449D02*
X012280Y012449D01*
X012438Y012291D02*
X013580Y012291D01*
X013580Y012132D02*
X012597Y012132D01*
X012755Y011974D02*
X013580Y011974D01*
X013580Y011815D02*
X012843Y011815D01*
X012843Y011657D02*
X013542Y011657D01*
X013503Y011498D02*
X012843Y011498D01*
X012843Y011340D02*
X013503Y011340D01*
X013503Y011181D02*
X012843Y011181D01*
X012843Y011023D02*
X013525Y011023D01*
X013900Y011321D02*
X013900Y014155D01*
X013349Y014707D01*
X013993Y015461D02*
X014565Y015461D01*
X014565Y015619D02*
X013834Y015619D01*
X013676Y015778D02*
X014565Y015778D01*
X014565Y015936D02*
X013630Y015936D01*
X013630Y015823D02*
X013630Y016133D01*
X013678Y016181D01*
X013745Y016342D01*
X013745Y016773D01*
X013750Y016784D01*
X013750Y016959D01*
X013683Y017121D01*
X013675Y017129D01*
X013675Y017170D01*
X013638Y017258D01*
X013630Y017266D01*
X013630Y026582D01*
X014279Y027231D01*
X014369Y027321D01*
X014417Y027438D01*
X014417Y029338D01*
X016218Y031139D01*
X016218Y028711D01*
X016166Y028690D01*
X016145Y028668D01*
X016123Y028690D01*
X016035Y028726D01*
X015857Y028726D01*
X015854Y028727D01*
X015727Y028727D01*
X015724Y028726D01*
X015546Y028726D01*
X015457Y028690D01*
X015390Y028622D01*
X015353Y028534D01*
X015353Y028045D01*
X015358Y028034D01*
X013826Y026502D01*
X013777Y026384D01*
X013777Y026257D01*
X013777Y019013D01*
X013826Y018895D01*
X013916Y018805D01*
X014645Y018077D01*
X014645Y017872D01*
X014613Y017841D01*
X014565Y017723D01*
X014565Y017343D01*
X014530Y017260D01*
X014530Y017194D01*
X014520Y017170D01*
X014520Y017036D01*
X014485Y016951D01*
X014485Y016792D01*
X014520Y016708D01*
X014520Y016574D01*
X014556Y016486D01*
X014565Y016478D01*
X014565Y014919D01*
X014586Y014867D01*
X013630Y015823D01*
X013630Y016095D02*
X014565Y016095D01*
X014565Y016253D02*
X013708Y016253D01*
X013745Y016412D02*
X014565Y016412D01*
X014521Y016570D02*
X013745Y016570D01*
X013745Y016729D02*
X014511Y016729D01*
X014485Y016887D02*
X013750Y016887D01*
X013714Y017046D02*
X014520Y017046D01*
X014530Y017204D02*
X013661Y017204D01*
X013630Y017363D02*
X014565Y017363D01*
X014565Y017521D02*
X013630Y017521D01*
X013630Y017680D02*
X014565Y017680D01*
X014612Y017838D02*
X013630Y017838D01*
X013630Y017997D02*
X014645Y017997D01*
X014566Y018155D02*
X013630Y018155D01*
X013630Y018314D02*
X014408Y018314D01*
X014249Y018472D02*
X013630Y018472D01*
X013630Y018631D02*
X014091Y018631D01*
X013932Y018789D02*
X013630Y018789D01*
X013630Y018948D02*
X013804Y018948D01*
X013777Y019106D02*
X013630Y019106D01*
X013630Y019265D02*
X013777Y019265D01*
X013777Y019423D02*
X013630Y019423D01*
X013630Y019582D02*
X013777Y019582D01*
X013777Y019740D02*
X013630Y019740D01*
X013630Y019899D02*
X013777Y019899D01*
X013777Y020057D02*
X013630Y020057D01*
X013630Y020216D02*
X013777Y020216D01*
X013777Y020374D02*
X013630Y020374D01*
X013630Y020533D02*
X013777Y020533D01*
X013777Y020691D02*
X013630Y020691D01*
X013630Y020850D02*
X013777Y020850D01*
X013777Y021008D02*
X013630Y021008D01*
X013630Y021167D02*
X013777Y021167D01*
X013777Y021325D02*
X013630Y021325D01*
X013630Y021484D02*
X013777Y021484D01*
X013777Y021642D02*
X013630Y021642D01*
X013630Y021801D02*
X013777Y021801D01*
X013777Y021959D02*
X013630Y021959D01*
X013630Y022118D02*
X013777Y022118D01*
X013777Y022276D02*
X013630Y022276D01*
X013630Y022435D02*
X013777Y022435D01*
X013777Y022593D02*
X013630Y022593D01*
X013630Y022752D02*
X013777Y022752D01*
X013777Y022910D02*
X013630Y022910D01*
X013630Y023069D02*
X013777Y023069D01*
X013777Y023227D02*
X013630Y023227D01*
X013630Y023386D02*
X013777Y023386D01*
X013777Y023544D02*
X013630Y023544D01*
X013630Y023703D02*
X013777Y023703D01*
X013777Y023861D02*
X013630Y023861D01*
X013630Y024020D02*
X013777Y024020D01*
X013777Y024178D02*
X013630Y024178D01*
X013630Y024337D02*
X013777Y024337D01*
X013777Y024495D02*
X013630Y024495D01*
X013630Y024654D02*
X013777Y024654D01*
X013777Y024812D02*
X013630Y024812D01*
X013630Y024971D02*
X013777Y024971D01*
X013777Y025129D02*
X013630Y025129D01*
X013630Y025288D02*
X013777Y025288D01*
X013777Y025446D02*
X013630Y025446D01*
X013630Y025605D02*
X013777Y025605D01*
X013777Y025763D02*
X013630Y025763D01*
X013630Y025922D02*
X013777Y025922D01*
X013777Y026080D02*
X013630Y026080D01*
X013630Y026239D02*
X013777Y026239D01*
X013783Y026397D02*
X013630Y026397D01*
X013630Y026556D02*
X013880Y026556D01*
X013762Y026714D02*
X014038Y026714D01*
X013921Y026873D02*
X014197Y026873D01*
X014079Y027031D02*
X014355Y027031D01*
X014238Y027190D02*
X014514Y027190D01*
X014380Y027348D02*
X014672Y027348D01*
X014831Y027507D02*
X014417Y027507D01*
X014417Y027665D02*
X014989Y027665D01*
X015148Y027824D02*
X014417Y027824D01*
X014417Y027982D02*
X015306Y027982D01*
X015353Y028141D02*
X014417Y028141D01*
X014417Y028299D02*
X015353Y028299D01*
X015353Y028458D02*
X014417Y028458D01*
X014417Y028616D02*
X015387Y028616D01*
X015790Y028407D02*
X015790Y028014D01*
X014097Y026321D01*
X014097Y019077D01*
X015082Y018092D01*
X015082Y017856D01*
X014885Y017659D01*
X014885Y014982D01*
X015751Y014116D01*
X015278Y013722D02*
X013310Y015691D01*
X013310Y024352D01*
X012680Y024352D01*
X011971Y024352D02*
X011971Y024037D01*
X012523Y023486D01*
X012523Y021990D01*
X012523Y021203D02*
X011735Y021990D01*
X011774Y021203D02*
X011774Y020809D01*
X012719Y019864D01*
X012719Y018053D01*
X014417Y019209D02*
X014417Y026188D01*
X015972Y027742D01*
X016062Y027832D01*
X016077Y027870D01*
X016123Y027889D01*
X016145Y027910D01*
X016166Y027889D01*
X016254Y027852D01*
X016743Y027852D01*
X016757Y027858D01*
X016188Y027289D01*
X016140Y027172D01*
X016140Y027044D01*
X016140Y024736D01*
X016123Y024753D01*
X016035Y024789D01*
X015546Y024789D01*
X015457Y024753D01*
X015436Y024731D01*
X015414Y024753D01*
X015326Y024789D01*
X014837Y024789D01*
X014749Y024753D01*
X014681Y024685D01*
X014645Y024597D01*
X014645Y024108D01*
X014681Y024019D01*
X014749Y023952D01*
X014762Y023947D01*
X014762Y023934D01*
X014810Y023817D01*
X014900Y023727D01*
X015352Y023275D01*
X015352Y022412D01*
X015300Y022390D01*
X015278Y022369D01*
X015257Y022390D01*
X015169Y022427D01*
X014680Y022427D01*
X014591Y022390D01*
X014524Y022323D01*
X014487Y022235D01*
X014487Y021745D01*
X014524Y021657D01*
X014585Y021596D01*
X014524Y021535D01*
X014487Y021447D01*
X014487Y020958D01*
X014524Y020870D01*
X014591Y020802D01*
X014643Y020781D01*
X014643Y020667D01*
X014692Y020549D01*
X014782Y020459D01*
X015510Y019732D01*
X015510Y018475D01*
X015457Y018453D01*
X015436Y018432D01*
X015414Y018453D01*
X015326Y018490D01*
X015137Y018490D01*
X014417Y019209D01*
X014417Y019265D02*
X015510Y019265D01*
X015510Y019423D02*
X014417Y019423D01*
X014417Y019582D02*
X015510Y019582D01*
X015501Y019740D02*
X014417Y019740D01*
X014417Y019899D02*
X015343Y019899D01*
X015184Y020057D02*
X014417Y020057D01*
X014417Y020216D02*
X015026Y020216D01*
X014867Y020374D02*
X014417Y020374D01*
X014417Y020533D02*
X014709Y020533D01*
X014643Y020691D02*
X014417Y020691D01*
X014417Y020850D02*
X014544Y020850D01*
X014487Y021008D02*
X014417Y021008D01*
X014417Y021167D02*
X014487Y021167D01*
X014487Y021325D02*
X014417Y021325D01*
X014417Y021484D02*
X014502Y021484D01*
X014539Y021642D02*
X014417Y021642D01*
X014417Y021801D02*
X014487Y021801D01*
X014487Y021959D02*
X014417Y021959D01*
X014417Y022118D02*
X014487Y022118D01*
X014504Y022276D02*
X014417Y022276D01*
X014417Y022435D02*
X015352Y022435D01*
X015352Y022593D02*
X014417Y022593D01*
X014417Y022752D02*
X015352Y022752D01*
X015352Y022910D02*
X014417Y022910D01*
X014417Y023069D02*
X015352Y023069D01*
X015352Y023227D02*
X014417Y023227D01*
X014417Y023386D02*
X015241Y023386D01*
X015083Y023544D02*
X014417Y023544D01*
X014417Y023703D02*
X014924Y023703D01*
X014792Y023861D02*
X014417Y023861D01*
X014417Y024020D02*
X014681Y024020D01*
X014645Y024178D02*
X014417Y024178D01*
X014417Y024337D02*
X014645Y024337D01*
X014645Y024495D02*
X014417Y024495D01*
X014417Y024654D02*
X014668Y024654D01*
X014417Y024812D02*
X016140Y024812D01*
X016140Y024971D02*
X014417Y024971D01*
X014417Y025129D02*
X016140Y025129D01*
X016140Y025288D02*
X014417Y025288D01*
X014417Y025446D02*
X016140Y025446D01*
X016140Y025605D02*
X014417Y025605D01*
X014417Y025763D02*
X016140Y025763D01*
X016140Y025922D02*
X014417Y025922D01*
X014417Y026080D02*
X016140Y026080D01*
X016140Y026239D02*
X014468Y026239D01*
X014626Y026397D02*
X016140Y026397D01*
X016140Y026556D02*
X014785Y026556D01*
X014943Y026714D02*
X016140Y026714D01*
X016140Y026873D02*
X015102Y026873D01*
X015260Y027031D02*
X016140Y027031D01*
X016147Y027190D02*
X015419Y027190D01*
X015577Y027348D02*
X016247Y027348D01*
X016405Y027507D02*
X015736Y027507D01*
X015894Y027665D02*
X016564Y027665D01*
X016722Y027824D02*
X016053Y027824D01*
X016538Y028289D02*
X016538Y031281D01*
X017011Y031754D01*
X017011Y032423D01*
X016932Y032502D01*
X016460Y031833D02*
X016460Y034588D01*
X015869Y034588D02*
X015869Y033998D01*
X015672Y033801D01*
X015672Y032620D01*
X015352Y033054D02*
X015175Y033054D01*
X015352Y033213D02*
X013236Y033213D01*
X013314Y033054D02*
X014673Y033054D01*
X014500Y032896D02*
X013314Y032896D01*
X013314Y032737D02*
X014487Y032737D01*
X014487Y032579D02*
X013314Y032579D01*
X013213Y032420D02*
X014487Y032420D01*
X014549Y032262D02*
X013010Y032262D01*
X012852Y032103D02*
X014604Y032103D01*
X014465Y031945D02*
X012843Y031945D01*
X012843Y031786D02*
X014371Y031786D01*
X014368Y031628D02*
X012843Y031628D01*
X012843Y031469D02*
X013591Y031469D01*
X013503Y031311D02*
X012843Y031311D01*
X012843Y031152D02*
X013503Y031152D01*
X013503Y030994D02*
X012843Y030994D01*
X012843Y030835D02*
X013505Y030835D01*
X013580Y030677D02*
X012843Y030677D01*
X012814Y030518D02*
X013580Y030518D01*
X013471Y030360D02*
X012683Y030360D01*
X012525Y030201D02*
X013312Y030201D01*
X013154Y030043D02*
X012366Y030043D01*
X012208Y029884D02*
X013069Y029884D01*
X013069Y029726D02*
X012049Y029726D01*
X011891Y029567D02*
X013069Y029567D01*
X013069Y029409D02*
X011732Y029409D01*
X011574Y029250D02*
X013069Y029250D01*
X013069Y029092D02*
X011415Y029092D01*
X011268Y028933D02*
X013069Y028933D01*
X013069Y028775D02*
X011268Y028775D01*
X011268Y028616D02*
X013069Y028616D01*
X013069Y028458D02*
X011268Y028458D01*
X011268Y028299D02*
X013069Y028299D01*
X013069Y028141D02*
X011268Y028141D01*
X010318Y027502D02*
X010318Y029313D01*
X010633Y029628D01*
X010633Y030258D01*
X010672Y030297D01*
X010987Y030770D02*
X010987Y031085D01*
X010987Y030770D02*
X011420Y030336D01*
X011420Y030297D01*
X011735Y031085D02*
X011735Y032423D01*
X012129Y032817D01*
X013332Y033371D02*
X015352Y033371D01*
X015352Y033530D02*
X013491Y033530D01*
X013649Y033688D02*
X015352Y033688D01*
X015352Y033847D02*
X013808Y033847D01*
X013966Y034005D02*
X015424Y034005D01*
X015549Y034164D02*
X014125Y034164D01*
X015071Y034322D02*
X015441Y034322D01*
X015432Y034481D02*
X015229Y034481D01*
X015388Y034639D02*
X015432Y034639D01*
X014885Y032620D02*
X014924Y032581D01*
X014924Y031951D01*
X014688Y031714D01*
X014688Y031045D01*
X014300Y031469D02*
X014288Y031469D01*
X013979Y031085D02*
X013900Y031006D01*
X013900Y030336D01*
X013389Y029825D01*
X013389Y027699D01*
X014097Y027502D02*
X013310Y026714D01*
X013310Y024352D01*
X015082Y024352D02*
X015082Y023998D01*
X015672Y023407D01*
X015672Y021990D01*
X015672Y021203D02*
X014885Y021990D01*
X014963Y021203D02*
X014963Y020730D01*
X015830Y019864D01*
X015830Y018014D01*
X015503Y018472D02*
X015369Y018472D01*
X015510Y018631D02*
X014996Y018631D01*
X014837Y018789D02*
X015510Y018789D01*
X015510Y018948D02*
X014679Y018948D01*
X014520Y019106D02*
X015510Y019106D01*
X016780Y019106D02*
X017321Y019106D01*
X017321Y018948D02*
X016780Y018948D01*
X016780Y018789D02*
X017321Y018789D01*
X017321Y018631D02*
X016780Y018631D01*
X016780Y018472D02*
X017321Y018472D01*
X017321Y018422D02*
X017369Y018305D01*
X017459Y018215D01*
X017676Y017998D01*
X017676Y017808D01*
X017713Y017720D01*
X017780Y017653D01*
X017868Y017616D01*
X017990Y017616D01*
X017990Y017534D01*
X017953Y017519D01*
X017841Y017407D01*
X017814Y017342D01*
X017773Y017325D01*
X017706Y017258D01*
X017669Y017170D01*
X017669Y017036D01*
X017634Y016951D01*
X017634Y016792D01*
X017669Y016708D01*
X017669Y016574D01*
X017706Y016486D01*
X017773Y016418D01*
X017862Y016382D01*
X017990Y016382D01*
X017990Y015860D01*
X017977Y015855D01*
X017910Y015787D01*
X017873Y015699D01*
X017873Y015210D01*
X017910Y015122D01*
X017977Y015054D01*
X018065Y015018D01*
X018460Y015018D01*
X018423Y014928D01*
X018423Y012750D01*
X018410Y012745D01*
X018343Y012677D01*
X018306Y012589D01*
X018306Y012100D01*
X018343Y012012D01*
X018410Y011944D01*
X018498Y011908D01*
X018641Y011908D01*
X018550Y011817D01*
X018502Y011699D01*
X018502Y010946D01*
X018461Y010906D01*
X018424Y010817D01*
X018424Y010635D01*
X017961Y011099D01*
X017961Y014573D01*
X017912Y014691D01*
X016780Y015823D01*
X016780Y016157D01*
X016803Y016181D01*
X016870Y016342D01*
X016870Y016713D01*
X016900Y016784D01*
X016900Y016959D01*
X016833Y017121D01*
X016825Y017129D01*
X016825Y017170D01*
X016788Y017258D01*
X016780Y017266D01*
X016780Y026976D01*
X017822Y028018D01*
X017912Y028108D01*
X017961Y028226D01*
X017961Y031306D01*
X018424Y031770D01*
X018424Y031588D01*
X018461Y031500D01*
X018502Y031459D01*
X018502Y031375D01*
X018550Y031258D01*
X018640Y031168D01*
X019132Y030676D01*
X019132Y030467D01*
X019119Y030461D01*
X019097Y030440D01*
X019076Y030461D01*
X018988Y030498D01*
X018498Y030498D01*
X018410Y030461D01*
X018343Y030394D01*
X018306Y030305D01*
X018306Y029816D01*
X018343Y029728D01*
X018384Y029687D01*
X018384Y029564D01*
X018432Y029447D01*
X018522Y029357D01*
X018738Y029141D01*
X018738Y027373D01*
X018686Y027351D01*
X018664Y027329D01*
X018643Y027351D01*
X018555Y027388D01*
X018065Y027388D01*
X017977Y027351D01*
X017910Y027283D01*
X017873Y027195D01*
X017873Y026706D01*
X017910Y026618D01*
X017977Y026550D01*
X017990Y026545D01*
X017990Y026453D01*
X017369Y025833D01*
X017321Y025715D01*
X017321Y018422D01*
X017366Y018314D02*
X016780Y018314D01*
X016780Y018155D02*
X017519Y018155D01*
X017676Y017997D02*
X016780Y017997D01*
X016780Y017838D02*
X017676Y017838D01*
X017753Y017680D02*
X016780Y017680D01*
X016780Y017521D02*
X017958Y017521D01*
X017823Y017363D02*
X016780Y017363D01*
X016810Y017204D02*
X017684Y017204D01*
X017669Y017046D02*
X016864Y017046D01*
X016900Y016887D02*
X017634Y016887D01*
X017661Y016729D02*
X016876Y016729D01*
X016870Y016570D02*
X017671Y016570D01*
X017790Y016412D02*
X016870Y016412D01*
X016833Y016253D02*
X017990Y016253D01*
X017990Y016095D02*
X016780Y016095D01*
X016780Y015936D02*
X017990Y015936D01*
X017906Y015778D02*
X016825Y015778D01*
X016984Y015619D02*
X017873Y015619D01*
X017873Y015461D02*
X017142Y015461D01*
X017301Y015302D02*
X017873Y015302D01*
X017901Y015144D02*
X017459Y015144D01*
X017618Y014985D02*
X018447Y014985D01*
X018423Y014827D02*
X017776Y014827D01*
X017921Y014668D02*
X018423Y014668D01*
X018423Y014510D02*
X017961Y014510D01*
X017961Y014351D02*
X018423Y014351D01*
X018423Y014193D02*
X017961Y014193D01*
X017961Y014034D02*
X018423Y014034D01*
X018423Y013876D02*
X017961Y013876D01*
X017961Y013717D02*
X018423Y013717D01*
X018423Y013559D02*
X017961Y013559D01*
X017961Y013400D02*
X018423Y013400D01*
X018423Y013242D02*
X017961Y013242D01*
X017961Y013083D02*
X018423Y013083D01*
X018423Y012925D02*
X017961Y012925D01*
X017961Y012766D02*
X018423Y012766D01*
X018314Y012608D02*
X017961Y012608D01*
X017961Y012449D02*
X018306Y012449D01*
X018306Y012291D02*
X017961Y012291D01*
X017961Y012132D02*
X018306Y012132D01*
X018381Y011974D02*
X017961Y011974D01*
X017961Y011815D02*
X018550Y011815D01*
X018502Y011657D02*
X017961Y011657D01*
X017961Y011498D02*
X018502Y011498D01*
X018502Y011340D02*
X017961Y011340D01*
X017961Y011181D02*
X018502Y011181D01*
X018502Y011023D02*
X018037Y011023D01*
X018196Y010864D02*
X018444Y010864D01*
X018424Y010706D02*
X018354Y010706D01*
X018822Y010651D02*
X018822Y011636D01*
X019530Y012344D01*
X020042Y012896D02*
X019609Y013329D01*
X019609Y016085D01*
X019215Y016478D01*
X019215Y024352D01*
X018822Y024352D01*
X019215Y024352D02*
X019215Y026321D01*
X019609Y026714D01*
X019609Y029077D01*
X020003Y029470D01*
X020003Y033407D01*
X019215Y033407D02*
X019215Y033014D01*
X019609Y032620D01*
X019609Y031833D01*
X018822Y031833D02*
X018822Y031439D01*
X019452Y030809D01*
X019452Y030061D01*
X019132Y030518D02*
X017961Y030518D01*
X017961Y030360D02*
X018329Y030360D01*
X018306Y030201D02*
X017961Y030201D01*
X017961Y030043D02*
X018306Y030043D01*
X018306Y029884D02*
X017961Y029884D01*
X017961Y029726D02*
X018345Y029726D01*
X018384Y029567D02*
X017961Y029567D01*
X017961Y029409D02*
X018470Y029409D01*
X018629Y029250D02*
X017961Y029250D01*
X017961Y029092D02*
X018738Y029092D01*
X018738Y028933D02*
X017961Y028933D01*
X017961Y028775D02*
X018738Y028775D01*
X018738Y028616D02*
X017961Y028616D01*
X017961Y028458D02*
X018738Y028458D01*
X018738Y028299D02*
X017961Y028299D01*
X017925Y028141D02*
X018738Y028141D01*
X018738Y027982D02*
X017786Y027982D01*
X017822Y028018D02*
X017822Y028018D01*
X017627Y027824D02*
X018738Y027824D01*
X018738Y027665D02*
X017469Y027665D01*
X017310Y027507D02*
X018738Y027507D01*
X018683Y027348D02*
X018646Y027348D01*
X018310Y026990D02*
X018310Y026321D01*
X017641Y025651D01*
X017641Y018486D01*
X018310Y017817D01*
X018310Y016872D01*
X018034Y016872D01*
X018310Y016872D02*
X018310Y015455D01*
X018743Y014864D02*
X019058Y015179D01*
X019058Y015455D01*
X019019Y015494D01*
X018743Y014864D02*
X018743Y012305D01*
X020042Y012896D02*
X020042Y009077D01*
X020440Y009121D02*
X020888Y009121D01*
X020864Y008962D02*
X020440Y008962D01*
X020440Y008804D02*
X020864Y008804D01*
X020864Y008645D02*
X020344Y008645D01*
X020799Y008487D02*
X019392Y008487D01*
X019550Y008328D02*
X020786Y008328D01*
X020786Y008170D02*
X019709Y008170D01*
X019867Y008011D02*
X020786Y008011D01*
X020848Y007853D02*
X019929Y007853D01*
X019929Y007694D02*
X021396Y007694D01*
X021237Y007536D02*
X019929Y007536D01*
X019929Y007377D02*
X021079Y007377D01*
X020920Y007219D02*
X019929Y007219D01*
X019929Y007060D02*
X020864Y007060D01*
X020795Y006902D02*
X019929Y006902D01*
X019929Y006743D02*
X020786Y006743D01*
X020786Y006585D02*
X019929Y006585D01*
X019961Y006426D02*
X020786Y006426D01*
X020858Y006268D02*
X020007Y006268D01*
X020007Y006109D02*
X021386Y006109D01*
X021227Y005951D02*
X020007Y005951D01*
X019609Y006085D02*
X019609Y007817D01*
X018428Y008998D01*
X018428Y010179D01*
X017641Y010966D01*
X017641Y014510D01*
X016460Y015691D01*
X016460Y024352D01*
X015672Y024352D01*
X016460Y024352D02*
X016460Y027108D01*
X017641Y028289D01*
X017641Y031439D01*
X018822Y032620D01*
X018822Y033801D01*
X019609Y034588D01*
X019609Y036321D01*
X018940Y036360D02*
X018940Y034746D01*
X018822Y034628D01*
X018034Y034588D02*
X018034Y032856D01*
X017680Y032502D01*
X018282Y031628D02*
X018424Y031628D01*
X018492Y031469D02*
X018123Y031469D01*
X017965Y031311D02*
X018529Y031311D01*
X018656Y031152D02*
X017961Y031152D01*
X017961Y030994D02*
X018814Y030994D01*
X018973Y030835D02*
X017961Y030835D01*
X017961Y030677D02*
X019131Y030677D01*
X018704Y030100D02*
X018704Y029628D01*
X019058Y029274D01*
X019058Y026951D01*
X019744Y026397D02*
X020077Y026397D01*
X020077Y026239D02*
X019586Y026239D01*
X019535Y026188D02*
X019790Y026443D01*
X019880Y026533D01*
X019929Y026651D01*
X019929Y028944D01*
X020077Y029092D01*
X020077Y029013D01*
X020077Y017372D01*
X020030Y017260D01*
X020030Y017032D01*
X019997Y016951D01*
X019997Y016792D01*
X020032Y016708D01*
X020032Y016574D01*
X020068Y016486D01*
X020077Y016478D01*
X020077Y013314D01*
X019929Y013461D01*
X019929Y016148D01*
X019880Y016266D01*
X019655Y016491D01*
X019655Y016959D01*
X019588Y017121D01*
X019580Y017129D01*
X019580Y017170D01*
X019544Y017258D01*
X019535Y017266D01*
X019535Y026188D01*
X019535Y026080D02*
X020077Y026080D01*
X020077Y025922D02*
X019535Y025922D01*
X019535Y025763D02*
X020077Y025763D01*
X020077Y025605D02*
X019535Y025605D01*
X019535Y025446D02*
X020077Y025446D01*
X020077Y025288D02*
X019535Y025288D01*
X019535Y025129D02*
X020077Y025129D01*
X020077Y024971D02*
X019535Y024971D01*
X019535Y024812D02*
X020077Y024812D01*
X020077Y024654D02*
X019535Y024654D01*
X019535Y024495D02*
X020077Y024495D01*
X020077Y024337D02*
X019535Y024337D01*
X019535Y024178D02*
X020077Y024178D01*
X020077Y024020D02*
X019535Y024020D01*
X019535Y023861D02*
X020077Y023861D01*
X020077Y023703D02*
X019535Y023703D01*
X019535Y023544D02*
X020077Y023544D01*
X020077Y023386D02*
X019535Y023386D01*
X019535Y023227D02*
X020077Y023227D01*
X020077Y023069D02*
X019535Y023069D01*
X019535Y022910D02*
X020077Y022910D01*
X020077Y022752D02*
X019535Y022752D01*
X019535Y022593D02*
X020077Y022593D01*
X020077Y022435D02*
X019535Y022435D01*
X019535Y022276D02*
X020077Y022276D01*
X020077Y022118D02*
X019535Y022118D01*
X019535Y021959D02*
X020077Y021959D01*
X020077Y021801D02*
X019535Y021801D01*
X019535Y021642D02*
X020077Y021642D01*
X020077Y021484D02*
X019535Y021484D01*
X019535Y021325D02*
X020077Y021325D01*
X020077Y021167D02*
X019535Y021167D01*
X019535Y021008D02*
X020077Y021008D01*
X020077Y020850D02*
X019535Y020850D01*
X019535Y020691D02*
X020077Y020691D01*
X020077Y020533D02*
X019535Y020533D01*
X019535Y020374D02*
X020077Y020374D01*
X020077Y020216D02*
X019535Y020216D01*
X019535Y020057D02*
X020077Y020057D01*
X020077Y019899D02*
X019535Y019899D01*
X019535Y019740D02*
X020077Y019740D01*
X020077Y019582D02*
X019535Y019582D01*
X019535Y019423D02*
X020077Y019423D01*
X020077Y019265D02*
X019535Y019265D01*
X019535Y019106D02*
X020077Y019106D01*
X020077Y018948D02*
X019535Y018948D01*
X019535Y018789D02*
X020077Y018789D01*
X020077Y018631D02*
X019535Y018631D01*
X019535Y018472D02*
X020077Y018472D01*
X020077Y018314D02*
X019535Y018314D01*
X019535Y018155D02*
X020077Y018155D01*
X020077Y017997D02*
X019535Y017997D01*
X019535Y017838D02*
X020077Y017838D01*
X020077Y017680D02*
X019535Y017680D01*
X019535Y017521D02*
X020077Y017521D01*
X020073Y017363D02*
X019535Y017363D01*
X019566Y017204D02*
X020030Y017204D01*
X020030Y017046D02*
X019620Y017046D01*
X019655Y016887D02*
X019997Y016887D01*
X020023Y016729D02*
X019655Y016729D01*
X019655Y016570D02*
X020033Y016570D01*
X020077Y016412D02*
X019735Y016412D01*
X019886Y016253D02*
X020077Y016253D01*
X020077Y016095D02*
X019929Y016095D01*
X019929Y015936D02*
X020077Y015936D01*
X020077Y015778D02*
X019929Y015778D01*
X019929Y015619D02*
X020077Y015619D01*
X020077Y015461D02*
X019929Y015461D01*
X019929Y015302D02*
X020077Y015302D01*
X020077Y015144D02*
X019929Y015144D01*
X019929Y014985D02*
X020077Y014985D01*
X020077Y014827D02*
X019929Y014827D01*
X019929Y014668D02*
X020077Y014668D01*
X020077Y014510D02*
X019929Y014510D01*
X019929Y014351D02*
X020077Y014351D01*
X020077Y014193D02*
X019929Y014193D01*
X019929Y014034D02*
X020077Y014034D01*
X020077Y013876D02*
X019929Y013876D01*
X019929Y013717D02*
X020077Y013717D01*
X020077Y013559D02*
X019929Y013559D01*
X019990Y013400D02*
X020077Y013400D01*
X021184Y013329D02*
X021184Y015297D01*
X021971Y016085D01*
X021971Y016478D01*
X021184Y016478D02*
X021184Y016872D01*
X021971Y017659D01*
X021971Y018053D01*
X021184Y018053D02*
X021184Y018447D01*
X021971Y019234D01*
X021971Y019628D01*
X021184Y019628D02*
X020397Y019628D01*
X020397Y029077D01*
X020077Y028933D02*
X019929Y028933D01*
X019929Y028775D02*
X020077Y028775D01*
X020077Y028616D02*
X019929Y028616D01*
X019929Y028458D02*
X020077Y028458D01*
X020077Y028299D02*
X019929Y028299D01*
X019929Y028141D02*
X020077Y028141D01*
X020077Y027982D02*
X019929Y027982D01*
X019929Y027824D02*
X020077Y027824D01*
X020077Y027665D02*
X019929Y027665D01*
X019929Y027507D02*
X020077Y027507D01*
X020077Y027348D02*
X019929Y027348D01*
X019929Y027190D02*
X020077Y027190D01*
X020077Y027031D02*
X019929Y027031D01*
X019929Y026873D02*
X020077Y026873D01*
X020077Y026714D02*
X019929Y026714D01*
X019890Y026556D02*
X020077Y026556D01*
X017972Y026556D02*
X016780Y026556D01*
X016780Y026714D02*
X017873Y026714D01*
X017873Y026873D02*
X016780Y026873D01*
X016835Y027031D02*
X017873Y027031D01*
X017873Y027190D02*
X016993Y027190D01*
X017152Y027348D02*
X017974Y027348D01*
X017934Y026397D02*
X016780Y026397D01*
X016780Y026239D02*
X017775Y026239D01*
X017617Y026080D02*
X016780Y026080D01*
X016780Y025922D02*
X017458Y025922D01*
X017340Y025763D02*
X016780Y025763D01*
X016780Y025605D02*
X017321Y025605D01*
X017321Y025446D02*
X016780Y025446D01*
X016780Y025288D02*
X017321Y025288D01*
X017321Y025129D02*
X016780Y025129D01*
X016780Y024971D02*
X017321Y024971D01*
X017321Y024812D02*
X016780Y024812D01*
X016780Y024654D02*
X017321Y024654D01*
X017321Y024495D02*
X016780Y024495D01*
X016780Y024337D02*
X017321Y024337D01*
X017321Y024178D02*
X016780Y024178D01*
X016780Y024020D02*
X017321Y024020D01*
X017321Y023861D02*
X016780Y023861D01*
X016780Y023703D02*
X017321Y023703D01*
X017321Y023544D02*
X016780Y023544D01*
X016780Y023386D02*
X017321Y023386D01*
X017321Y023227D02*
X016780Y023227D01*
X016780Y023069D02*
X017321Y023069D01*
X017321Y022910D02*
X016780Y022910D01*
X016780Y022752D02*
X017321Y022752D01*
X017321Y022593D02*
X016780Y022593D01*
X016780Y022435D02*
X017321Y022435D01*
X017321Y022276D02*
X016780Y022276D01*
X016780Y022118D02*
X017321Y022118D01*
X017321Y021959D02*
X016780Y021959D01*
X016780Y021801D02*
X017321Y021801D01*
X017321Y021642D02*
X016780Y021642D01*
X016780Y021484D02*
X017321Y021484D01*
X017321Y021325D02*
X016780Y021325D01*
X016780Y021167D02*
X017321Y021167D01*
X017321Y021008D02*
X016780Y021008D01*
X016780Y020850D02*
X017321Y020850D01*
X017321Y020691D02*
X016780Y020691D01*
X016780Y020533D02*
X017321Y020533D01*
X017321Y020374D02*
X016780Y020374D01*
X016780Y020216D02*
X017321Y020216D01*
X017321Y020057D02*
X016780Y020057D01*
X016780Y019899D02*
X017321Y019899D01*
X017321Y019740D02*
X016780Y019740D01*
X016780Y019582D02*
X017321Y019582D01*
X017321Y019423D02*
X016780Y019423D01*
X016780Y019265D02*
X017321Y019265D01*
X018861Y019982D02*
X018861Y018053D01*
X020397Y016872D02*
X020397Y019628D01*
X018861Y019982D02*
X018034Y020809D01*
X018034Y021203D01*
X018034Y021990D02*
X018822Y021203D01*
X018822Y021990D02*
X018822Y023211D01*
X018113Y023919D01*
X018113Y024352D01*
X014097Y027502D02*
X014097Y029470D01*
X016460Y031833D01*
X016218Y030994D02*
X016073Y030994D01*
X016218Y030835D02*
X015915Y030835D01*
X015756Y030677D02*
X016218Y030677D01*
X016218Y030518D02*
X015598Y030518D01*
X015439Y030360D02*
X016218Y030360D01*
X016218Y030201D02*
X015281Y030201D01*
X015122Y030043D02*
X016218Y030043D01*
X016218Y029884D02*
X014964Y029884D01*
X014805Y029726D02*
X016218Y029726D01*
X016218Y029567D02*
X014647Y029567D01*
X014488Y029409D02*
X016218Y029409D01*
X016218Y029250D02*
X014417Y029250D01*
X014417Y029092D02*
X016218Y029092D01*
X016218Y028933D02*
X014417Y028933D01*
X014417Y028775D02*
X016218Y028775D01*
X009727Y031478D02*
X009727Y032974D01*
X009806Y033053D01*
X008940Y031478D02*
X009058Y031360D01*
X009058Y030770D01*
X008310Y030730D02*
X008271Y030691D01*
X008271Y029470D01*
X007641Y028840D01*
X007641Y027502D01*
X008512Y027507D02*
X009172Y027507D01*
X009172Y027665D02*
X008512Y027665D01*
X008512Y027824D02*
X009204Y027824D01*
X009209Y027835D02*
X009172Y027746D01*
X009172Y027257D01*
X009209Y027169D01*
X009276Y027102D01*
X009289Y027096D01*
X009289Y026296D01*
X007921Y024927D01*
X007872Y024810D01*
X007872Y020352D01*
X007921Y020234D01*
X008011Y020144D01*
X008659Y019495D01*
X008659Y018490D01*
X008656Y018490D01*
X008568Y018453D01*
X008500Y018386D01*
X008464Y018298D01*
X008464Y017990D01*
X008314Y017841D01*
X008266Y017723D01*
X008266Y017266D01*
X008257Y017258D01*
X008221Y017170D01*
X008221Y017036D01*
X008186Y016951D01*
X008186Y016792D01*
X008221Y016708D01*
X008221Y016574D01*
X008257Y016486D01*
X008266Y016478D01*
X008266Y016021D01*
X008314Y015903D01*
X008404Y015813D01*
X009172Y015045D01*
X009172Y014659D01*
X009209Y014571D01*
X009276Y014503D01*
X009289Y014498D01*
X009289Y012684D01*
X008512Y013461D01*
X008512Y015361D01*
X008463Y015478D01*
X007782Y016160D01*
X007803Y016181D01*
X007870Y016342D01*
X007870Y016934D01*
X007803Y017096D01*
X007769Y017129D01*
X007769Y017170D01*
X007733Y017258D01*
X007724Y017266D01*
X007724Y019691D01*
X007676Y019809D01*
X007586Y019899D01*
X007331Y020154D01*
X007331Y025007D01*
X008463Y026139D01*
X008512Y026257D01*
X008512Y028550D01*
X008857Y028895D01*
X008906Y029013D01*
X008906Y029338D01*
X009289Y029721D01*
X009289Y027907D01*
X009276Y027902D01*
X009209Y027835D01*
X009289Y027982D02*
X008512Y027982D01*
X008512Y028141D02*
X009289Y028141D01*
X009289Y028299D02*
X008512Y028299D01*
X008512Y028458D02*
X009289Y028458D01*
X009289Y028616D02*
X008577Y028616D01*
X008736Y028775D02*
X009289Y028775D01*
X009289Y028933D02*
X008872Y028933D01*
X008906Y029092D02*
X009289Y029092D01*
X009289Y029250D02*
X008906Y029250D01*
X008976Y029409D02*
X009289Y029409D01*
X009289Y029567D02*
X009135Y029567D01*
X009172Y027348D02*
X008512Y027348D01*
X008512Y027190D02*
X009200Y027190D01*
X009289Y027031D02*
X008512Y027031D01*
X008512Y026873D02*
X009289Y026873D01*
X009289Y026714D02*
X008512Y026714D01*
X008512Y026556D02*
X009289Y026556D01*
X009289Y026397D02*
X008512Y026397D01*
X008504Y026239D02*
X009232Y026239D01*
X009073Y026080D02*
X008404Y026080D01*
X008245Y025922D02*
X008915Y025922D01*
X008756Y025763D02*
X008087Y025763D01*
X007928Y025605D02*
X008598Y025605D01*
X008439Y025446D02*
X007770Y025446D01*
X007611Y025288D02*
X008281Y025288D01*
X008122Y025129D02*
X007453Y025129D01*
X007331Y024971D02*
X007964Y024971D01*
X007873Y024812D02*
X007331Y024812D01*
X007331Y024654D02*
X007872Y024654D01*
X007872Y024495D02*
X007331Y024495D01*
X007331Y024337D02*
X007872Y024337D01*
X007872Y024178D02*
X007331Y024178D01*
X007331Y024020D02*
X007872Y024020D01*
X007872Y023861D02*
X007331Y023861D01*
X007331Y023703D02*
X007872Y023703D01*
X007872Y023544D02*
X007331Y023544D01*
X007331Y023386D02*
X007872Y023386D01*
X007872Y023227D02*
X007331Y023227D01*
X007331Y023069D02*
X007872Y023069D01*
X007872Y022910D02*
X007331Y022910D01*
X007331Y022752D02*
X007872Y022752D01*
X007872Y022593D02*
X007331Y022593D01*
X007331Y022435D02*
X007872Y022435D01*
X007872Y022276D02*
X007331Y022276D01*
X007331Y022118D02*
X007872Y022118D01*
X007872Y021959D02*
X007331Y021959D01*
X007331Y021801D02*
X007872Y021801D01*
X007872Y021642D02*
X007331Y021642D01*
X007331Y021484D02*
X007872Y021484D01*
X007872Y021325D02*
X007331Y021325D01*
X007331Y021167D02*
X007872Y021167D01*
X007872Y021008D02*
X007331Y021008D01*
X007331Y020850D02*
X007872Y020850D01*
X007872Y020691D02*
X007331Y020691D01*
X007331Y020533D02*
X007872Y020533D01*
X007872Y020374D02*
X007331Y020374D01*
X007331Y020216D02*
X007939Y020216D01*
X008097Y020057D02*
X007428Y020057D01*
X007586Y019899D02*
X008256Y019899D01*
X008414Y019740D02*
X007704Y019740D01*
X007724Y019582D02*
X008573Y019582D01*
X008659Y019423D02*
X007724Y019423D01*
X007724Y019265D02*
X008659Y019265D01*
X008659Y019106D02*
X007724Y019106D01*
X007724Y018948D02*
X008659Y018948D01*
X008659Y018789D02*
X007724Y018789D01*
X007724Y018631D02*
X008659Y018631D01*
X008613Y018472D02*
X007724Y018472D01*
X007724Y018314D02*
X008470Y018314D01*
X008464Y018155D02*
X007724Y018155D01*
X007724Y017997D02*
X008464Y017997D01*
X008313Y017838D02*
X007724Y017838D01*
X007724Y017680D02*
X008266Y017680D01*
X008266Y017521D02*
X007724Y017521D01*
X007724Y017363D02*
X008266Y017363D01*
X008235Y017204D02*
X007755Y017204D01*
X007824Y017046D02*
X008221Y017046D01*
X008186Y016887D02*
X007870Y016887D01*
X007870Y016729D02*
X008212Y016729D01*
X008222Y016570D02*
X007870Y016570D01*
X007870Y016412D02*
X008266Y016412D01*
X008266Y016253D02*
X007833Y016253D01*
X007847Y016095D02*
X008266Y016095D01*
X008301Y015936D02*
X008005Y015936D01*
X008164Y015778D02*
X008440Y015778D01*
X008404Y015813D02*
X008404Y015813D01*
X008322Y015619D02*
X008598Y015619D01*
X008470Y015461D02*
X008757Y015461D01*
X008915Y015302D02*
X008512Y015302D01*
X008512Y015144D02*
X009074Y015144D01*
X009172Y014985D02*
X008512Y014985D01*
X008512Y014827D02*
X009172Y014827D01*
X009172Y014668D02*
X008512Y014668D01*
X008512Y014510D02*
X009270Y014510D01*
X009289Y014351D02*
X008512Y014351D01*
X008512Y014193D02*
X009289Y014193D01*
X009289Y014034D02*
X008512Y014034D01*
X008512Y013876D02*
X009289Y013876D01*
X009289Y013717D02*
X008512Y013717D01*
X008512Y013559D02*
X009289Y013559D01*
X009289Y013400D02*
X008573Y013400D01*
X008731Y013242D02*
X009289Y013242D01*
X009289Y013083D02*
X008890Y013083D01*
X009048Y012925D02*
X009289Y012925D01*
X009289Y012766D02*
X009207Y012766D01*
X008349Y012148D02*
X007601Y012896D01*
X007601Y014903D01*
X006573Y014498D02*
X006573Y012644D01*
X006150Y013067D01*
X006150Y014573D01*
X006101Y014691D01*
X005362Y015430D01*
X005362Y016115D01*
X005428Y016181D01*
X005495Y016342D01*
X005495Y016518D01*
X005482Y016548D01*
X005482Y016959D01*
X005415Y017121D01*
X005407Y017129D01*
X005407Y017170D01*
X005371Y017258D01*
X005362Y017266D01*
X005362Y020036D01*
X005903Y019495D01*
X005903Y018490D01*
X005861Y018490D01*
X005772Y018453D01*
X005705Y018386D01*
X005668Y018298D01*
X005668Y017808D01*
X005705Y017720D01*
X005772Y017653D01*
X005861Y017616D01*
X005903Y017616D01*
X005903Y017266D01*
X005895Y017258D01*
X005858Y017170D01*
X005858Y017036D01*
X005823Y016951D01*
X005823Y016792D01*
X005858Y016708D01*
X005858Y016574D01*
X005895Y016486D01*
X005903Y016478D01*
X005903Y015833D01*
X005903Y015706D01*
X005952Y015588D01*
X006456Y015085D01*
X006456Y014659D01*
X006492Y014571D01*
X006560Y014503D01*
X006573Y014498D01*
X006553Y014510D02*
X006150Y014510D01*
X006150Y014351D02*
X006573Y014351D01*
X006573Y014193D02*
X006150Y014193D01*
X006150Y014034D02*
X006573Y014034D01*
X006573Y013876D02*
X006150Y013876D01*
X006150Y013717D02*
X006573Y013717D01*
X006573Y013559D02*
X006150Y013559D01*
X006150Y013400D02*
X006573Y013400D01*
X006573Y013242D02*
X006150Y013242D01*
X006150Y013083D02*
X006573Y013083D01*
X006573Y012925D02*
X006293Y012925D01*
X006451Y012766D02*
X006573Y012766D01*
X008349Y012148D02*
X008349Y011557D01*
X008979Y011518D02*
X008979Y010966D01*
X008979Y011518D02*
X009097Y011636D01*
X009767Y010966D02*
X009767Y009392D01*
X009860Y006743D02*
X012593Y006743D01*
X012751Y006585D02*
X010056Y006585D01*
X010274Y006426D02*
X012910Y006426D01*
X013068Y006268D02*
X010492Y006268D01*
X010710Y006109D02*
X013227Y006109D01*
X013385Y005951D02*
X010928Y005951D01*
X011147Y005792D02*
X013469Y005792D01*
X013464Y005634D02*
X011374Y005634D01*
X011639Y005475D02*
X013464Y005475D01*
X013464Y005317D02*
X011905Y005317D01*
X012170Y005158D02*
X013543Y005158D01*
X013900Y005533D02*
X013900Y005888D01*
X012404Y007384D01*
X014609Y005533D02*
X014924Y005218D01*
X014924Y004707D01*
X014487Y004683D02*
X013016Y004683D01*
X012701Y004841D02*
X014487Y004841D01*
X014524Y005000D02*
X012435Y005000D01*
X013346Y004524D02*
X014487Y004524D01*
X016999Y007536D02*
X017652Y007536D01*
X017637Y007694D02*
X017014Y007694D01*
X017014Y007853D02*
X017637Y007853D01*
X017637Y008011D02*
X017014Y008011D01*
X016976Y008170D02*
X017693Y008170D01*
X017793Y008328D02*
X016976Y008328D01*
X016970Y008487D02*
X017793Y008487D01*
X017793Y008645D02*
X016871Y008645D01*
X016780Y008804D02*
X017793Y008804D01*
X017793Y008962D02*
X016780Y008962D01*
X016780Y009121D02*
X017793Y009121D01*
X017793Y009279D02*
X016780Y009279D01*
X016780Y009438D02*
X017793Y009438D01*
X018113Y009588D02*
X017759Y009943D01*
X018113Y009588D02*
X018113Y007777D01*
X018822Y007856D02*
X018900Y007777D01*
X018900Y006085D01*
X018900Y007777D02*
X018900Y007935D01*
X019635Y008645D02*
X019662Y008645D01*
X019255Y009077D02*
X019255Y010218D01*
X019609Y010573D01*
X020362Y010547D02*
X020363Y010547D01*
X020362Y010389D02*
X020522Y010389D01*
X020680Y010230D02*
X020362Y010230D01*
X020362Y010072D02*
X020786Y010072D01*
X020795Y009913D02*
X020362Y009913D01*
X020362Y009755D02*
X020949Y009755D01*
X021171Y009438D02*
X020362Y009438D01*
X020362Y009596D02*
X021329Y009596D01*
X021012Y009279D02*
X020440Y009279D01*
X021184Y008998D02*
X021184Y008211D01*
X021184Y008998D02*
X021971Y009785D01*
X021971Y010179D01*
X021184Y010179D02*
X020397Y010966D01*
X020397Y016872D01*
X022759Y016872D02*
X022759Y022777D01*
X024334Y023211D02*
X024334Y021990D01*
X024334Y021203D02*
X025121Y021990D01*
X025835Y021959D02*
X026376Y021959D01*
X026376Y021801D02*
X025835Y021801D01*
X025835Y021642D02*
X026376Y021642D01*
X026376Y021484D02*
X025835Y021484D01*
X025835Y021325D02*
X026376Y021325D01*
X026376Y021167D02*
X025835Y021167D01*
X025835Y021008D02*
X026376Y021008D01*
X026376Y020850D02*
X025835Y020850D01*
X025835Y020691D02*
X026376Y020691D01*
X026376Y020533D02*
X025835Y020533D01*
X025835Y020374D02*
X026376Y020374D01*
X026376Y020216D02*
X025835Y020216D01*
X025835Y020057D02*
X026376Y020057D01*
X026376Y019899D02*
X025835Y019899D01*
X025835Y019740D02*
X026376Y019740D01*
X026376Y019582D02*
X025835Y019582D01*
X025835Y019423D02*
X026376Y019423D01*
X026376Y019265D02*
X025835Y019265D01*
X025835Y019106D02*
X026376Y019106D01*
X026376Y018948D02*
X025835Y018948D01*
X025835Y018789D02*
X026376Y018789D01*
X026376Y018631D02*
X025835Y018631D01*
X025835Y018472D02*
X026376Y018472D01*
X026376Y018314D02*
X025790Y018314D01*
X025786Y018305D02*
X025835Y018422D01*
X025835Y025715D01*
X025786Y025833D01*
X025674Y025945D01*
X025829Y025945D01*
X026040Y026156D01*
X026040Y026212D01*
X026201Y026374D01*
X026250Y026491D01*
X026250Y026619D01*
X026250Y026991D01*
X026290Y027031D01*
X026320Y027031D01*
X026290Y027031D02*
X026290Y027061D01*
X026376Y026976D01*
X026376Y017441D01*
X026341Y017407D01*
X026280Y017260D01*
X026280Y016808D01*
X026331Y016686D01*
X026331Y016574D01*
X026367Y016486D01*
X026376Y016478D01*
X026376Y015823D01*
X025243Y014691D01*
X025195Y014573D01*
X025195Y011099D01*
X024731Y010635D01*
X024731Y010817D01*
X024694Y010906D01*
X024654Y010946D01*
X024654Y011699D01*
X024605Y011817D01*
X024514Y011908D01*
X024657Y011908D01*
X024745Y011944D01*
X024813Y012012D01*
X024849Y012100D01*
X024849Y012589D01*
X024813Y012677D01*
X024745Y012745D01*
X024732Y012750D01*
X024732Y014928D01*
X024695Y015018D01*
X025090Y015018D01*
X025178Y015054D01*
X025246Y015122D01*
X025282Y015210D01*
X025282Y015699D01*
X025246Y015787D01*
X025178Y015855D01*
X025165Y015860D01*
X025165Y016051D01*
X025179Y016057D01*
X025303Y016181D01*
X025370Y016342D01*
X025370Y016414D01*
X025382Y016418D01*
X025449Y016486D01*
X025486Y016574D01*
X025486Y017170D01*
X025449Y017258D01*
X025382Y017325D01*
X025294Y017362D01*
X025165Y017362D01*
X025165Y017616D01*
X025287Y017616D01*
X025375Y017653D01*
X025443Y017720D01*
X025479Y017808D01*
X025479Y017998D01*
X025696Y018215D01*
X025786Y018305D01*
X025636Y018155D02*
X026376Y018155D01*
X026376Y017997D02*
X025479Y017997D01*
X025479Y017838D02*
X026376Y017838D01*
X026376Y017680D02*
X025402Y017680D01*
X025165Y017521D02*
X026376Y017521D01*
X026323Y017363D02*
X025165Y017363D01*
X025472Y017204D02*
X026280Y017204D01*
X026280Y017046D02*
X025486Y017046D01*
X025486Y016887D02*
X026280Y016887D01*
X026313Y016729D02*
X025486Y016729D01*
X025484Y016570D02*
X026332Y016570D01*
X026376Y016412D02*
X025370Y016412D01*
X025333Y016253D02*
X026376Y016253D01*
X026376Y016095D02*
X025217Y016095D01*
X025165Y015936D02*
X026376Y015936D01*
X026330Y015778D02*
X025250Y015778D01*
X025282Y015619D02*
X026171Y015619D01*
X026013Y015461D02*
X025282Y015461D01*
X025282Y015302D02*
X025854Y015302D01*
X025696Y015144D02*
X025255Y015144D01*
X025537Y014985D02*
X024709Y014985D01*
X024732Y014827D02*
X025379Y014827D01*
X025234Y014668D02*
X024732Y014668D01*
X024732Y014510D02*
X025195Y014510D01*
X025195Y014351D02*
X024732Y014351D01*
X024732Y014193D02*
X025195Y014193D01*
X025195Y014034D02*
X024732Y014034D01*
X024732Y013876D02*
X025195Y013876D01*
X025195Y013717D02*
X024732Y013717D01*
X024732Y013559D02*
X025195Y013559D01*
X025195Y013400D02*
X024732Y013400D01*
X024732Y013242D02*
X025195Y013242D01*
X025195Y013083D02*
X024732Y013083D01*
X024732Y012925D02*
X025195Y012925D01*
X025195Y012766D02*
X024732Y012766D01*
X024841Y012608D02*
X025195Y012608D01*
X025195Y012449D02*
X024849Y012449D01*
X024849Y012291D02*
X025195Y012291D01*
X025195Y012132D02*
X024849Y012132D01*
X024775Y011974D02*
X025195Y011974D01*
X025195Y011815D02*
X024606Y011815D01*
X024654Y011657D02*
X025195Y011657D01*
X025195Y011498D02*
X024654Y011498D01*
X024654Y011340D02*
X025195Y011340D01*
X025195Y011181D02*
X024654Y011181D01*
X024654Y011023D02*
X025118Y011023D01*
X024960Y010864D02*
X024712Y010864D01*
X024731Y010706D02*
X024801Y010706D01*
X024334Y010651D02*
X024334Y011636D01*
X023625Y012344D01*
X023113Y012896D02*
X023546Y013329D01*
X023546Y016085D01*
X023940Y016478D01*
X023940Y024352D01*
X024334Y024352D01*
X023940Y024352D02*
X023940Y026321D01*
X023546Y026714D01*
X023546Y029077D01*
X023152Y029470D01*
X023152Y033407D01*
X023940Y033407D02*
X023940Y033014D01*
X023546Y032620D01*
X023546Y031833D01*
X024334Y031833D02*
X024334Y031439D01*
X023704Y030809D01*
X023704Y030061D01*
X024452Y029628D02*
X024097Y029274D01*
X024097Y026951D01*
X024845Y026990D02*
X024845Y026321D01*
X025515Y025651D01*
X025515Y018486D01*
X024845Y017817D01*
X024845Y016872D01*
X025121Y016872D01*
X024845Y016872D02*
X024845Y015455D01*
X024412Y014864D02*
X024097Y015179D01*
X024097Y015455D01*
X024137Y015494D01*
X024412Y014864D02*
X024412Y012305D01*
X023113Y012896D02*
X023113Y009077D01*
X023900Y009077D02*
X023900Y010218D01*
X023546Y010573D01*
X024727Y010179D02*
X025515Y010966D01*
X025515Y014510D01*
X026696Y015691D01*
X026696Y024352D01*
X027483Y024352D01*
X028074Y024352D02*
X028074Y023998D01*
X027483Y023407D01*
X027483Y021990D01*
X027483Y021203D02*
X028271Y021990D01*
X028192Y021203D02*
X028192Y020730D01*
X027326Y019864D01*
X027326Y018014D01*
X028074Y018092D02*
X029058Y019077D01*
X029058Y026321D01*
X027365Y028014D01*
X027365Y028407D01*
X027298Y028726D02*
X027120Y028726D01*
X027032Y028690D01*
X027011Y028668D01*
X026989Y028690D01*
X026937Y028711D01*
X026937Y031139D01*
X028738Y029338D01*
X028738Y027438D01*
X028787Y027321D01*
X028877Y027231D01*
X029525Y026582D01*
X029525Y017266D01*
X029517Y017258D01*
X029480Y017170D01*
X029480Y017036D01*
X029445Y016951D01*
X029445Y016792D01*
X029480Y016708D01*
X029480Y016574D01*
X029517Y016486D01*
X029525Y016478D01*
X029525Y015823D01*
X028569Y014867D01*
X028591Y014919D01*
X028591Y016150D01*
X028644Y016203D01*
X028705Y016350D01*
X028705Y016510D01*
X028671Y016593D01*
X028671Y016951D01*
X028636Y017036D01*
X028636Y017170D01*
X028599Y017258D01*
X028591Y017266D01*
X028591Y017723D01*
X028542Y017841D01*
X028511Y017872D01*
X028511Y018077D01*
X029239Y018805D01*
X029329Y018895D01*
X029378Y019013D01*
X029378Y026384D01*
X029329Y026502D01*
X027797Y028034D01*
X027802Y028045D01*
X027802Y028534D01*
X027765Y028622D01*
X027698Y028690D01*
X027610Y028726D01*
X027432Y028726D01*
X027429Y028727D01*
X027301Y028727D01*
X027298Y028726D01*
X026937Y028775D02*
X028738Y028775D01*
X028738Y028933D02*
X026937Y028933D01*
X026937Y029092D02*
X028738Y029092D01*
X028738Y029250D02*
X026937Y029250D01*
X026937Y029409D02*
X028667Y029409D01*
X028509Y029567D02*
X026937Y029567D01*
X026937Y029726D02*
X028350Y029726D01*
X028192Y029884D02*
X026937Y029884D01*
X026937Y030043D02*
X028033Y030043D01*
X027875Y030201D02*
X026937Y030201D01*
X026937Y030360D02*
X027716Y030360D01*
X027558Y030518D02*
X026937Y030518D01*
X026937Y030677D02*
X027399Y030677D01*
X027241Y030835D02*
X026937Y030835D01*
X026937Y030994D02*
X027082Y030994D01*
X026617Y031281D02*
X026145Y031754D01*
X026145Y032423D01*
X026223Y032502D01*
X026696Y031833D02*
X026696Y034588D01*
X027286Y034588D02*
X027286Y033998D01*
X027483Y033801D01*
X027483Y032620D01*
X027803Y033042D02*
X027803Y033865D01*
X027754Y033982D01*
X027606Y034130D01*
X027606Y034183D01*
X027619Y034188D01*
X027687Y034256D01*
X027723Y034344D01*
X027723Y034683D01*
X028089Y034317D01*
X028207Y034268D01*
X028334Y034268D01*
X028925Y034268D01*
X029919Y033275D01*
X029919Y033191D01*
X029878Y033150D01*
X029842Y033061D01*
X029842Y032572D01*
X029878Y032484D01*
X029946Y032416D01*
X030021Y032385D01*
X030058Y032349D01*
X030313Y032094D01*
X030313Y032040D01*
X030031Y032040D01*
X029820Y031829D01*
X029820Y031531D01*
X029860Y031491D01*
X029860Y030366D01*
X029909Y030249D01*
X030320Y029837D01*
X030320Y029781D01*
X030531Y029570D01*
X030829Y029570D01*
X031040Y029781D01*
X031040Y029792D01*
X031888Y028944D01*
X031888Y027044D01*
X031936Y026927D01*
X032026Y026837D01*
X033069Y025794D01*
X033069Y020548D01*
X032724Y020203D01*
X032675Y020085D01*
X032675Y017491D01*
X032591Y017407D01*
X032530Y017260D01*
X032530Y016857D01*
X032591Y016710D01*
X032630Y016671D01*
X032630Y016574D01*
X032666Y016486D01*
X032675Y016478D01*
X032675Y016217D01*
X032026Y015568D01*
X031936Y015478D01*
X031888Y015361D01*
X031888Y013461D01*
X030451Y012025D01*
X030361Y011935D01*
X030313Y011817D01*
X030313Y010312D01*
X030058Y010057D01*
X030021Y010020D01*
X029946Y009989D01*
X029878Y009921D01*
X029842Y009833D01*
X029842Y009484D01*
X029829Y009513D01*
X029573Y009769D01*
X029239Y009908D01*
X028877Y009908D01*
X028668Y009821D01*
X028668Y010030D01*
X028631Y010118D01*
X028591Y010159D01*
X028591Y010884D01*
X028751Y010884D01*
X028840Y010920D01*
X028861Y010942D01*
X028883Y010920D01*
X028971Y010884D01*
X029460Y010884D01*
X029548Y010920D01*
X029616Y010988D01*
X029652Y011076D01*
X029652Y011565D01*
X029616Y011654D01*
X029575Y011694D01*
X029575Y014023D01*
X029822Y014270D01*
X030051Y014270D01*
X030139Y014306D01*
X030160Y014328D01*
X030182Y014306D01*
X030270Y014270D01*
X030759Y014270D01*
X030847Y014306D01*
X030915Y014374D01*
X030951Y014462D01*
X030951Y014652D01*
X031691Y015391D01*
X031740Y015509D01*
X031740Y016174D01*
X031769Y016203D01*
X031830Y016350D01*
X031830Y016510D01*
X031820Y016533D01*
X031820Y016951D01*
X031785Y017036D01*
X031785Y017170D01*
X031749Y017258D01*
X031740Y017266D01*
X031740Y019889D01*
X032389Y020538D01*
X032479Y020628D01*
X032528Y020745D01*
X032528Y026069D01*
X032479Y026187D01*
X030951Y027714D01*
X030951Y027943D01*
X030915Y028031D01*
X030847Y028099D01*
X030759Y028136D01*
X030270Y028136D01*
X030182Y028099D01*
X030160Y028077D01*
X030139Y028099D01*
X030087Y028121D01*
X030087Y029888D01*
X030038Y030006D01*
X029575Y030469D01*
X029575Y030711D01*
X029616Y030752D01*
X029652Y030840D01*
X029652Y031329D01*
X029616Y031417D01*
X029548Y031485D01*
X029460Y031521D01*
X028971Y031521D01*
X028883Y031485D01*
X028861Y031463D01*
X028840Y031485D01*
X028787Y031506D01*
X028787Y031778D01*
X028739Y031896D01*
X028551Y032083D01*
X028551Y032214D01*
X028564Y032220D01*
X028631Y032287D01*
X028668Y032375D01*
X028668Y032865D01*
X028631Y032953D01*
X028564Y033020D01*
X028476Y033057D01*
X027987Y033057D01*
X027898Y033020D01*
X027877Y032999D01*
X027855Y033020D01*
X027803Y033042D01*
X027803Y033054D02*
X027980Y033054D01*
X027803Y033213D02*
X029919Y033213D01*
X029842Y033054D02*
X028482Y033054D01*
X028655Y032896D02*
X029842Y032896D01*
X029842Y032737D02*
X028668Y032737D01*
X028668Y032579D02*
X029842Y032579D01*
X029942Y032420D02*
X028668Y032420D01*
X028606Y032262D02*
X030145Y032262D01*
X030303Y032103D02*
X028551Y032103D01*
X028690Y031945D02*
X029935Y031945D01*
X029820Y031786D02*
X028784Y031786D01*
X028787Y031628D02*
X029820Y031628D01*
X029860Y031469D02*
X029564Y031469D01*
X029652Y031311D02*
X029860Y031311D01*
X029860Y031152D02*
X029652Y031152D01*
X029652Y030994D02*
X029860Y030994D01*
X029860Y030835D02*
X029650Y030835D01*
X029575Y030677D02*
X029860Y030677D01*
X029860Y030518D02*
X029575Y030518D01*
X029684Y030360D02*
X029863Y030360D01*
X029843Y030201D02*
X029956Y030201D01*
X030001Y030043D02*
X030115Y030043D01*
X030087Y029884D02*
X030273Y029884D01*
X030375Y029726D02*
X030087Y029726D01*
X030087Y029567D02*
X031265Y029567D01*
X031423Y029409D02*
X030087Y029409D01*
X030087Y029250D02*
X031582Y029250D01*
X031740Y029092D02*
X030087Y029092D01*
X030087Y028933D02*
X031888Y028933D01*
X031888Y028775D02*
X030087Y028775D01*
X030087Y028616D02*
X031888Y028616D01*
X031888Y028458D02*
X030087Y028458D01*
X030087Y028299D02*
X031888Y028299D01*
X031888Y028141D02*
X030087Y028141D01*
X029767Y027699D02*
X029767Y029825D01*
X029255Y030336D01*
X029255Y031006D01*
X029176Y031085D01*
X028867Y031469D02*
X028855Y031469D01*
X028467Y031714D02*
X028467Y031045D01*
X028467Y031714D02*
X028231Y031951D01*
X028231Y032581D01*
X028271Y032620D01*
X027803Y033371D02*
X029823Y033371D01*
X029664Y033530D02*
X027803Y033530D01*
X027803Y033688D02*
X029506Y033688D01*
X029347Y033847D02*
X027803Y033847D01*
X027732Y034005D02*
X029189Y034005D01*
X029030Y034164D02*
X027606Y034164D01*
X027714Y034322D02*
X028084Y034322D01*
X027926Y034481D02*
X027723Y034481D01*
X027723Y034639D02*
X027767Y034639D01*
X028271Y034588D02*
X025908Y036951D01*
X025515Y036951D01*
X024334Y038132D01*
X023546Y038132D01*
X023310Y038368D01*
X023310Y039077D01*
X023940Y038919D02*
X023940Y038525D01*
X023940Y038919D02*
X024097Y039077D01*
X024688Y038525D02*
X025869Y037344D01*
X025948Y037344D01*
X026499Y037738D02*
X027089Y037738D01*
X027089Y037344D01*
X028664Y035770D01*
X029452Y035770D01*
X030239Y034982D01*
X030239Y034588D01*
X030633Y034195D01*
X032208Y034195D01*
X032601Y033801D01*
X032601Y032620D01*
X032995Y032226D01*
X032995Y031045D01*
X034570Y029470D01*
X034570Y029077D01*
X034963Y028683D01*
X034963Y026321D01*
X036145Y025140D01*
X036145Y020022D01*
X035751Y019628D01*
X035751Y016872D01*
X035751Y016085D01*
X034963Y015297D01*
X034963Y013329D01*
X032995Y011360D01*
X032995Y009785D01*
X032601Y009392D01*
X032601Y008604D01*
X032208Y008211D01*
X030633Y008211D01*
X030239Y007817D01*
X030239Y007423D01*
X029058Y006242D01*
X028271Y006242D01*
X027089Y005061D01*
X027089Y004667D01*
X026696Y004274D01*
X026105Y004274D01*
X025633Y003801D01*
X026381Y003801D02*
X026893Y003801D01*
X027523Y004431D01*
X027523Y004667D01*
X028231Y004707D02*
X028231Y005218D01*
X028546Y005533D01*
X029255Y005533D02*
X029255Y005888D01*
X030751Y007384D01*
X031420Y007423D02*
X032208Y007423D01*
X033782Y008998D01*
X033782Y009785D01*
X036263Y012266D01*
X036263Y015100D01*
X036932Y015770D01*
X036932Y016872D01*
X036932Y019628D01*
X038113Y020809D01*
X038113Y024352D01*
X036184Y026281D01*
X036184Y030218D01*
X033782Y032620D01*
X033782Y033407D01*
X032208Y034982D01*
X031420Y034982D01*
X030790Y034943D02*
X029255Y036478D01*
X029255Y036872D01*
X028507Y036872D02*
X028231Y037148D01*
X028231Y037777D01*
X027523Y037738D02*
X026617Y038644D01*
X026420Y038644D01*
X025633Y038604D02*
X026499Y037738D01*
X026696Y037344D02*
X028349Y035691D01*
X028349Y035179D01*
X028271Y034588D02*
X029058Y034588D01*
X030239Y033407D01*
X030239Y032620D01*
X030633Y032226D01*
X030633Y030651D01*
X032208Y029077D01*
X032208Y027108D01*
X033389Y025927D01*
X033389Y020415D01*
X032995Y020022D01*
X032995Y016872D01*
X032995Y016085D01*
X032208Y015297D01*
X032208Y013329D01*
X030633Y011754D01*
X030633Y010179D01*
X030239Y009785D01*
X030239Y008604D01*
X029452Y007817D01*
X028271Y007817D01*
X025908Y005455D01*
X025515Y005455D01*
X024334Y004274D01*
X023546Y004274D01*
X023349Y004077D01*
X023349Y003329D01*
X023940Y003447D02*
X024058Y003329D01*
X023940Y003447D02*
X023940Y003840D01*
X024688Y003919D02*
X024688Y004234D01*
X025475Y005022D01*
X025908Y005022D01*
X025948Y005061D01*
X026656Y005061D02*
X026656Y005533D01*
X028349Y007226D01*
X029058Y007226D02*
X029255Y007226D01*
X030633Y008604D01*
X031026Y008604D01*
X032601Y010179D01*
X032601Y011360D01*
X033546Y012305D01*
X033546Y015061D01*
X034570Y016085D01*
X034570Y017659D01*
X034176Y018053D01*
X034176Y019628D01*
X034963Y020415D01*
X034963Y024746D01*
X033546Y026163D01*
X033546Y030100D01*
X032601Y031045D01*
X032601Y032226D01*
X031420Y033407D01*
X030830Y033407D01*
X029058Y035179D01*
X031026Y032817D02*
X031420Y032423D01*
X031420Y031085D01*
X032168Y031085D02*
X032168Y030770D01*
X031735Y030336D01*
X031735Y030297D01*
X032483Y030297D02*
X032523Y030258D01*
X032523Y029628D01*
X032837Y029313D01*
X032837Y027502D01*
X032149Y026714D02*
X031952Y026714D01*
X031991Y026873D02*
X031793Y026873D01*
X031893Y027031D02*
X031635Y027031D01*
X031680Y027055D02*
X032680Y026055D01*
X032680Y025930D01*
X032805Y025930D01*
X032680Y025930D02*
X032680Y020555D01*
X032555Y020430D01*
X032555Y019305D01*
X032675Y019265D02*
X031740Y019265D01*
X031740Y019423D02*
X032675Y019423D01*
X032675Y019582D02*
X031740Y019582D01*
X031740Y019740D02*
X032675Y019740D01*
X032675Y019899D02*
X031750Y019899D01*
X031908Y020057D02*
X032675Y020057D01*
X032736Y020216D02*
X032067Y020216D01*
X032225Y020374D02*
X032895Y020374D01*
X033053Y020533D02*
X032384Y020533D01*
X032505Y020691D02*
X033069Y020691D01*
X033069Y020850D02*
X032528Y020850D01*
X032528Y021008D02*
X033069Y021008D01*
X033069Y021167D02*
X032528Y021167D01*
X032528Y021325D02*
X033069Y021325D01*
X033069Y021484D02*
X032528Y021484D01*
X032528Y021642D02*
X033069Y021642D01*
X033069Y021801D02*
X032528Y021801D01*
X032528Y021959D02*
X033069Y021959D01*
X033069Y022118D02*
X032528Y022118D01*
X032528Y022276D02*
X033069Y022276D01*
X033069Y022435D02*
X032528Y022435D01*
X032528Y022593D02*
X033069Y022593D01*
X033069Y022752D02*
X032528Y022752D01*
X032528Y022910D02*
X033069Y022910D01*
X033069Y023069D02*
X032528Y023069D01*
X032528Y023227D02*
X033069Y023227D01*
X033069Y023386D02*
X032528Y023386D01*
X032528Y023544D02*
X033069Y023544D01*
X033069Y023703D02*
X032528Y023703D01*
X032528Y023861D02*
X033069Y023861D01*
X033069Y024020D02*
X032528Y024020D01*
X032528Y024178D02*
X033069Y024178D01*
X033069Y024337D02*
X032528Y024337D01*
X032528Y024495D02*
X033069Y024495D01*
X033069Y024654D02*
X032528Y024654D01*
X032528Y024812D02*
X033069Y024812D01*
X033069Y024971D02*
X032528Y024971D01*
X032528Y025129D02*
X033069Y025129D01*
X033069Y025288D02*
X032528Y025288D01*
X032528Y025446D02*
X033069Y025446D01*
X033069Y025605D02*
X032528Y025605D01*
X032528Y025763D02*
X033069Y025763D01*
X032942Y025922D02*
X032528Y025922D01*
X032523Y026080D02*
X032783Y026080D01*
X032625Y026239D02*
X032427Y026239D01*
X032466Y026397D02*
X032269Y026397D01*
X032308Y026556D02*
X032110Y026556D01*
X032208Y026006D02*
X032208Y020809D01*
X031420Y020022D01*
X031420Y016872D01*
X031420Y015573D01*
X030554Y014707D01*
X030968Y014668D02*
X031888Y014668D01*
X031888Y014510D02*
X030951Y014510D01*
X030892Y014351D02*
X031888Y014351D01*
X031888Y014193D02*
X029744Y014193D01*
X029586Y014034D02*
X031888Y014034D01*
X031888Y013876D02*
X029575Y013876D01*
X029575Y013717D02*
X031888Y013717D01*
X031888Y013559D02*
X029575Y013559D01*
X029575Y013400D02*
X031826Y013400D01*
X031668Y013242D02*
X029575Y013242D01*
X029575Y013083D02*
X031509Y013083D01*
X031351Y012925D02*
X029575Y012925D01*
X029575Y012766D02*
X031192Y012766D01*
X031034Y012608D02*
X029575Y012608D01*
X029575Y012449D02*
X030875Y012449D01*
X030717Y012291D02*
X029575Y012291D01*
X029575Y012132D02*
X030558Y012132D01*
X030400Y011974D02*
X029575Y011974D01*
X029575Y011815D02*
X030313Y011815D01*
X030313Y011657D02*
X029613Y011657D01*
X029652Y011498D02*
X030313Y011498D01*
X030313Y011340D02*
X029652Y011340D01*
X029652Y011181D02*
X030313Y011181D01*
X030313Y011023D02*
X029630Y011023D01*
X029255Y011321D02*
X029255Y014155D01*
X029806Y014707D01*
X029163Y015461D02*
X028591Y015461D01*
X028591Y015619D02*
X029321Y015619D01*
X029480Y015778D02*
X028591Y015778D01*
X028591Y015936D02*
X029525Y015936D01*
X029525Y016095D02*
X028591Y016095D01*
X028665Y016253D02*
X029525Y016253D01*
X029525Y016412D02*
X028705Y016412D01*
X028680Y016570D02*
X029482Y016570D01*
X029472Y016729D02*
X028671Y016729D01*
X028671Y016887D02*
X029445Y016887D01*
X029480Y017046D02*
X028636Y017046D01*
X028621Y017204D02*
X029495Y017204D01*
X029525Y017363D02*
X028591Y017363D01*
X028591Y017521D02*
X029525Y017521D01*
X029525Y017680D02*
X028591Y017680D01*
X028543Y017838D02*
X029525Y017838D01*
X029525Y017997D02*
X028511Y017997D01*
X028589Y018155D02*
X029525Y018155D01*
X029525Y018314D02*
X028747Y018314D01*
X028906Y018472D02*
X029525Y018472D01*
X029525Y018631D02*
X029064Y018631D01*
X029223Y018789D02*
X029525Y018789D01*
X029525Y018948D02*
X029351Y018948D01*
X029378Y019106D02*
X029525Y019106D01*
X029525Y019265D02*
X029378Y019265D01*
X029378Y019423D02*
X029525Y019423D01*
X029525Y019582D02*
X029378Y019582D01*
X029378Y019740D02*
X029525Y019740D01*
X029525Y019899D02*
X029378Y019899D01*
X029378Y020057D02*
X029525Y020057D01*
X029525Y020216D02*
X029378Y020216D01*
X029378Y020374D02*
X029525Y020374D01*
X029525Y020533D02*
X029378Y020533D01*
X029378Y020691D02*
X029525Y020691D01*
X029525Y020850D02*
X029378Y020850D01*
X029378Y021008D02*
X029525Y021008D01*
X029525Y021167D02*
X029378Y021167D01*
X029378Y021325D02*
X029525Y021325D01*
X029525Y021484D02*
X029378Y021484D01*
X029378Y021642D02*
X029525Y021642D01*
X029525Y021801D02*
X029378Y021801D01*
X029378Y021959D02*
X029525Y021959D01*
X029525Y022118D02*
X029378Y022118D01*
X029378Y022276D02*
X029525Y022276D01*
X029525Y022435D02*
X029378Y022435D01*
X029378Y022593D02*
X029525Y022593D01*
X029525Y022752D02*
X029378Y022752D01*
X029378Y022910D02*
X029525Y022910D01*
X029525Y023069D02*
X029378Y023069D01*
X029378Y023227D02*
X029525Y023227D01*
X029525Y023386D02*
X029378Y023386D01*
X029378Y023544D02*
X029525Y023544D01*
X029525Y023703D02*
X029378Y023703D01*
X029378Y023861D02*
X029525Y023861D01*
X029525Y024020D02*
X029378Y024020D01*
X029378Y024178D02*
X029525Y024178D01*
X029525Y024337D02*
X029378Y024337D01*
X029378Y024495D02*
X029525Y024495D01*
X029525Y024654D02*
X029378Y024654D01*
X029378Y024812D02*
X029525Y024812D01*
X029525Y024971D02*
X029378Y024971D01*
X029378Y025129D02*
X029525Y025129D01*
X029525Y025288D02*
X029378Y025288D01*
X029378Y025446D02*
X029525Y025446D01*
X029525Y025605D02*
X029378Y025605D01*
X029378Y025763D02*
X029525Y025763D01*
X029525Y025922D02*
X029378Y025922D01*
X029378Y026080D02*
X029525Y026080D01*
X029525Y026239D02*
X029378Y026239D01*
X029373Y026397D02*
X029525Y026397D01*
X029525Y026556D02*
X029276Y026556D01*
X029393Y026714D02*
X029117Y026714D01*
X029235Y026873D02*
X028959Y026873D01*
X029076Y027031D02*
X028800Y027031D01*
X028918Y027190D02*
X028642Y027190D01*
X028775Y027348D02*
X028483Y027348D01*
X028325Y027507D02*
X028738Y027507D01*
X028738Y027665D02*
X028166Y027665D01*
X028008Y027824D02*
X028738Y027824D01*
X028738Y027982D02*
X027849Y027982D01*
X027802Y028141D02*
X028738Y028141D01*
X028738Y028299D02*
X027802Y028299D01*
X027802Y028458D02*
X028738Y028458D01*
X028738Y028616D02*
X027768Y028616D01*
X026617Y028289D02*
X026617Y031281D01*
X026696Y031833D02*
X029058Y029470D01*
X029058Y027502D01*
X029845Y026714D01*
X029845Y024352D01*
X030475Y024352D01*
X031184Y024352D02*
X031184Y024037D01*
X030633Y023486D01*
X030633Y021990D01*
X030633Y021203D02*
X031420Y021990D01*
X031381Y021203D02*
X031381Y020809D01*
X030436Y019864D01*
X030436Y018053D01*
X029845Y016872D02*
X029845Y024352D01*
X028555Y026180D02*
X028055Y026180D01*
X026180Y028055D01*
X026180Y029180D01*
X025515Y028289D02*
X025515Y031439D01*
X024334Y032620D01*
X024334Y033801D01*
X023546Y034588D01*
X023546Y036321D01*
X024215Y036360D02*
X024215Y034746D01*
X024334Y034628D01*
X025121Y034588D02*
X025121Y032856D01*
X025475Y032502D01*
X024452Y030100D02*
X024452Y029628D01*
X025515Y028289D02*
X026696Y027108D01*
X026696Y024352D01*
X026376Y024337D02*
X025835Y024337D01*
X025835Y024495D02*
X026376Y024495D01*
X026376Y024654D02*
X025835Y024654D01*
X025835Y024812D02*
X026376Y024812D01*
X026376Y024971D02*
X025835Y024971D01*
X025835Y025129D02*
X026376Y025129D01*
X026376Y025288D02*
X025835Y025288D01*
X025835Y025446D02*
X026376Y025446D01*
X026376Y025605D02*
X025835Y025605D01*
X025815Y025763D02*
X026376Y025763D01*
X026376Y025922D02*
X025697Y025922D01*
X025964Y026080D02*
X026376Y026080D01*
X026376Y026239D02*
X026066Y026239D01*
X026211Y026397D02*
X026376Y026397D01*
X026376Y026556D02*
X026250Y026556D01*
X026250Y026714D02*
X026376Y026714D01*
X026376Y026873D02*
X026250Y026873D01*
X025930Y027180D02*
X025930Y026555D01*
X025680Y026305D01*
X025042Y024352D02*
X025042Y023919D01*
X024334Y023211D01*
X025835Y023227D02*
X026376Y023227D01*
X026376Y023069D02*
X025835Y023069D01*
X025835Y022910D02*
X026376Y022910D01*
X026376Y022752D02*
X025835Y022752D01*
X025835Y022593D02*
X026376Y022593D01*
X026376Y022435D02*
X025835Y022435D01*
X025835Y022276D02*
X026376Y022276D01*
X026376Y022118D02*
X025835Y022118D01*
X025121Y021203D02*
X025121Y020809D01*
X024294Y019982D01*
X024294Y018053D01*
X022759Y016872D02*
X022759Y014431D01*
X022523Y014195D01*
X022523Y013329D01*
X021971Y013329D01*
X022523Y013329D02*
X022523Y003250D01*
X021971Y002699D01*
X021184Y002699D02*
X021184Y005455D01*
X021971Y006242D01*
X021971Y006636D01*
X021184Y006636D02*
X021184Y007029D01*
X021971Y007817D01*
X021971Y008211D01*
X023546Y007817D02*
X024727Y008998D01*
X024727Y010179D01*
X025042Y009588D02*
X025397Y009943D01*
X025042Y009588D02*
X025042Y007777D01*
X024334Y007856D02*
X024255Y007777D01*
X024255Y006085D01*
X023546Y006085D02*
X023546Y007817D01*
X024255Y007777D02*
X024255Y007935D01*
X026499Y007856D02*
X026499Y008407D01*
X026696Y008604D01*
X026696Y009785D01*
X027877Y010966D01*
X027877Y013722D01*
X029845Y015691D01*
X029845Y016872D01*
X028271Y016872D02*
X028271Y017659D01*
X028074Y017856D01*
X028074Y018092D01*
X028271Y016872D02*
X028271Y014982D01*
X027404Y014116D01*
X026656Y014155D02*
X026184Y013683D01*
X026184Y009903D01*
X027247Y009510D02*
X027523Y009785D01*
X027247Y009510D02*
X027247Y007777D01*
X028271Y009746D02*
X028271Y011085D01*
X028507Y011321D01*
X028591Y010864D02*
X030313Y010864D01*
X030313Y010706D02*
X028591Y010706D01*
X028591Y010547D02*
X030313Y010547D01*
X030313Y010389D02*
X028591Y010389D01*
X028591Y010230D02*
X030231Y010230D01*
X030073Y010072D02*
X028651Y010072D01*
X028668Y009913D02*
X029875Y009913D01*
X029842Y009755D02*
X029588Y009755D01*
X029747Y009596D02*
X029842Y009596D01*
X030987Y009628D02*
X030987Y010927D01*
X031420Y011360D01*
X032168Y011360D02*
X032168Y011675D01*
X031735Y012108D01*
X032483Y012148D02*
X032483Y014077D01*
X032837Y014431D01*
X032837Y014864D01*
X032877Y014903D01*
X031888Y014827D02*
X031127Y014827D01*
X031285Y014985D02*
X031888Y014985D01*
X031888Y015144D02*
X031444Y015144D01*
X031602Y015302D02*
X031888Y015302D01*
X031929Y015461D02*
X031720Y015461D01*
X031740Y015619D02*
X032077Y015619D01*
X032235Y015778D02*
X031740Y015778D01*
X031740Y015936D02*
X032394Y015936D01*
X032552Y016095D02*
X031740Y016095D01*
X031790Y016253D02*
X032675Y016253D01*
X032675Y016412D02*
X031830Y016412D01*
X031820Y016570D02*
X032632Y016570D01*
X032583Y016729D02*
X031820Y016729D01*
X031820Y016887D02*
X032530Y016887D01*
X032530Y017046D02*
X031785Y017046D01*
X031771Y017204D02*
X032530Y017204D01*
X032573Y017363D02*
X031740Y017363D01*
X031740Y017521D02*
X032675Y017521D01*
X032675Y017680D02*
X031740Y017680D01*
X031740Y017838D02*
X032675Y017838D01*
X032675Y017997D02*
X031740Y017997D01*
X031740Y018155D02*
X032675Y018155D01*
X032675Y018314D02*
X031740Y018314D01*
X031740Y018472D02*
X032675Y018472D01*
X032675Y018631D02*
X031740Y018631D01*
X031740Y018789D02*
X032675Y018789D01*
X032675Y018948D02*
X031740Y018948D01*
X031740Y019106D02*
X032675Y019106D01*
X033507Y019707D02*
X034530Y020730D01*
X034530Y021163D01*
X033782Y021203D02*
X034570Y021990D01*
X035283Y021959D02*
X035825Y021959D01*
X035825Y021801D02*
X035283Y021801D01*
X035283Y021642D02*
X035825Y021642D01*
X035825Y021484D02*
X035283Y021484D01*
X035283Y021325D02*
X035825Y021325D01*
X035825Y021167D02*
X035283Y021167D01*
X035283Y021008D02*
X035825Y021008D01*
X035825Y020850D02*
X035283Y020850D01*
X035283Y020691D02*
X035825Y020691D01*
X035825Y020533D02*
X035283Y020533D01*
X035283Y020374D02*
X035825Y020374D01*
X035825Y020216D02*
X035216Y020216D01*
X035235Y020234D02*
X035283Y020352D01*
X035283Y024810D01*
X035235Y024927D01*
X033866Y026296D01*
X033866Y027096D01*
X033879Y027102D01*
X033946Y027169D01*
X033983Y027257D01*
X033983Y027746D01*
X033946Y027835D01*
X033879Y027902D01*
X033866Y027907D01*
X033866Y029721D01*
X034250Y029338D01*
X034250Y029013D01*
X034298Y028895D01*
X034388Y028805D01*
X034643Y028550D01*
X034643Y027851D01*
X034579Y027915D01*
X034281Y027915D01*
X034070Y027704D01*
X034070Y027406D01*
X034110Y027366D01*
X034110Y026494D01*
X034070Y026454D01*
X034070Y026156D01*
X034281Y025945D01*
X034579Y025945D01*
X034733Y026099D01*
X034782Y026049D01*
X035825Y025007D01*
X035825Y020154D01*
X035480Y019809D01*
X035431Y019691D01*
X035431Y017497D01*
X035341Y017407D01*
X035280Y017260D01*
X035280Y016863D01*
X035341Y016716D01*
X035386Y016671D01*
X035386Y016574D01*
X035422Y016486D01*
X035431Y016478D01*
X035431Y016217D01*
X034782Y015568D01*
X034692Y015478D01*
X034643Y015361D01*
X034643Y013461D01*
X033866Y012684D01*
X033866Y014498D01*
X033879Y014503D01*
X033946Y014571D01*
X033983Y014659D01*
X033983Y015045D01*
X034751Y015813D01*
X034841Y015903D01*
X034890Y016021D01*
X034890Y016143D01*
X034928Y016181D01*
X034995Y016342D01*
X034995Y016749D01*
X035010Y016784D01*
X035010Y016959D01*
X034943Y017121D01*
X034935Y017129D01*
X034935Y017170D01*
X034898Y017258D01*
X034890Y017266D01*
X034890Y017723D01*
X034841Y017841D01*
X034692Y017990D01*
X034692Y018298D01*
X034655Y018386D01*
X034588Y018453D01*
X034499Y018490D01*
X034496Y018490D01*
X034496Y019495D01*
X035145Y020144D01*
X035235Y020234D01*
X035058Y020057D02*
X035728Y020057D01*
X035569Y019899D02*
X034899Y019899D01*
X034741Y019740D02*
X035451Y019740D01*
X035431Y019582D02*
X034582Y019582D01*
X034496Y019423D02*
X035431Y019423D01*
X035431Y019265D02*
X034496Y019265D01*
X034496Y019106D02*
X035431Y019106D01*
X035431Y018948D02*
X034496Y018948D01*
X034496Y018789D02*
X035431Y018789D01*
X035431Y018631D02*
X034496Y018631D01*
X034543Y018472D02*
X035431Y018472D01*
X035431Y018314D02*
X034685Y018314D01*
X034692Y018155D02*
X035431Y018155D01*
X035431Y017997D02*
X034692Y017997D01*
X034842Y017838D02*
X035431Y017838D01*
X035431Y017680D02*
X034890Y017680D01*
X034890Y017521D02*
X035431Y017521D01*
X035323Y017363D02*
X034890Y017363D01*
X034921Y017204D02*
X035280Y017204D01*
X035280Y017046D02*
X034974Y017046D01*
X035010Y016887D02*
X035280Y016887D01*
X035336Y016729D02*
X034995Y016729D01*
X034995Y016570D02*
X035388Y016570D01*
X035431Y016412D02*
X034995Y016412D01*
X034958Y016253D02*
X035431Y016253D01*
X035308Y016095D02*
X034890Y016095D01*
X034855Y015936D02*
X035150Y015936D01*
X034991Y015778D02*
X034715Y015778D01*
X034833Y015619D02*
X034557Y015619D01*
X034685Y015461D02*
X034398Y015461D01*
X034240Y015302D02*
X034643Y015302D01*
X034643Y015144D02*
X034081Y015144D01*
X033983Y014985D02*
X034643Y014985D01*
X034643Y014827D02*
X033983Y014827D01*
X033983Y014668D02*
X034643Y014668D01*
X034643Y014510D02*
X033885Y014510D01*
X033866Y014351D02*
X034643Y014351D01*
X034643Y014193D02*
X033866Y014193D01*
X033866Y014034D02*
X034643Y014034D01*
X034643Y013876D02*
X033866Y013876D01*
X033866Y013717D02*
X034643Y013717D01*
X034643Y013559D02*
X033866Y013559D01*
X033866Y013400D02*
X034582Y013400D01*
X034424Y013242D02*
X033866Y013242D01*
X033866Y013083D02*
X034265Y013083D01*
X034107Y012925D02*
X033866Y012925D01*
X033866Y012766D02*
X033948Y012766D01*
X034806Y012148D02*
X035554Y012896D01*
X035554Y014903D01*
X036583Y014498D02*
X036583Y012644D01*
X037006Y013067D01*
X037006Y014573D01*
X037054Y014691D01*
X037144Y014781D01*
X037793Y015430D01*
X037793Y016478D01*
X037785Y016486D01*
X037748Y016574D01*
X037748Y016708D01*
X037713Y016792D01*
X037713Y016951D01*
X037748Y017036D01*
X037748Y017170D01*
X037780Y017247D01*
X037780Y017260D01*
X037793Y017291D01*
X037793Y020036D01*
X037252Y019495D01*
X037252Y018490D01*
X037295Y018490D01*
X037383Y018453D01*
X037450Y018386D01*
X037487Y018298D01*
X037487Y017808D01*
X037450Y017720D01*
X037383Y017653D01*
X037295Y017616D01*
X037252Y017616D01*
X037252Y017266D01*
X037260Y017258D01*
X037297Y017170D01*
X037297Y017129D01*
X037305Y017121D01*
X037372Y016959D01*
X037372Y016784D01*
X037370Y016780D01*
X037370Y016342D01*
X037303Y016181D01*
X037252Y016130D01*
X037252Y015706D01*
X037203Y015588D01*
X036700Y015085D01*
X036700Y014659D01*
X036663Y014571D01*
X036595Y014503D01*
X036583Y014498D01*
X036602Y014510D02*
X037006Y014510D01*
X037006Y014351D02*
X036583Y014351D01*
X036583Y014193D02*
X037006Y014193D01*
X037006Y014034D02*
X036583Y014034D01*
X036583Y013876D02*
X037006Y013876D01*
X037006Y013717D02*
X036583Y013717D01*
X036583Y013559D02*
X037006Y013559D01*
X037006Y013400D02*
X036583Y013400D01*
X036583Y013242D02*
X037006Y013242D01*
X037006Y013083D02*
X036583Y013083D01*
X036583Y012925D02*
X036863Y012925D01*
X036704Y012766D02*
X036583Y012766D01*
X037326Y012935D02*
X037326Y014510D01*
X038113Y015297D01*
X038113Y016872D01*
X038113Y020415D01*
X038507Y020809D01*
X038507Y024746D01*
X038113Y025140D01*
X038113Y027108D01*
X036538Y028683D01*
X036538Y030258D01*
X035357Y031439D01*
X035357Y031833D01*
X034176Y033014D01*
X034176Y033407D01*
X033586Y033998D01*
X033586Y034588D01*
X034294Y034549D02*
X034294Y033683D01*
X034570Y033407D01*
X035357Y033407D02*
X035357Y032344D01*
X036145Y031557D01*
X036853Y031557D02*
X036853Y029274D01*
X037916Y028211D01*
X038704Y028211D02*
X038704Y025376D01*
X039412Y024667D01*
X039412Y023289D01*
X038900Y022777D01*
X038900Y020415D01*
X038507Y020022D01*
X038507Y017659D01*
X038900Y017266D01*
X039294Y017266D01*
X039688Y017659D01*
X039688Y018053D01*
X039294Y017266D02*
X039294Y016478D01*
X038743Y015927D01*
X038743Y014195D01*
X037956Y014155D02*
X037956Y012502D01*
X036932Y011478D01*
X036932Y010848D01*
X036105Y010848D02*
X036105Y010140D01*
X035318Y009352D01*
X035318Y008998D01*
X034530Y008998D02*
X034530Y008486D01*
X034334Y008289D01*
X034334Y007896D01*
X034176Y008604D02*
X034176Y009785D01*
X037326Y012935D01*
X037045Y014668D02*
X036700Y014668D01*
X036700Y014827D02*
X037190Y014827D01*
X037348Y014985D02*
X036700Y014985D01*
X036758Y015144D02*
X037507Y015144D01*
X037665Y015302D02*
X036917Y015302D01*
X037075Y015461D02*
X037793Y015461D01*
X037793Y015619D02*
X037216Y015619D01*
X037252Y015778D02*
X037793Y015778D01*
X037793Y015936D02*
X037252Y015936D01*
X037252Y016095D02*
X037793Y016095D01*
X037793Y016253D02*
X037333Y016253D01*
X037370Y016412D02*
X037793Y016412D01*
X037750Y016570D02*
X037370Y016570D01*
X037370Y016729D02*
X037740Y016729D01*
X037713Y016887D02*
X037372Y016887D01*
X037336Y017046D02*
X037748Y017046D01*
X037762Y017204D02*
X037283Y017204D01*
X037252Y017363D02*
X037793Y017363D01*
X037793Y017521D02*
X037252Y017521D01*
X037410Y017680D02*
X037793Y017680D01*
X037793Y017838D02*
X037487Y017838D01*
X037487Y017997D02*
X037793Y017997D01*
X037793Y018155D02*
X037487Y018155D01*
X037480Y018314D02*
X037793Y018314D01*
X037793Y018472D02*
X037338Y018472D01*
X037252Y018631D02*
X037793Y018631D01*
X037793Y018789D02*
X037252Y018789D01*
X037252Y018948D02*
X037793Y018948D01*
X037793Y019106D02*
X037252Y019106D01*
X037252Y019265D02*
X037793Y019265D01*
X037793Y019423D02*
X037252Y019423D01*
X037338Y019582D02*
X037793Y019582D01*
X037793Y019740D02*
X037497Y019740D01*
X037655Y019899D02*
X037793Y019899D01*
X037286Y020651D02*
X037286Y021203D01*
X037286Y020651D02*
X036263Y019628D01*
X036263Y018014D01*
X033507Y018053D02*
X033507Y019707D01*
X033782Y021990D02*
X033782Y023565D01*
X034176Y023959D01*
X034176Y024352D01*
X035033Y025129D02*
X035703Y025129D01*
X035825Y024971D02*
X035191Y024971D01*
X035282Y024812D02*
X035825Y024812D01*
X035825Y024654D02*
X035283Y024654D01*
X035283Y024495D02*
X035825Y024495D01*
X035825Y024337D02*
X035283Y024337D01*
X035283Y024178D02*
X035825Y024178D01*
X035825Y024020D02*
X035283Y024020D01*
X035283Y023861D02*
X035825Y023861D01*
X035825Y023703D02*
X035283Y023703D01*
X035283Y023544D02*
X035825Y023544D01*
X035825Y023386D02*
X035283Y023386D01*
X035283Y023227D02*
X035825Y023227D01*
X035825Y023069D02*
X035283Y023069D01*
X035283Y022910D02*
X035825Y022910D01*
X035825Y022752D02*
X035283Y022752D01*
X035283Y022593D02*
X035825Y022593D01*
X035825Y022435D02*
X035283Y022435D01*
X035283Y022276D02*
X035825Y022276D01*
X035825Y022118D02*
X035283Y022118D01*
X036538Y021990D02*
X036538Y023565D01*
X036932Y023959D01*
X036932Y024352D01*
X035544Y025288D02*
X034874Y025288D01*
X034716Y025446D02*
X035386Y025446D01*
X035227Y025605D02*
X034557Y025605D01*
X034399Y025763D02*
X035069Y025763D01*
X034910Y025922D02*
X034240Y025922D01*
X034146Y026080D02*
X034082Y026080D01*
X034070Y026239D02*
X033923Y026239D01*
X033866Y026397D02*
X034070Y026397D01*
X034110Y026556D02*
X033866Y026556D01*
X033866Y026714D02*
X034110Y026714D01*
X034110Y026873D02*
X033866Y026873D01*
X033866Y027031D02*
X034110Y027031D01*
X034110Y027190D02*
X033955Y027190D01*
X033983Y027348D02*
X034110Y027348D01*
X034070Y027507D02*
X033983Y027507D01*
X033983Y027665D02*
X034070Y027665D01*
X033951Y027824D02*
X034189Y027824D01*
X033866Y027982D02*
X034643Y027982D01*
X034643Y028141D02*
X033866Y028141D01*
X033866Y028299D02*
X034643Y028299D01*
X034643Y028458D02*
X033866Y028458D01*
X033866Y028616D02*
X034578Y028616D01*
X034419Y028775D02*
X033866Y028775D01*
X033866Y028933D02*
X034283Y028933D01*
X034250Y029092D02*
X033866Y029092D01*
X033866Y029250D02*
X034250Y029250D01*
X034179Y029409D02*
X033866Y029409D01*
X033866Y029567D02*
X034021Y029567D01*
X034885Y029470D02*
X034885Y030691D01*
X034845Y030730D01*
X034097Y030770D02*
X034097Y031360D01*
X034215Y031478D01*
X033428Y031478D02*
X033428Y032974D01*
X033349Y033053D01*
X030180Y031680D02*
X030180Y030430D01*
X030680Y029930D01*
X030985Y029726D02*
X031106Y029726D01*
X031680Y028180D02*
X031680Y027055D01*
X031476Y027190D02*
X031888Y027190D01*
X031888Y027348D02*
X031318Y027348D01*
X031159Y027507D02*
X031888Y027507D01*
X031888Y027665D02*
X031001Y027665D01*
X030951Y027824D02*
X031888Y027824D01*
X031888Y027982D02*
X030935Y027982D01*
X030515Y027699D02*
X032208Y026006D01*
X034430Y026305D02*
X034430Y027555D01*
X035515Y027502D02*
X035515Y028840D01*
X034885Y029470D01*
X034752Y026080D02*
X034714Y026080D01*
X037326Y021990D02*
X036538Y021203D01*
X039019Y019707D02*
X040042Y020730D01*
X040042Y021242D01*
X040042Y021951D02*
X040042Y021990D01*
X040042Y021951D02*
X039294Y021203D01*
X039294Y021990D02*
X039294Y022384D01*
X039688Y022777D01*
X039688Y024352D01*
X039019Y019707D02*
X039019Y018092D01*
X034806Y012148D02*
X034806Y011557D01*
X034176Y011518D02*
X034176Y010966D01*
X034176Y011518D02*
X034058Y011636D01*
X033389Y010966D02*
X033389Y009392D01*
X034176Y008604D02*
X033507Y007935D01*
X033507Y007856D01*
X028687Y014985D02*
X028591Y014985D01*
X028591Y015144D02*
X028846Y015144D01*
X029004Y015302D02*
X028591Y015302D01*
X026376Y023386D02*
X025835Y023386D01*
X025835Y023544D02*
X026376Y023544D01*
X026376Y023703D02*
X025835Y023703D01*
X025835Y023861D02*
X026376Y023861D01*
X026376Y024020D02*
X025835Y024020D01*
X025835Y024178D02*
X026376Y024178D01*
X016499Y014155D02*
X016971Y013683D01*
X016971Y009903D01*
X016460Y009785D02*
X015278Y010966D01*
X015278Y013722D01*
X014565Y014985D02*
X014468Y014985D01*
X014565Y015144D02*
X014310Y015144D01*
X014151Y015302D02*
X014565Y015302D01*
X009649Y018053D02*
X009649Y019707D01*
X008625Y020730D01*
X008625Y021163D01*
X009373Y021203D02*
X008586Y021990D01*
X009373Y021990D02*
X009373Y023565D01*
X008979Y023959D01*
X008979Y024352D01*
X006617Y023565D02*
X006617Y021990D01*
X006617Y021203D02*
X005830Y021990D01*
X005869Y021203D02*
X005869Y020651D01*
X006893Y019628D01*
X006893Y018014D01*
X005903Y017521D02*
X005362Y017521D01*
X005362Y017363D02*
X005903Y017363D01*
X005873Y017204D02*
X005393Y017204D01*
X005447Y017046D02*
X005858Y017046D01*
X005823Y016887D02*
X005482Y016887D01*
X005482Y016729D02*
X005850Y016729D01*
X005860Y016570D02*
X005482Y016570D01*
X005495Y016412D02*
X005903Y016412D01*
X005903Y016253D02*
X005458Y016253D01*
X005362Y016095D02*
X005903Y016095D01*
X005903Y015936D02*
X005362Y015936D01*
X005362Y015778D02*
X005903Y015778D01*
X005939Y015619D02*
X005362Y015619D01*
X005362Y015461D02*
X006080Y015461D01*
X006238Y015302D02*
X005490Y015302D01*
X005648Y015144D02*
X006397Y015144D01*
X006456Y014985D02*
X005807Y014985D01*
X005965Y014827D02*
X006456Y014827D01*
X006456Y014668D02*
X006110Y014668D01*
X003861Y017266D02*
X003467Y017659D01*
X003467Y018053D01*
X003743Y018471D02*
X003721Y018493D01*
X003633Y018529D01*
X003171Y018529D01*
X003035Y019534D01*
X002997Y020394D01*
X003817Y019574D01*
X003817Y018514D01*
X003765Y018493D01*
X003743Y018471D01*
X003742Y018472D02*
X003744Y018472D01*
X003817Y018631D02*
X003157Y018631D01*
X003136Y018789D02*
X003817Y018789D01*
X003817Y018948D02*
X003115Y018948D01*
X003093Y019106D02*
X003817Y019106D01*
X003817Y019265D02*
X003072Y019265D01*
X003050Y019423D02*
X003817Y019423D01*
X003809Y019582D02*
X003033Y019582D01*
X003026Y019740D02*
X003651Y019740D01*
X003492Y019899D02*
X003019Y019899D01*
X003012Y020057D02*
X003334Y020057D01*
X003175Y020216D02*
X003005Y020216D01*
X002997Y020374D02*
X003017Y020374D01*
X003113Y020730D02*
X003113Y021242D01*
X003113Y020730D02*
X004137Y019707D01*
X004137Y018092D01*
X005362Y018155D02*
X005668Y018155D01*
X005668Y017997D02*
X005362Y017997D01*
X005362Y017838D02*
X005668Y017838D01*
X005746Y017680D02*
X005362Y017680D01*
X005362Y018314D02*
X005675Y018314D01*
X005818Y018472D02*
X005362Y018472D01*
X005362Y018631D02*
X005903Y018631D01*
X005903Y018789D02*
X005362Y018789D01*
X005362Y018948D02*
X005903Y018948D01*
X005903Y019106D02*
X005362Y019106D01*
X005362Y019265D02*
X005903Y019265D01*
X005903Y019423D02*
X005362Y019423D01*
X005362Y019582D02*
X005817Y019582D01*
X005659Y019740D02*
X005362Y019740D01*
X005362Y019899D02*
X005500Y019899D01*
X003861Y021203D02*
X003113Y021951D01*
X003113Y021990D01*
X003861Y021990D02*
X003861Y022384D01*
X003467Y022777D01*
X003467Y024352D01*
X006223Y024352D02*
X006223Y023959D01*
X006617Y023565D01*
X016460Y009785D02*
X016460Y008604D01*
X016656Y008407D01*
X016656Y007856D01*
X020542Y002622D02*
X020786Y002622D01*
D14*
X020397Y016872D03*
X019215Y016872D03*
X018034Y016872D03*
X016460Y016872D03*
X014885Y016872D03*
X013310Y016872D03*
X011735Y016872D03*
X010160Y016872D03*
X008586Y016872D03*
X007404Y016872D03*
X006223Y016872D03*
X005042Y016872D03*
X003861Y016872D03*
X022759Y016872D03*
X023940Y016872D03*
X025121Y016872D03*
X026696Y016872D03*
X028271Y016872D03*
X029845Y016872D03*
X031420Y016872D03*
X032995Y016872D03*
X034570Y016872D03*
X035751Y016872D03*
X036932Y016872D03*
X038113Y016872D03*
X039294Y016872D03*
D15*
X039305Y016430D03*
X038180Y017180D03*
X037680Y015930D03*
X036930Y016430D03*
X035680Y017180D03*
X035055Y017555D03*
X034555Y016430D03*
X034805Y015805D03*
X032930Y017180D03*
X032180Y017305D03*
X031430Y016430D03*
X031930Y015805D03*
X029930Y017180D03*
X028930Y017055D03*
X028305Y016430D03*
X028930Y015680D03*
X026680Y017180D03*
X025930Y017055D03*
X024930Y016430D03*
X025930Y015805D03*
X023930Y017180D03*
X023305Y017555D03*
X023305Y016430D03*
X020430Y017180D03*
X019180Y016430D03*
X018180Y017180D03*
X017180Y017305D03*
X016430Y016430D03*
X017305Y015680D03*
X014930Y017180D03*
X014180Y017180D03*
X013305Y016430D03*
X014305Y015680D03*
X011680Y017180D03*
X010930Y017055D03*
X010180Y016430D03*
X011180Y015805D03*
X008430Y015680D03*
X007430Y016430D03*
X008055Y017055D03*
X008680Y017180D03*
X008305Y019180D03*
X005805Y019180D03*
X005680Y017180D03*
X005055Y016430D03*
X005680Y015805D03*
X006305Y017180D03*
X004180Y017180D03*
X003680Y019305D03*
X010305Y022055D03*
X010680Y018805D03*
X013930Y018680D03*
X014555Y019805D03*
X017055Y022180D03*
X017055Y024180D03*
X014680Y022930D03*
X017180Y018555D03*
X019805Y019305D03*
X023305Y021805D03*
X026305Y019305D03*
X029430Y019305D03*
X032555Y019305D03*
X029430Y023305D03*
X028555Y026180D03*
X025930Y027180D03*
X025680Y026305D03*
X023180Y026555D03*
X020055Y026680D03*
X026180Y029180D03*
X027180Y028930D03*
X027805Y030180D03*
X030180Y031680D03*
X030680Y029930D03*
X031680Y028180D03*
X032805Y025930D03*
X034430Y026305D03*
X034430Y027555D03*
X037680Y019180D03*
X020680Y008180D03*
X020180Y008180D03*
X018180Y011555D03*
X020055Y004555D03*
X020680Y004555D03*
D16*
X023201Y016430D02*
X023305Y016430D01*
X023201Y016430D02*
X022759Y016872D01*
X023305Y017555D02*
X023305Y021805D01*
X023305Y026430D01*
X023180Y026555D01*
X020055Y026430D02*
X019805Y026180D01*
X019805Y019305D01*
X020430Y017180D02*
X020430Y016905D01*
X020397Y016872D01*
X018180Y017018D02*
X018034Y016872D01*
X018180Y017018D02*
X018180Y017180D01*
X014930Y017180D02*
X014930Y016917D01*
X014885Y016872D01*
X011735Y016872D02*
X011680Y016927D01*
X011680Y017180D01*
X008680Y017180D02*
X008680Y016966D01*
X008586Y016872D01*
X006305Y016954D02*
X006223Y016872D01*
X006305Y016954D02*
X006305Y017180D01*
X004180Y017180D02*
X004169Y017180D01*
X003861Y016872D01*
X020055Y026430D02*
X020055Y026680D01*
X029430Y023305D02*
X029430Y019305D01*
X029930Y017180D02*
X029930Y016957D01*
X029845Y016872D01*
X028271Y016872D02*
X028271Y016464D01*
X028305Y016430D01*
X026696Y016872D02*
X026680Y016888D01*
X026680Y017180D01*
X023930Y017180D02*
X023930Y016882D01*
X023940Y016872D01*
X031420Y016872D02*
X031420Y016440D01*
X031430Y016430D01*
X032930Y016937D02*
X032995Y016872D01*
X032930Y016937D02*
X032930Y017180D01*
X035680Y017180D02*
X035680Y016943D01*
X035751Y016872D01*
X038113Y016872D02*
X038180Y016939D01*
X038180Y017180D01*
D17*
X039294Y016872D02*
X039294Y016441D01*
X039305Y016430D01*
X036930Y016430D02*
X036930Y016870D01*
X036932Y016872D01*
X034570Y016872D02*
X034555Y016857D01*
X034555Y016430D01*
X024930Y016430D02*
X024930Y016787D01*
X024845Y016872D01*
X019215Y016872D02*
X019215Y016465D01*
X019180Y016430D01*
X016430Y016430D02*
X016430Y016842D01*
X016460Y016872D01*
X013310Y016872D02*
X013305Y016867D01*
X013305Y016430D01*
X010180Y016430D02*
X010180Y016852D01*
X010160Y016872D01*
X007430Y016846D02*
X007430Y016430D01*
X007430Y016846D02*
X007404Y016872D01*
X005042Y016872D02*
X005042Y016443D01*
X005055Y016430D01*
M02*
