%
M48
M72
T01C0.0120
T02C0.1260
%
T01
X5680Y15805
X5055Y16430
X5680Y17180
X6305Y17180
X7430Y16430
X8055Y17055
X8680Y17180
X8430Y15680
X10180Y16430
X10930Y17055
X11680Y17180
X11180Y15805
X13305Y16430
X14180Y17180
X14930Y17180
X14305Y15680
X16430Y16430
X17305Y15680
X18180Y17180
X17180Y17305
X17180Y18555
X19180Y16430
X20430Y17180
X19805Y19305
X23305Y17555
X23930Y17180
X23305Y16430
X24930Y16430
X25930Y15805
X25930Y17055
X26680Y17180
X28305Y16430
X28930Y17055
X29930Y17180
X31430Y16430
X31930Y15805
X32930Y17180
X32180Y17305
X32555Y19305
X35055Y17555
X35680Y17180
X36930Y16430
X37680Y15930
X38180Y17180
X39305Y16430
X37680Y19180
X34555Y16430
X34805Y15805
X29430Y19305
X26305Y19305
X23305Y21805
X23180Y26555
X25680Y26305
X25930Y27180
X26180Y29180
X27180Y28930
X27805Y30180
X30180Y31680
X30680Y29930
X31680Y28180
X32805Y25930
X34430Y26305
X34430Y27555
X29430Y23305
X28555Y26180
X20055Y26680
X17055Y24180
X17055Y22180
X14680Y22930
X14555Y19805
X13930Y18680
X10680Y18805
X8305Y19180
X5805Y19180
X3680Y19305
X4180Y17180
X10305Y22055
X18180Y11555
X20180Y8180
X20680Y8180
X20680Y4555
X20055Y4555
X28930Y15680
T02
X14097Y8998
X21578Y21203
X21578Y30651
X29058Y8998
M30
