G75*
G70*
%OFA0B0*%
%FSLAX24Y24*%
%IPPOS*%
%LPD*%
%AMOC8*
5,1,8,0,0,1.08239X$1,22.5*
%
%ADD10C,0.0000*%
%ADD11C,0.1260*%
%ADD12R,0.0220X0.0500*%
%ADD13R,0.0500X0.0220*%
%ADD14R,0.0260X0.0800*%
%ADD15R,0.0433X0.0394*%
%ADD16R,0.0425X0.0413*%
%ADD17R,0.0740X0.0500*%
%ADD18R,0.0394X0.0433*%
%ADD19R,0.0394X0.0551*%
%ADD20R,0.0710X0.0630*%
%ADD21C,0.0000*%
%ADD22R,0.1000X0.2000*%
%ADD23R,0.0630X0.0551*%
%ADD24R,0.0236X0.0866*%
%ADD25R,0.0413X0.0425*%
%ADD26R,0.1417X0.1024*%
%ADD27R,0.1000X0.0500*%
%ADD28R,0.0512X0.1378*%
%ADD29C,0.0500*%
D10*
X013467Y008998D02*
X013469Y009048D01*
X013475Y009098D01*
X013485Y009147D01*
X013499Y009195D01*
X013516Y009242D01*
X013537Y009287D01*
X013562Y009331D01*
X013590Y009372D01*
X013622Y009411D01*
X013656Y009448D01*
X013693Y009482D01*
X013733Y009512D01*
X013775Y009539D01*
X013819Y009563D01*
X013865Y009584D01*
X013912Y009600D01*
X013960Y009613D01*
X014010Y009622D01*
X014059Y009627D01*
X014110Y009628D01*
X014160Y009625D01*
X014209Y009618D01*
X014258Y009607D01*
X014306Y009592D01*
X014352Y009574D01*
X014397Y009552D01*
X014440Y009526D01*
X014481Y009497D01*
X014520Y009465D01*
X014556Y009430D01*
X014588Y009392D01*
X014618Y009352D01*
X014645Y009309D01*
X014668Y009265D01*
X014687Y009219D01*
X014703Y009171D01*
X014715Y009122D01*
X014723Y009073D01*
X014727Y009023D01*
X014727Y008973D01*
X014723Y008923D01*
X014715Y008874D01*
X014703Y008825D01*
X014687Y008777D01*
X014668Y008731D01*
X014645Y008687D01*
X014618Y008644D01*
X014588Y008604D01*
X014556Y008566D01*
X014520Y008531D01*
X014481Y008499D01*
X014440Y008470D01*
X014397Y008444D01*
X014352Y008422D01*
X014306Y008404D01*
X014258Y008389D01*
X014209Y008378D01*
X014160Y008371D01*
X014110Y008368D01*
X014059Y008369D01*
X014010Y008374D01*
X013960Y008383D01*
X013912Y008396D01*
X013865Y008412D01*
X013819Y008433D01*
X013775Y008457D01*
X013733Y008484D01*
X013693Y008514D01*
X013656Y008548D01*
X013622Y008585D01*
X013590Y008624D01*
X013562Y008665D01*
X013537Y008709D01*
X013516Y008754D01*
X013499Y008801D01*
X013485Y008849D01*
X013475Y008898D01*
X013469Y008948D01*
X013467Y008998D01*
X020948Y021203D02*
X020950Y021253D01*
X020956Y021303D01*
X020966Y021352D01*
X020980Y021400D01*
X020997Y021447D01*
X021018Y021492D01*
X021043Y021536D01*
X021071Y021577D01*
X021103Y021616D01*
X021137Y021653D01*
X021174Y021687D01*
X021214Y021717D01*
X021256Y021744D01*
X021300Y021768D01*
X021346Y021789D01*
X021393Y021805D01*
X021441Y021818D01*
X021491Y021827D01*
X021540Y021832D01*
X021591Y021833D01*
X021641Y021830D01*
X021690Y021823D01*
X021739Y021812D01*
X021787Y021797D01*
X021833Y021779D01*
X021878Y021757D01*
X021921Y021731D01*
X021962Y021702D01*
X022001Y021670D01*
X022037Y021635D01*
X022069Y021597D01*
X022099Y021557D01*
X022126Y021514D01*
X022149Y021470D01*
X022168Y021424D01*
X022184Y021376D01*
X022196Y021327D01*
X022204Y021278D01*
X022208Y021228D01*
X022208Y021178D01*
X022204Y021128D01*
X022196Y021079D01*
X022184Y021030D01*
X022168Y020982D01*
X022149Y020936D01*
X022126Y020892D01*
X022099Y020849D01*
X022069Y020809D01*
X022037Y020771D01*
X022001Y020736D01*
X021962Y020704D01*
X021921Y020675D01*
X021878Y020649D01*
X021833Y020627D01*
X021787Y020609D01*
X021739Y020594D01*
X021690Y020583D01*
X021641Y020576D01*
X021591Y020573D01*
X021540Y020574D01*
X021491Y020579D01*
X021441Y020588D01*
X021393Y020601D01*
X021346Y020617D01*
X021300Y020638D01*
X021256Y020662D01*
X021214Y020689D01*
X021174Y020719D01*
X021137Y020753D01*
X021103Y020790D01*
X021071Y020829D01*
X021043Y020870D01*
X021018Y020914D01*
X020997Y020959D01*
X020980Y021006D01*
X020966Y021054D01*
X020956Y021103D01*
X020950Y021153D01*
X020948Y021203D01*
X020948Y030651D02*
X020950Y030701D01*
X020956Y030751D01*
X020966Y030800D01*
X020980Y030848D01*
X020997Y030895D01*
X021018Y030940D01*
X021043Y030984D01*
X021071Y031025D01*
X021103Y031064D01*
X021137Y031101D01*
X021174Y031135D01*
X021214Y031165D01*
X021256Y031192D01*
X021300Y031216D01*
X021346Y031237D01*
X021393Y031253D01*
X021441Y031266D01*
X021491Y031275D01*
X021540Y031280D01*
X021591Y031281D01*
X021641Y031278D01*
X021690Y031271D01*
X021739Y031260D01*
X021787Y031245D01*
X021833Y031227D01*
X021878Y031205D01*
X021921Y031179D01*
X021962Y031150D01*
X022001Y031118D01*
X022037Y031083D01*
X022069Y031045D01*
X022099Y031005D01*
X022126Y030962D01*
X022149Y030918D01*
X022168Y030872D01*
X022184Y030824D01*
X022196Y030775D01*
X022204Y030726D01*
X022208Y030676D01*
X022208Y030626D01*
X022204Y030576D01*
X022196Y030527D01*
X022184Y030478D01*
X022168Y030430D01*
X022149Y030384D01*
X022126Y030340D01*
X022099Y030297D01*
X022069Y030257D01*
X022037Y030219D01*
X022001Y030184D01*
X021962Y030152D01*
X021921Y030123D01*
X021878Y030097D01*
X021833Y030075D01*
X021787Y030057D01*
X021739Y030042D01*
X021690Y030031D01*
X021641Y030024D01*
X021591Y030021D01*
X021540Y030022D01*
X021491Y030027D01*
X021441Y030036D01*
X021393Y030049D01*
X021346Y030065D01*
X021300Y030086D01*
X021256Y030110D01*
X021214Y030137D01*
X021174Y030167D01*
X021137Y030201D01*
X021103Y030238D01*
X021071Y030277D01*
X021043Y030318D01*
X021018Y030362D01*
X020997Y030407D01*
X020980Y030454D01*
X020966Y030502D01*
X020956Y030551D01*
X020950Y030601D01*
X020948Y030651D01*
X028428Y008998D02*
X028430Y009048D01*
X028436Y009098D01*
X028446Y009147D01*
X028460Y009195D01*
X028477Y009242D01*
X028498Y009287D01*
X028523Y009331D01*
X028551Y009372D01*
X028583Y009411D01*
X028617Y009448D01*
X028654Y009482D01*
X028694Y009512D01*
X028736Y009539D01*
X028780Y009563D01*
X028826Y009584D01*
X028873Y009600D01*
X028921Y009613D01*
X028971Y009622D01*
X029020Y009627D01*
X029071Y009628D01*
X029121Y009625D01*
X029170Y009618D01*
X029219Y009607D01*
X029267Y009592D01*
X029313Y009574D01*
X029358Y009552D01*
X029401Y009526D01*
X029442Y009497D01*
X029481Y009465D01*
X029517Y009430D01*
X029549Y009392D01*
X029579Y009352D01*
X029606Y009309D01*
X029629Y009265D01*
X029648Y009219D01*
X029664Y009171D01*
X029676Y009122D01*
X029684Y009073D01*
X029688Y009023D01*
X029688Y008973D01*
X029684Y008923D01*
X029676Y008874D01*
X029664Y008825D01*
X029648Y008777D01*
X029629Y008731D01*
X029606Y008687D01*
X029579Y008644D01*
X029549Y008604D01*
X029517Y008566D01*
X029481Y008531D01*
X029442Y008499D01*
X029401Y008470D01*
X029358Y008444D01*
X029313Y008422D01*
X029267Y008404D01*
X029219Y008389D01*
X029170Y008378D01*
X029121Y008371D01*
X029071Y008368D01*
X029020Y008369D01*
X028971Y008374D01*
X028921Y008383D01*
X028873Y008396D01*
X028826Y008412D01*
X028780Y008433D01*
X028736Y008457D01*
X028694Y008484D01*
X028654Y008514D01*
X028617Y008548D01*
X028583Y008585D01*
X028551Y008624D01*
X028523Y008665D01*
X028498Y008709D01*
X028477Y008754D01*
X028460Y008801D01*
X028446Y008849D01*
X028436Y008898D01*
X028430Y008948D01*
X028428Y008998D01*
D11*
X014097Y008998D03*
X021578Y021203D03*
X021578Y030651D03*
X029058Y008998D03*
D12*
X029208Y024865D03*
X029523Y024865D03*
X029837Y024865D03*
X030152Y024865D03*
X030467Y024865D03*
X030782Y024865D03*
X028893Y024865D03*
X028578Y024865D03*
X028578Y028245D03*
X028893Y028245D03*
X029208Y028245D03*
X029523Y028245D03*
X029837Y028245D03*
X030152Y028245D03*
X030467Y028245D03*
X030782Y028245D03*
D13*
X031370Y027657D03*
X031370Y027342D03*
X031370Y027027D03*
X031370Y026712D03*
X031370Y026398D03*
X031370Y026083D03*
X031370Y025768D03*
X031370Y025453D03*
X027990Y025453D03*
X027990Y025768D03*
X027990Y026083D03*
X027990Y026398D03*
X027990Y026712D03*
X027990Y027027D03*
X027990Y027342D03*
X027990Y027657D03*
D14*
X019055Y027515D03*
X018555Y027515D03*
X018055Y027515D03*
X017555Y027515D03*
X017555Y025095D03*
X018055Y025095D03*
X018555Y025095D03*
X019055Y025095D03*
D15*
X016930Y025970D03*
X016305Y025970D03*
X016305Y026640D03*
X016930Y026640D03*
X029345Y023805D03*
X030015Y023805D03*
X030265Y029055D03*
X029595Y029055D03*
X030180Y029970D03*
X030180Y030640D03*
X035430Y028765D03*
X035430Y028095D03*
D16*
X029555Y029961D03*
X029555Y030649D03*
D17*
X019247Y031448D03*
X018047Y031448D03*
X018047Y029248D03*
X019247Y029248D03*
D18*
X019680Y026640D03*
X019680Y025970D03*
X034430Y025890D03*
X034430Y025220D03*
D19*
X035306Y018488D03*
X036054Y018488D03*
X035680Y017622D03*
X037806Y018488D03*
X038554Y018488D03*
X038180Y017622D03*
X033304Y018488D03*
X032556Y018488D03*
X032930Y017622D03*
X030304Y018488D03*
X029556Y018488D03*
X029930Y017622D03*
X027054Y018488D03*
X026306Y018488D03*
X026680Y017622D03*
X024304Y018488D03*
X023556Y018488D03*
X023930Y017622D03*
X020804Y018488D03*
X020056Y018488D03*
X020430Y017622D03*
X018554Y018488D03*
X017806Y018488D03*
X018180Y017622D03*
X015304Y018488D03*
X014556Y018488D03*
X014930Y017622D03*
X012054Y018488D03*
X011306Y018488D03*
X011680Y017622D03*
X009054Y018488D03*
X008306Y018488D03*
X008680Y017622D03*
X006679Y018488D03*
X005931Y018488D03*
X006305Y017622D03*
X004554Y018488D03*
X003806Y018488D03*
X004180Y017622D03*
D20*
X005180Y018745D03*
X005180Y019865D03*
X007305Y019865D03*
X007305Y018745D03*
X009680Y018745D03*
X009680Y019865D03*
X012680Y019865D03*
X012680Y018745D03*
X015930Y018745D03*
X015930Y019865D03*
X019180Y019865D03*
X019180Y018745D03*
X021430Y018745D03*
X021430Y019865D03*
X024930Y019865D03*
X024930Y018745D03*
X027680Y018745D03*
X027680Y019865D03*
X030930Y019865D03*
X030930Y018745D03*
X033930Y018745D03*
X033930Y019865D03*
X036680Y019865D03*
X036680Y018745D03*
X039180Y018745D03*
X039180Y019865D03*
D21*
X002680Y021203D02*
X002703Y022130D01*
X002771Y023055D01*
X002885Y023976D01*
X003043Y024890D01*
X003246Y025795D01*
X003494Y026689D01*
X003785Y027570D01*
X004119Y028435D01*
X004494Y029283D01*
X004911Y030111D01*
X005369Y030919D01*
X005865Y031702D01*
X006399Y032461D01*
X006970Y033192D01*
X007576Y033894D01*
X008215Y034566D01*
X008887Y035205D01*
X009589Y035811D01*
X010320Y036382D01*
X011079Y036916D01*
X011862Y037412D01*
X012670Y037870D01*
X013498Y038287D01*
X014346Y038662D01*
X015211Y038996D01*
X016092Y039287D01*
X016986Y039535D01*
X017891Y039738D01*
X018805Y039896D01*
X019726Y040010D01*
X020651Y040078D01*
X021578Y040101D01*
X022505Y040078D01*
X023430Y040010D01*
X024351Y039896D01*
X025265Y039738D01*
X026170Y039535D01*
X027064Y039287D01*
X027945Y038996D01*
X028810Y038662D01*
X029658Y038287D01*
X030486Y037870D01*
X031294Y037412D01*
X032077Y036916D01*
X032836Y036382D01*
X033567Y035811D01*
X034269Y035205D01*
X034941Y034566D01*
X035580Y033894D01*
X036186Y033192D01*
X036757Y032461D01*
X037291Y031702D01*
X037787Y030919D01*
X038245Y030111D01*
X038662Y029283D01*
X039037Y028435D01*
X039371Y027570D01*
X039662Y026689D01*
X039910Y025795D01*
X040113Y024890D01*
X040271Y023976D01*
X040385Y023055D01*
X040453Y022130D01*
X040476Y021203D01*
X040453Y020276D01*
X040385Y019351D01*
X040271Y018430D01*
X040113Y017516D01*
X039910Y016611D01*
X039662Y015717D01*
X039371Y014836D01*
X039037Y013971D01*
X038662Y013123D01*
X038245Y012295D01*
X037787Y011487D01*
X037291Y010704D01*
X036757Y009945D01*
X036186Y009214D01*
X035580Y008512D01*
X034941Y007840D01*
X034269Y007201D01*
X033567Y006595D01*
X032836Y006024D01*
X032077Y005490D01*
X031294Y004994D01*
X030486Y004536D01*
X029658Y004119D01*
X028810Y003744D01*
X027945Y003410D01*
X027064Y003119D01*
X026170Y002871D01*
X025265Y002668D01*
X024351Y002510D01*
X023430Y002396D01*
X022505Y002328D01*
X021578Y002305D01*
X020651Y002328D01*
X019726Y002396D01*
X018805Y002510D01*
X017891Y002668D01*
X016986Y002871D01*
X016092Y003119D01*
X015211Y003410D01*
X014346Y003744D01*
X013498Y004119D01*
X012670Y004536D01*
X011862Y004994D01*
X011079Y005490D01*
X010320Y006024D01*
X009589Y006595D01*
X008887Y007201D01*
X008215Y007840D01*
X007576Y008512D01*
X006970Y009214D01*
X006399Y009945D01*
X005865Y010704D01*
X005369Y011487D01*
X004911Y012295D01*
X004494Y013123D01*
X004119Y013971D01*
X003785Y014836D01*
X003494Y015717D01*
X003246Y016611D01*
X003043Y017516D01*
X002885Y018430D01*
X002771Y019351D01*
X002703Y020276D01*
X002680Y021203D01*
D22*
X020680Y006805D03*
X022680Y006805D03*
D23*
X022271Y009055D03*
X021089Y009055D03*
X021589Y015055D03*
X022771Y015055D03*
D24*
X022430Y013079D03*
X021930Y013079D03*
X021430Y013079D03*
X020930Y013079D03*
X020930Y011031D03*
X021430Y011031D03*
X021930Y011031D03*
X022430Y011031D03*
D25*
X022024Y009805D03*
X021336Y009805D03*
X021836Y014055D03*
X022524Y014055D03*
D26*
X011180Y020537D03*
X011180Y032073D03*
D27*
X026555Y026180D03*
X026555Y025430D03*
X028180Y028930D03*
X028180Y029555D03*
X036555Y028055D03*
D28*
X033680Y029055D03*
X032680Y029055D03*
X031680Y029055D03*
X031180Y031055D03*
X032180Y031055D03*
X033180Y031055D03*
D29*
X024430Y027305D03*
X024430Y025805D03*
X016055Y031805D03*
X023680Y013055D03*
M02*
