G75*
G70*
%OFA0B0*%
%FSLAX24Y24*%
%IPPOS*%
%LPD*%
%AMOC8*
5,1,8,0,0,1.08239X$1,22.5*
%
%ADD10C,0.0000*%
%ADD11C,0.1260*%
%ADD12C,0.0000*%
%ADD13R,0.0250X0.0500*%
%ADD14R,0.0394X0.0394*%
D10*
X013467Y008998D02*
X013469Y009048D01*
X013475Y009098D01*
X013485Y009147D01*
X013499Y009195D01*
X013516Y009242D01*
X013537Y009287D01*
X013562Y009331D01*
X013590Y009372D01*
X013622Y009411D01*
X013656Y009448D01*
X013693Y009482D01*
X013733Y009512D01*
X013775Y009539D01*
X013819Y009563D01*
X013865Y009584D01*
X013912Y009600D01*
X013960Y009613D01*
X014010Y009622D01*
X014059Y009627D01*
X014110Y009628D01*
X014160Y009625D01*
X014209Y009618D01*
X014258Y009607D01*
X014306Y009592D01*
X014352Y009574D01*
X014397Y009552D01*
X014440Y009526D01*
X014481Y009497D01*
X014520Y009465D01*
X014556Y009430D01*
X014588Y009392D01*
X014618Y009352D01*
X014645Y009309D01*
X014668Y009265D01*
X014687Y009219D01*
X014703Y009171D01*
X014715Y009122D01*
X014723Y009073D01*
X014727Y009023D01*
X014727Y008973D01*
X014723Y008923D01*
X014715Y008874D01*
X014703Y008825D01*
X014687Y008777D01*
X014668Y008731D01*
X014645Y008687D01*
X014618Y008644D01*
X014588Y008604D01*
X014556Y008566D01*
X014520Y008531D01*
X014481Y008499D01*
X014440Y008470D01*
X014397Y008444D01*
X014352Y008422D01*
X014306Y008404D01*
X014258Y008389D01*
X014209Y008378D01*
X014160Y008371D01*
X014110Y008368D01*
X014059Y008369D01*
X014010Y008374D01*
X013960Y008383D01*
X013912Y008396D01*
X013865Y008412D01*
X013819Y008433D01*
X013775Y008457D01*
X013733Y008484D01*
X013693Y008514D01*
X013656Y008548D01*
X013622Y008585D01*
X013590Y008624D01*
X013562Y008665D01*
X013537Y008709D01*
X013516Y008754D01*
X013499Y008801D01*
X013485Y008849D01*
X013475Y008898D01*
X013469Y008948D01*
X013467Y008998D01*
X020948Y021203D02*
X020950Y021253D01*
X020956Y021303D01*
X020966Y021352D01*
X020980Y021400D01*
X020997Y021447D01*
X021018Y021492D01*
X021043Y021536D01*
X021071Y021577D01*
X021103Y021616D01*
X021137Y021653D01*
X021174Y021687D01*
X021214Y021717D01*
X021256Y021744D01*
X021300Y021768D01*
X021346Y021789D01*
X021393Y021805D01*
X021441Y021818D01*
X021491Y021827D01*
X021540Y021832D01*
X021591Y021833D01*
X021641Y021830D01*
X021690Y021823D01*
X021739Y021812D01*
X021787Y021797D01*
X021833Y021779D01*
X021878Y021757D01*
X021921Y021731D01*
X021962Y021702D01*
X022001Y021670D01*
X022037Y021635D01*
X022069Y021597D01*
X022099Y021557D01*
X022126Y021514D01*
X022149Y021470D01*
X022168Y021424D01*
X022184Y021376D01*
X022196Y021327D01*
X022204Y021278D01*
X022208Y021228D01*
X022208Y021178D01*
X022204Y021128D01*
X022196Y021079D01*
X022184Y021030D01*
X022168Y020982D01*
X022149Y020936D01*
X022126Y020892D01*
X022099Y020849D01*
X022069Y020809D01*
X022037Y020771D01*
X022001Y020736D01*
X021962Y020704D01*
X021921Y020675D01*
X021878Y020649D01*
X021833Y020627D01*
X021787Y020609D01*
X021739Y020594D01*
X021690Y020583D01*
X021641Y020576D01*
X021591Y020573D01*
X021540Y020574D01*
X021491Y020579D01*
X021441Y020588D01*
X021393Y020601D01*
X021346Y020617D01*
X021300Y020638D01*
X021256Y020662D01*
X021214Y020689D01*
X021174Y020719D01*
X021137Y020753D01*
X021103Y020790D01*
X021071Y020829D01*
X021043Y020870D01*
X021018Y020914D01*
X020997Y020959D01*
X020980Y021006D01*
X020966Y021054D01*
X020956Y021103D01*
X020950Y021153D01*
X020948Y021203D01*
X020948Y030651D02*
X020950Y030701D01*
X020956Y030751D01*
X020966Y030800D01*
X020980Y030848D01*
X020997Y030895D01*
X021018Y030940D01*
X021043Y030984D01*
X021071Y031025D01*
X021103Y031064D01*
X021137Y031101D01*
X021174Y031135D01*
X021214Y031165D01*
X021256Y031192D01*
X021300Y031216D01*
X021346Y031237D01*
X021393Y031253D01*
X021441Y031266D01*
X021491Y031275D01*
X021540Y031280D01*
X021591Y031281D01*
X021641Y031278D01*
X021690Y031271D01*
X021739Y031260D01*
X021787Y031245D01*
X021833Y031227D01*
X021878Y031205D01*
X021921Y031179D01*
X021962Y031150D01*
X022001Y031118D01*
X022037Y031083D01*
X022069Y031045D01*
X022099Y031005D01*
X022126Y030962D01*
X022149Y030918D01*
X022168Y030872D01*
X022184Y030824D01*
X022196Y030775D01*
X022204Y030726D01*
X022208Y030676D01*
X022208Y030626D01*
X022204Y030576D01*
X022196Y030527D01*
X022184Y030478D01*
X022168Y030430D01*
X022149Y030384D01*
X022126Y030340D01*
X022099Y030297D01*
X022069Y030257D01*
X022037Y030219D01*
X022001Y030184D01*
X021962Y030152D01*
X021921Y030123D01*
X021878Y030097D01*
X021833Y030075D01*
X021787Y030057D01*
X021739Y030042D01*
X021690Y030031D01*
X021641Y030024D01*
X021591Y030021D01*
X021540Y030022D01*
X021491Y030027D01*
X021441Y030036D01*
X021393Y030049D01*
X021346Y030065D01*
X021300Y030086D01*
X021256Y030110D01*
X021214Y030137D01*
X021174Y030167D01*
X021137Y030201D01*
X021103Y030238D01*
X021071Y030277D01*
X021043Y030318D01*
X021018Y030362D01*
X020997Y030407D01*
X020980Y030454D01*
X020966Y030502D01*
X020956Y030551D01*
X020950Y030601D01*
X020948Y030651D01*
X028428Y008998D02*
X028430Y009048D01*
X028436Y009098D01*
X028446Y009147D01*
X028460Y009195D01*
X028477Y009242D01*
X028498Y009287D01*
X028523Y009331D01*
X028551Y009372D01*
X028583Y009411D01*
X028617Y009448D01*
X028654Y009482D01*
X028694Y009512D01*
X028736Y009539D01*
X028780Y009563D01*
X028826Y009584D01*
X028873Y009600D01*
X028921Y009613D01*
X028971Y009622D01*
X029020Y009627D01*
X029071Y009628D01*
X029121Y009625D01*
X029170Y009618D01*
X029219Y009607D01*
X029267Y009592D01*
X029313Y009574D01*
X029358Y009552D01*
X029401Y009526D01*
X029442Y009497D01*
X029481Y009465D01*
X029517Y009430D01*
X029549Y009392D01*
X029579Y009352D01*
X029606Y009309D01*
X029629Y009265D01*
X029648Y009219D01*
X029664Y009171D01*
X029676Y009122D01*
X029684Y009073D01*
X029688Y009023D01*
X029688Y008973D01*
X029684Y008923D01*
X029676Y008874D01*
X029664Y008825D01*
X029648Y008777D01*
X029629Y008731D01*
X029606Y008687D01*
X029579Y008644D01*
X029549Y008604D01*
X029517Y008566D01*
X029481Y008531D01*
X029442Y008499D01*
X029401Y008470D01*
X029358Y008444D01*
X029313Y008422D01*
X029267Y008404D01*
X029219Y008389D01*
X029170Y008378D01*
X029121Y008371D01*
X029071Y008368D01*
X029020Y008369D01*
X028971Y008374D01*
X028921Y008383D01*
X028873Y008396D01*
X028826Y008412D01*
X028780Y008433D01*
X028736Y008457D01*
X028694Y008484D01*
X028654Y008514D01*
X028617Y008548D01*
X028583Y008585D01*
X028551Y008624D01*
X028523Y008665D01*
X028498Y008709D01*
X028477Y008754D01*
X028460Y008801D01*
X028446Y008849D01*
X028436Y008898D01*
X028430Y008948D01*
X028428Y008998D01*
D11*
X029058Y008998D03*
X021578Y021203D03*
X021578Y030651D03*
X014097Y008998D03*
D12*
X002680Y021203D02*
X002703Y022130D01*
X002771Y023055D01*
X002885Y023976D01*
X003043Y024890D01*
X003246Y025795D01*
X003494Y026689D01*
X003785Y027570D01*
X004119Y028435D01*
X004494Y029283D01*
X004911Y030111D01*
X005369Y030919D01*
X005865Y031702D01*
X006399Y032461D01*
X006970Y033192D01*
X007576Y033894D01*
X008215Y034566D01*
X008887Y035205D01*
X009589Y035811D01*
X010320Y036382D01*
X011079Y036916D01*
X011862Y037412D01*
X012670Y037870D01*
X013498Y038287D01*
X014346Y038662D01*
X015211Y038996D01*
X016092Y039287D01*
X016986Y039535D01*
X017891Y039738D01*
X018805Y039896D01*
X019726Y040010D01*
X020651Y040078D01*
X021578Y040101D01*
X022505Y040078D01*
X023430Y040010D01*
X024351Y039896D01*
X025265Y039738D01*
X026170Y039535D01*
X027064Y039287D01*
X027945Y038996D01*
X028810Y038662D01*
X029658Y038287D01*
X030486Y037870D01*
X031294Y037412D01*
X032077Y036916D01*
X032836Y036382D01*
X033567Y035811D01*
X034269Y035205D01*
X034941Y034566D01*
X035580Y033894D01*
X036186Y033192D01*
X036757Y032461D01*
X037291Y031702D01*
X037787Y030919D01*
X038245Y030111D01*
X038662Y029283D01*
X039037Y028435D01*
X039371Y027570D01*
X039662Y026689D01*
X039910Y025795D01*
X040113Y024890D01*
X040271Y023976D01*
X040385Y023055D01*
X040453Y022130D01*
X040476Y021203D01*
X040453Y020276D01*
X040385Y019351D01*
X040271Y018430D01*
X040113Y017516D01*
X039910Y016611D01*
X039662Y015717D01*
X039371Y014836D01*
X039037Y013971D01*
X038662Y013123D01*
X038245Y012295D01*
X037787Y011487D01*
X037291Y010704D01*
X036757Y009945D01*
X036186Y009214D01*
X035580Y008512D01*
X034941Y007840D01*
X034269Y007201D01*
X033567Y006595D01*
X032836Y006024D01*
X032077Y005490D01*
X031294Y004994D01*
X030486Y004536D01*
X029658Y004119D01*
X028810Y003744D01*
X027945Y003410D01*
X027064Y003119D01*
X026170Y002871D01*
X025265Y002668D01*
X024351Y002510D01*
X023430Y002396D01*
X022505Y002328D01*
X021578Y002305D01*
X020651Y002328D01*
X019726Y002396D01*
X018805Y002510D01*
X017891Y002668D01*
X016986Y002871D01*
X016092Y003119D01*
X015211Y003410D01*
X014346Y003744D01*
X013498Y004119D01*
X012670Y004536D01*
X011862Y004994D01*
X011079Y005490D01*
X010320Y006024D01*
X009589Y006595D01*
X008887Y007201D01*
X008215Y007840D01*
X007576Y008512D01*
X006970Y009214D01*
X006399Y009945D01*
X005865Y010704D01*
X005369Y011487D01*
X004911Y012295D01*
X004494Y013123D01*
X004119Y013971D01*
X003785Y014836D01*
X003494Y015717D01*
X003246Y016611D01*
X003043Y017516D01*
X002885Y018430D01*
X002771Y019351D01*
X002703Y020276D01*
X002680Y021203D01*
D13*
X003861Y016872D03*
X005042Y016872D03*
X006223Y016872D03*
X007404Y016872D03*
X008586Y016872D03*
X010160Y016872D03*
X011735Y016872D03*
X013310Y016872D03*
X014885Y016872D03*
X016460Y016872D03*
X018034Y016872D03*
X019215Y016872D03*
X020397Y016872D03*
X022759Y016872D03*
X023940Y016872D03*
X025121Y016872D03*
X026696Y016872D03*
X028271Y016872D03*
X029845Y016872D03*
X031420Y016872D03*
X032995Y016872D03*
X034570Y016872D03*
X035751Y016872D03*
X036932Y016872D03*
X038113Y016872D03*
X039294Y016872D03*
D14*
X008861Y007856D03*
X009570Y007856D03*
X008546Y008998D03*
X007837Y008998D03*
X009806Y009392D03*
X010515Y009392D03*
X012168Y009588D03*
X012877Y009588D03*
X013940Y011321D03*
X014649Y011321D03*
X014924Y009785D03*
X015633Y009785D03*
X016971Y009903D03*
X017680Y009903D03*
X018861Y010573D03*
X019570Y010573D03*
X019294Y009037D03*
X020003Y009037D03*
X021223Y008211D03*
X021932Y008211D03*
X023152Y009037D03*
X023861Y009037D03*
X024373Y007817D03*
X025082Y007817D03*
X026578Y007817D03*
X027286Y007817D03*
X028349Y007226D03*
X029058Y007226D03*
X029255Y005533D03*
X028546Y005533D03*
X028231Y004667D03*
X027523Y004667D03*
X026696Y005061D03*
X025987Y005061D03*
X025672Y003801D03*
X026381Y003801D03*
X024688Y003880D03*
X023979Y003880D03*
X024058Y003329D03*
X023349Y003329D03*
X021932Y002699D03*
X021223Y002699D03*
X019806Y003329D03*
X019097Y003329D03*
X019176Y003880D03*
X018467Y003880D03*
X017483Y003801D03*
X016774Y003801D03*
X016460Y005061D03*
X017168Y005061D03*
X018861Y006085D03*
X019570Y006085D03*
X021223Y006636D03*
X021932Y006636D03*
X023586Y006085D03*
X024294Y006085D03*
X027523Y009785D03*
X028231Y009785D03*
X028507Y011321D03*
X029215Y011321D03*
X030278Y009588D03*
X030987Y009588D03*
X032641Y009392D03*
X033349Y009392D03*
X034609Y008998D03*
X035318Y008998D03*
X034294Y007856D03*
X033586Y007856D03*
X031499Y007423D03*
X030790Y007423D03*
X033428Y010966D03*
X034137Y010966D03*
X034097Y011675D03*
X034806Y011675D03*
X036184Y010848D03*
X036893Y010848D03*
X037995Y014195D03*
X038704Y014195D03*
X036263Y014903D03*
X035554Y014903D03*
X033546Y014903D03*
X032837Y014903D03*
X030515Y014707D03*
X029806Y014707D03*
X027365Y014116D03*
X026656Y014116D03*
X024845Y015455D03*
X024137Y015455D03*
X021932Y016478D03*
X021223Y016478D03*
X021223Y018053D03*
X021932Y018053D03*
X021932Y019628D03*
X021223Y019628D03*
X018822Y018053D03*
X018113Y018053D03*
X015790Y018053D03*
X015082Y018053D03*
X012680Y018053D03*
X011971Y018053D03*
X009609Y018053D03*
X008900Y018053D03*
X006814Y018053D03*
X006105Y018053D03*
X004097Y018092D03*
X003389Y018092D03*
X003113Y021203D03*
X003822Y021203D03*
X003822Y021990D03*
X003113Y021990D03*
X003389Y024313D03*
X004097Y024313D03*
X006105Y024352D03*
X006814Y024352D03*
X008900Y024352D03*
X009609Y024352D03*
X009334Y021990D03*
X008625Y021990D03*
X008625Y021203D03*
X009334Y021203D03*
X011774Y021203D03*
X012483Y021203D03*
X012483Y021990D03*
X011774Y021990D03*
X011971Y024352D03*
X012680Y024352D03*
X014924Y021990D03*
X015633Y021990D03*
X015633Y021203D03*
X014924Y021203D03*
X015082Y024352D03*
X015790Y024352D03*
X018113Y024352D03*
X018822Y024352D03*
X018782Y021990D03*
X018074Y021990D03*
X018074Y021203D03*
X018782Y021203D03*
X021223Y022777D03*
X021932Y022777D03*
X024373Y021990D03*
X025082Y021990D03*
X025082Y021203D03*
X024373Y021203D03*
X024334Y024352D03*
X025042Y024352D03*
X027365Y024352D03*
X028074Y024352D03*
X028231Y021990D03*
X027523Y021990D03*
X027523Y021203D03*
X028231Y021203D03*
X030672Y021203D03*
X031381Y021203D03*
X031381Y021990D03*
X030672Y021990D03*
X030475Y024352D03*
X031184Y024352D03*
X033546Y024352D03*
X034255Y024352D03*
X036341Y024352D03*
X037050Y024352D03*
X039058Y024313D03*
X039767Y024313D03*
X040042Y021990D03*
X039334Y021990D03*
X039334Y021203D03*
X040042Y021203D03*
X037286Y021203D03*
X036578Y021203D03*
X036578Y021990D03*
X037286Y021990D03*
X034530Y021990D03*
X033822Y021990D03*
X033822Y021203D03*
X034530Y021203D03*
X034255Y018053D03*
X033546Y018053D03*
X031184Y018053D03*
X030475Y018053D03*
X028074Y018053D03*
X027365Y018053D03*
X025042Y018053D03*
X024334Y018053D03*
X021932Y013329D03*
X021223Y013329D03*
X019452Y012344D03*
X018743Y012344D03*
X016499Y014116D03*
X015790Y014116D03*
X013349Y014707D03*
X012641Y014707D03*
X010318Y014903D03*
X009609Y014903D03*
X007601Y014903D03*
X006893Y014903D03*
X005160Y014195D03*
X004452Y014195D03*
X006263Y010848D03*
X006971Y010848D03*
X008349Y011675D03*
X009058Y011675D03*
X009019Y010966D03*
X009727Y010966D03*
X010987Y011360D03*
X011696Y011360D03*
X011381Y012148D03*
X010672Y012148D03*
X011656Y007423D03*
X012365Y007423D03*
X014097Y007226D03*
X014806Y007226D03*
X015869Y007817D03*
X016578Y007817D03*
X018074Y007817D03*
X018782Y007817D03*
X021223Y010179D03*
X021932Y010179D03*
X023586Y010573D03*
X024294Y010573D03*
X025475Y009903D03*
X026184Y009903D03*
X024412Y012344D03*
X023704Y012344D03*
X019019Y015455D03*
X018310Y015455D03*
X014609Y005533D03*
X013900Y005533D03*
X014924Y004667D03*
X015633Y004667D03*
X031460Y011360D03*
X032168Y011360D03*
X032483Y012148D03*
X031774Y012148D03*
X036341Y018053D03*
X037050Y018053D03*
X039058Y018092D03*
X039767Y018092D03*
X036263Y027502D03*
X035554Y027502D03*
X033546Y027502D03*
X032837Y027502D03*
X030515Y027699D03*
X029806Y027699D03*
X027365Y028289D03*
X026656Y028289D03*
X024845Y026951D03*
X024137Y026951D03*
X021932Y027502D03*
X021223Y027502D03*
X021223Y025927D03*
X021932Y025927D03*
X019019Y026951D03*
X018310Y026951D03*
X016499Y028289D03*
X015790Y028289D03*
X013349Y027699D03*
X012641Y027699D03*
X010318Y027502D03*
X009609Y027502D03*
X007601Y027502D03*
X006893Y027502D03*
X005160Y028211D03*
X004452Y028211D03*
X006263Y031557D03*
X006971Y031557D03*
X008349Y030730D03*
X009058Y030730D03*
X009019Y031439D03*
X009727Y031439D03*
X010987Y031045D03*
X011696Y031045D03*
X011381Y030258D03*
X010672Y030258D03*
X010515Y033014D03*
X009806Y033014D03*
X008546Y033407D03*
X007837Y033407D03*
X008861Y034549D03*
X009570Y034549D03*
X011656Y034982D03*
X012365Y034982D03*
X014097Y035179D03*
X014806Y035179D03*
X015869Y034588D03*
X016578Y034588D03*
X018074Y034588D03*
X018782Y034588D03*
X019294Y033368D03*
X020003Y033368D03*
X019570Y031833D03*
X018861Y031833D03*
X017680Y032502D03*
X016971Y032502D03*
X015633Y032620D03*
X014924Y032620D03*
X014649Y031085D03*
X013940Y031085D03*
X012877Y032817D03*
X012168Y032817D03*
X013900Y036872D03*
X014609Y036872D03*
X014924Y037738D03*
X015633Y037738D03*
X016460Y037344D03*
X017168Y037344D03*
X017483Y038604D03*
X016774Y038604D03*
X018467Y038525D03*
X019176Y038525D03*
X019097Y039077D03*
X019806Y039077D03*
X021223Y039707D03*
X021932Y039707D03*
X023349Y039077D03*
X024058Y039077D03*
X023979Y038525D03*
X024688Y038525D03*
X025672Y038604D03*
X026381Y038604D03*
X026696Y037344D03*
X025987Y037344D03*
X027523Y037738D03*
X028231Y037738D03*
X028546Y036872D03*
X029255Y036872D03*
X029058Y035179D03*
X028349Y035179D03*
X027286Y034588D03*
X026578Y034588D03*
X025082Y034588D03*
X024373Y034588D03*
X023861Y033368D03*
X023152Y033368D03*
X023586Y031833D03*
X024294Y031833D03*
X025475Y032502D03*
X026184Y032502D03*
X027523Y032620D03*
X028231Y032620D03*
X028507Y031085D03*
X029215Y031085D03*
X030278Y032817D03*
X030987Y032817D03*
X032641Y033014D03*
X033349Y033014D03*
X034609Y033407D03*
X035318Y033407D03*
X034294Y034549D03*
X033586Y034549D03*
X031499Y034982D03*
X030790Y034982D03*
X033428Y031439D03*
X034137Y031439D03*
X034097Y030730D03*
X034806Y030730D03*
X036184Y031557D03*
X036893Y031557D03*
X037995Y028211D03*
X038704Y028211D03*
X032483Y030258D03*
X031774Y030258D03*
X031460Y031045D03*
X032168Y031045D03*
X024412Y030061D03*
X023704Y030061D03*
X021932Y029077D03*
X021223Y029077D03*
X019452Y030061D03*
X018743Y030061D03*
X021223Y032226D03*
X021932Y032226D03*
X021932Y035770D03*
X021223Y035770D03*
X019570Y036321D03*
X018861Y036321D03*
X021223Y037738D03*
X021932Y037738D03*
X023586Y036321D03*
X024294Y036321D03*
X006578Y021990D03*
X005869Y021990D03*
X005869Y021203D03*
X006578Y021203D03*
M02*
