G75*
G70*
%OFA0B0*%
%FSLAX24Y24*%
%IPPOS*%
%LPD*%
%AMOC8*
5,1,8,0,0,1.08239X$1,22.5*
%
%ADD10C,0.0000*%
%ADD11C,0.0060*%
%ADD12C,0.0030*%
%ADD13C,0.0020*%
%ADD14C,0.0050*%
%ADD15C,0.0000*%
%ADD16C,0.0100*%
%ADD17C,0.0080*%
D10*
X013467Y008998D02*
X013469Y009048D01*
X013475Y009098D01*
X013485Y009147D01*
X013499Y009195D01*
X013516Y009242D01*
X013537Y009287D01*
X013562Y009331D01*
X013590Y009372D01*
X013622Y009411D01*
X013656Y009448D01*
X013693Y009482D01*
X013733Y009512D01*
X013775Y009539D01*
X013819Y009563D01*
X013865Y009584D01*
X013912Y009600D01*
X013960Y009613D01*
X014010Y009622D01*
X014059Y009627D01*
X014110Y009628D01*
X014160Y009625D01*
X014209Y009618D01*
X014258Y009607D01*
X014306Y009592D01*
X014352Y009574D01*
X014397Y009552D01*
X014440Y009526D01*
X014481Y009497D01*
X014520Y009465D01*
X014556Y009430D01*
X014588Y009392D01*
X014618Y009352D01*
X014645Y009309D01*
X014668Y009265D01*
X014687Y009219D01*
X014703Y009171D01*
X014715Y009122D01*
X014723Y009073D01*
X014727Y009023D01*
X014727Y008973D01*
X014723Y008923D01*
X014715Y008874D01*
X014703Y008825D01*
X014687Y008777D01*
X014668Y008731D01*
X014645Y008687D01*
X014618Y008644D01*
X014588Y008604D01*
X014556Y008566D01*
X014520Y008531D01*
X014481Y008499D01*
X014440Y008470D01*
X014397Y008444D01*
X014352Y008422D01*
X014306Y008404D01*
X014258Y008389D01*
X014209Y008378D01*
X014160Y008371D01*
X014110Y008368D01*
X014059Y008369D01*
X014010Y008374D01*
X013960Y008383D01*
X013912Y008396D01*
X013865Y008412D01*
X013819Y008433D01*
X013775Y008457D01*
X013733Y008484D01*
X013693Y008514D01*
X013656Y008548D01*
X013622Y008585D01*
X013590Y008624D01*
X013562Y008665D01*
X013537Y008709D01*
X013516Y008754D01*
X013499Y008801D01*
X013485Y008849D01*
X013475Y008898D01*
X013469Y008948D01*
X013467Y008998D01*
X020948Y021203D02*
X020950Y021253D01*
X020956Y021303D01*
X020966Y021352D01*
X020980Y021400D01*
X020997Y021447D01*
X021018Y021492D01*
X021043Y021536D01*
X021071Y021577D01*
X021103Y021616D01*
X021137Y021653D01*
X021174Y021687D01*
X021214Y021717D01*
X021256Y021744D01*
X021300Y021768D01*
X021346Y021789D01*
X021393Y021805D01*
X021441Y021818D01*
X021491Y021827D01*
X021540Y021832D01*
X021591Y021833D01*
X021641Y021830D01*
X021690Y021823D01*
X021739Y021812D01*
X021787Y021797D01*
X021833Y021779D01*
X021878Y021757D01*
X021921Y021731D01*
X021962Y021702D01*
X022001Y021670D01*
X022037Y021635D01*
X022069Y021597D01*
X022099Y021557D01*
X022126Y021514D01*
X022149Y021470D01*
X022168Y021424D01*
X022184Y021376D01*
X022196Y021327D01*
X022204Y021278D01*
X022208Y021228D01*
X022208Y021178D01*
X022204Y021128D01*
X022196Y021079D01*
X022184Y021030D01*
X022168Y020982D01*
X022149Y020936D01*
X022126Y020892D01*
X022099Y020849D01*
X022069Y020809D01*
X022037Y020771D01*
X022001Y020736D01*
X021962Y020704D01*
X021921Y020675D01*
X021878Y020649D01*
X021833Y020627D01*
X021787Y020609D01*
X021739Y020594D01*
X021690Y020583D01*
X021641Y020576D01*
X021591Y020573D01*
X021540Y020574D01*
X021491Y020579D01*
X021441Y020588D01*
X021393Y020601D01*
X021346Y020617D01*
X021300Y020638D01*
X021256Y020662D01*
X021214Y020689D01*
X021174Y020719D01*
X021137Y020753D01*
X021103Y020790D01*
X021071Y020829D01*
X021043Y020870D01*
X021018Y020914D01*
X020997Y020959D01*
X020980Y021006D01*
X020966Y021054D01*
X020956Y021103D01*
X020950Y021153D01*
X020948Y021203D01*
X020948Y030651D02*
X020950Y030701D01*
X020956Y030751D01*
X020966Y030800D01*
X020980Y030848D01*
X020997Y030895D01*
X021018Y030940D01*
X021043Y030984D01*
X021071Y031025D01*
X021103Y031064D01*
X021137Y031101D01*
X021174Y031135D01*
X021214Y031165D01*
X021256Y031192D01*
X021300Y031216D01*
X021346Y031237D01*
X021393Y031253D01*
X021441Y031266D01*
X021491Y031275D01*
X021540Y031280D01*
X021591Y031281D01*
X021641Y031278D01*
X021690Y031271D01*
X021739Y031260D01*
X021787Y031245D01*
X021833Y031227D01*
X021878Y031205D01*
X021921Y031179D01*
X021962Y031150D01*
X022001Y031118D01*
X022037Y031083D01*
X022069Y031045D01*
X022099Y031005D01*
X022126Y030962D01*
X022149Y030918D01*
X022168Y030872D01*
X022184Y030824D01*
X022196Y030775D01*
X022204Y030726D01*
X022208Y030676D01*
X022208Y030626D01*
X022204Y030576D01*
X022196Y030527D01*
X022184Y030478D01*
X022168Y030430D01*
X022149Y030384D01*
X022126Y030340D01*
X022099Y030297D01*
X022069Y030257D01*
X022037Y030219D01*
X022001Y030184D01*
X021962Y030152D01*
X021921Y030123D01*
X021878Y030097D01*
X021833Y030075D01*
X021787Y030057D01*
X021739Y030042D01*
X021690Y030031D01*
X021641Y030024D01*
X021591Y030021D01*
X021540Y030022D01*
X021491Y030027D01*
X021441Y030036D01*
X021393Y030049D01*
X021346Y030065D01*
X021300Y030086D01*
X021256Y030110D01*
X021214Y030137D01*
X021174Y030167D01*
X021137Y030201D01*
X021103Y030238D01*
X021071Y030277D01*
X021043Y030318D01*
X021018Y030362D01*
X020997Y030407D01*
X020980Y030454D01*
X020966Y030502D01*
X020956Y030551D01*
X020950Y030601D01*
X020948Y030651D01*
X028428Y008998D02*
X028430Y009048D01*
X028436Y009098D01*
X028446Y009147D01*
X028460Y009195D01*
X028477Y009242D01*
X028498Y009287D01*
X028523Y009331D01*
X028551Y009372D01*
X028583Y009411D01*
X028617Y009448D01*
X028654Y009482D01*
X028694Y009512D01*
X028736Y009539D01*
X028780Y009563D01*
X028826Y009584D01*
X028873Y009600D01*
X028921Y009613D01*
X028971Y009622D01*
X029020Y009627D01*
X029071Y009628D01*
X029121Y009625D01*
X029170Y009618D01*
X029219Y009607D01*
X029267Y009592D01*
X029313Y009574D01*
X029358Y009552D01*
X029401Y009526D01*
X029442Y009497D01*
X029481Y009465D01*
X029517Y009430D01*
X029549Y009392D01*
X029579Y009352D01*
X029606Y009309D01*
X029629Y009265D01*
X029648Y009219D01*
X029664Y009171D01*
X029676Y009122D01*
X029684Y009073D01*
X029688Y009023D01*
X029688Y008973D01*
X029684Y008923D01*
X029676Y008874D01*
X029664Y008825D01*
X029648Y008777D01*
X029629Y008731D01*
X029606Y008687D01*
X029579Y008644D01*
X029549Y008604D01*
X029517Y008566D01*
X029481Y008531D01*
X029442Y008499D01*
X029401Y008470D01*
X029358Y008444D01*
X029313Y008422D01*
X029267Y008404D01*
X029219Y008389D01*
X029170Y008378D01*
X029121Y008371D01*
X029071Y008368D01*
X029020Y008369D01*
X028971Y008374D01*
X028921Y008383D01*
X028873Y008396D01*
X028826Y008412D01*
X028780Y008433D01*
X028736Y008457D01*
X028694Y008484D01*
X028654Y008514D01*
X028617Y008548D01*
X028583Y008585D01*
X028551Y008624D01*
X028523Y008665D01*
X028498Y008709D01*
X028477Y008754D01*
X028460Y008801D01*
X028446Y008849D01*
X028436Y008898D01*
X028430Y008948D01*
X028428Y008998D01*
D11*
X024692Y012860D02*
X024839Y013007D01*
X024839Y013300D01*
X024545Y013300D02*
X024545Y013007D01*
X024692Y012860D01*
X024379Y012933D02*
X024305Y012860D01*
X024158Y012860D01*
X024085Y012933D01*
X024085Y013080D02*
X024232Y013154D01*
X024305Y013154D01*
X024379Y013080D01*
X024379Y012933D01*
X024085Y013080D02*
X024085Y013300D01*
X024379Y013300D01*
X023200Y012595D02*
X022760Y012595D01*
X022980Y012375D01*
X022980Y012668D01*
X023127Y012208D02*
X023200Y012134D01*
X023200Y011988D01*
X023127Y011914D01*
X022833Y011914D01*
X022760Y011988D01*
X022760Y012134D01*
X022833Y012208D01*
X022760Y011754D02*
X022760Y011607D01*
X022760Y011681D02*
X023200Y011681D01*
X023200Y011754D02*
X023200Y011607D01*
X023686Y016335D02*
X023686Y016775D01*
X023539Y016775D02*
X023833Y016775D01*
X024000Y016555D02*
X024220Y016555D01*
X024293Y016482D01*
X024293Y016408D01*
X024220Y016335D01*
X024073Y016335D01*
X024000Y016408D01*
X024000Y016555D01*
X024146Y016702D01*
X024293Y016775D01*
X026289Y016775D02*
X026583Y016775D01*
X026436Y016775D02*
X026436Y016335D01*
X026750Y016408D02*
X026823Y016335D01*
X026970Y016335D01*
X027043Y016408D01*
X027043Y016555D01*
X026970Y016629D01*
X026896Y016629D01*
X026750Y016555D01*
X026750Y016775D01*
X027043Y016775D01*
X027025Y019335D02*
X026585Y019335D01*
X026585Y019555D01*
X026658Y019629D01*
X026805Y019629D01*
X026878Y019555D01*
X026878Y019335D01*
X026878Y019482D02*
X027025Y019629D01*
X026952Y019795D02*
X026805Y019795D01*
X026805Y020016D01*
X026878Y020089D01*
X026952Y020089D01*
X027025Y020016D01*
X027025Y019869D01*
X026952Y019795D01*
X026805Y019795D02*
X026658Y019942D01*
X026585Y020089D01*
X024400Y019670D02*
X024327Y019670D01*
X024033Y019964D01*
X023960Y019964D01*
X023960Y019670D01*
X024033Y019504D02*
X024180Y019504D01*
X024253Y019430D01*
X024253Y019210D01*
X024253Y019357D02*
X024400Y019504D01*
X024400Y019210D02*
X023960Y019210D01*
X023960Y019430D01*
X024033Y019504D01*
X020900Y019629D02*
X020753Y019482D01*
X020753Y019555D02*
X020753Y019335D01*
X020900Y019335D02*
X020460Y019335D01*
X020460Y019555D01*
X020533Y019629D01*
X020680Y019629D01*
X020753Y019555D01*
X020753Y019795D02*
X020680Y019869D01*
X020680Y020016D01*
X020753Y020089D01*
X020827Y020089D01*
X020900Y020016D01*
X020900Y019869D01*
X020827Y019795D01*
X020753Y019795D01*
X020680Y019869D02*
X020606Y019795D01*
X020533Y019795D01*
X020460Y019869D01*
X020460Y020016D01*
X020533Y020089D01*
X020606Y020089D01*
X020680Y020016D01*
X018400Y020016D02*
X018327Y020089D01*
X018033Y020089D01*
X017960Y020016D01*
X017960Y019869D01*
X018033Y019795D01*
X018106Y019795D01*
X018180Y019869D01*
X018180Y020089D01*
X018400Y020016D02*
X018400Y019869D01*
X018327Y019795D01*
X018400Y019629D02*
X018253Y019482D01*
X018253Y019555D02*
X018253Y019335D01*
X018400Y019335D02*
X017960Y019335D01*
X017960Y019555D01*
X018033Y019629D01*
X018180Y019629D01*
X018253Y019555D01*
X018323Y016775D02*
X018470Y016775D01*
X018543Y016702D01*
X018543Y016629D01*
X018470Y016555D01*
X018323Y016555D01*
X018250Y016629D01*
X018250Y016702D01*
X018323Y016775D01*
X018323Y016555D02*
X018250Y016482D01*
X018250Y016408D01*
X018323Y016335D01*
X018470Y016335D01*
X018543Y016408D01*
X018543Y016482D01*
X018470Y016555D01*
X018083Y016775D02*
X017789Y016775D01*
X017936Y016775D02*
X017936Y016335D01*
X020039Y016775D02*
X020333Y016775D01*
X020186Y016775D02*
X020186Y016335D01*
X020500Y016335D02*
X020500Y016408D01*
X020793Y016702D01*
X020793Y016775D01*
X020500Y016775D01*
X015293Y016702D02*
X015220Y016775D01*
X015073Y016775D01*
X015000Y016702D01*
X015000Y016629D01*
X015073Y016555D01*
X015293Y016555D01*
X015293Y016408D02*
X015293Y016702D01*
X015293Y016408D02*
X015220Y016335D01*
X015073Y016335D01*
X015000Y016408D01*
X014686Y016335D02*
X014686Y016775D01*
X014539Y016775D02*
X014833Y016775D01*
X014835Y019335D02*
X014835Y019555D01*
X014908Y019629D01*
X015055Y019629D01*
X015128Y019555D01*
X015128Y019335D01*
X015128Y019482D02*
X015275Y019629D01*
X015275Y019795D02*
X015275Y020089D01*
X015275Y019942D02*
X014835Y019942D01*
X014981Y019795D01*
X014908Y020256D02*
X014835Y020329D01*
X014835Y020476D01*
X014908Y020549D01*
X015202Y020256D01*
X015275Y020329D01*
X015275Y020476D01*
X015202Y020549D01*
X014908Y020549D01*
X014908Y020256D02*
X015202Y020256D01*
X015275Y019335D02*
X014835Y019335D01*
X011918Y019430D02*
X011625Y019430D01*
X011845Y019650D01*
X011845Y019210D01*
X011458Y019210D02*
X011164Y019210D01*
X011311Y019210D02*
X011311Y019650D01*
X011164Y019504D01*
X010997Y019577D02*
X010997Y019430D01*
X010924Y019357D01*
X010704Y019357D01*
X010851Y019357D02*
X010997Y019210D01*
X010704Y019210D02*
X010704Y019650D01*
X010924Y019650D01*
X010997Y019577D01*
X009025Y019629D02*
X008878Y019482D01*
X008878Y019555D02*
X008878Y019335D01*
X009025Y019335D02*
X008585Y019335D01*
X008585Y019555D01*
X008658Y019629D01*
X008805Y019629D01*
X008878Y019555D01*
X008731Y019795D02*
X008585Y019942D01*
X009025Y019942D01*
X009025Y019795D02*
X009025Y020089D01*
X008952Y020256D02*
X009025Y020329D01*
X009025Y020476D01*
X008952Y020549D01*
X008805Y020549D01*
X008731Y020476D01*
X008731Y020403D01*
X008805Y020256D01*
X008585Y020256D01*
X008585Y020549D01*
X006650Y020476D02*
X006577Y020549D01*
X006503Y020549D01*
X006430Y020476D01*
X006430Y020256D01*
X006577Y020256D01*
X006650Y020329D01*
X006650Y020476D01*
X006430Y020256D02*
X006283Y020403D01*
X006210Y020549D01*
X006210Y019942D02*
X006650Y019942D01*
X006650Y019795D02*
X006650Y020089D01*
X006356Y019795D02*
X006210Y019942D01*
X006283Y019629D02*
X006430Y019629D01*
X006503Y019555D01*
X006503Y019335D01*
X006503Y019482D02*
X006650Y019629D01*
X006650Y019335D02*
X006210Y019335D01*
X006210Y019555D01*
X006283Y019629D01*
X004525Y019629D02*
X004378Y019482D01*
X004378Y019555D02*
X004378Y019335D01*
X004525Y019335D02*
X004085Y019335D01*
X004085Y019555D01*
X004158Y019629D01*
X004305Y019629D01*
X004378Y019555D01*
X004231Y019795D02*
X004085Y019942D01*
X004525Y019942D01*
X004525Y019795D02*
X004525Y020089D01*
X004525Y020256D02*
X004452Y020256D01*
X004158Y020549D01*
X004085Y020549D01*
X004085Y020256D01*
X004186Y016775D02*
X004186Y016335D01*
X004039Y016335D02*
X004333Y016335D01*
X004500Y016408D02*
X004573Y016335D01*
X004720Y016335D01*
X004793Y016408D01*
X004793Y016482D01*
X004720Y016555D01*
X004646Y016555D01*
X004720Y016555D02*
X004793Y016629D01*
X004793Y016702D01*
X004720Y016775D01*
X004573Y016775D01*
X004500Y016702D01*
X004186Y016775D02*
X004039Y016629D01*
X003872Y016775D02*
X003579Y016775D01*
X003726Y016775D02*
X003726Y016335D01*
X005579Y016775D02*
X005872Y016775D01*
X005726Y016775D02*
X005726Y016335D01*
X006039Y016335D02*
X006333Y016335D01*
X006186Y016335D02*
X006186Y016775D01*
X006039Y016629D01*
X006500Y016702D02*
X006573Y016775D01*
X006720Y016775D01*
X006793Y016702D01*
X006793Y016629D01*
X006500Y016335D01*
X006793Y016335D01*
X008079Y016775D02*
X008372Y016775D01*
X008226Y016775D02*
X008226Y016335D01*
X008539Y016335D02*
X008833Y016335D01*
X008686Y016335D02*
X008686Y016775D01*
X008539Y016629D01*
X009000Y016629D02*
X009146Y016775D01*
X009146Y016335D01*
X009000Y016335D02*
X009293Y016335D01*
X011079Y016900D02*
X011372Y016900D01*
X011226Y016900D02*
X011226Y016460D01*
X011539Y016460D02*
X011833Y016460D01*
X011686Y016460D02*
X011686Y016900D01*
X011539Y016754D01*
X012000Y016827D02*
X012073Y016900D01*
X012220Y016900D01*
X012293Y016827D01*
X012000Y016533D01*
X012073Y016460D01*
X012220Y016460D01*
X012293Y016533D01*
X012293Y016827D01*
X012000Y016827D02*
X012000Y016533D01*
X009575Y024366D02*
X009135Y024366D01*
X009135Y024587D01*
X009208Y024660D01*
X009282Y024660D01*
X009355Y024587D01*
X009355Y024366D01*
X009575Y024366D02*
X009575Y024587D01*
X009502Y024660D01*
X009428Y024660D01*
X009355Y024587D01*
X009282Y024827D02*
X009135Y024974D01*
X009575Y024974D01*
X009575Y025120D02*
X009575Y024827D01*
X016085Y024835D02*
X016085Y025055D01*
X016158Y025129D01*
X016305Y025129D01*
X016378Y025055D01*
X016378Y024835D01*
X016378Y024982D02*
X016525Y025129D01*
X016452Y025295D02*
X016525Y025369D01*
X016525Y025516D01*
X016452Y025589D01*
X016378Y025589D01*
X016305Y025516D01*
X016305Y025442D01*
X016305Y025516D02*
X016231Y025589D01*
X016158Y025589D01*
X016085Y025516D01*
X016085Y025369D01*
X016158Y025295D01*
X016085Y024835D02*
X016525Y024835D01*
X016710Y024835D02*
X016710Y025055D01*
X016783Y025129D01*
X016930Y025129D01*
X017003Y025055D01*
X017003Y024835D01*
X017003Y024982D02*
X017150Y025129D01*
X017150Y025295D02*
X016856Y025589D01*
X016783Y025589D01*
X016710Y025516D01*
X016710Y025369D01*
X016783Y025295D01*
X017150Y025295D02*
X017150Y025589D01*
X017305Y025685D02*
X017305Y026925D01*
X017307Y026948D01*
X017312Y026971D01*
X017321Y026993D01*
X017334Y027013D01*
X017349Y027031D01*
X017367Y027046D01*
X017387Y027059D01*
X017409Y027068D01*
X017432Y027073D01*
X017455Y027075D01*
X019155Y027075D01*
X019178Y027073D01*
X019201Y027068D01*
X019223Y027059D01*
X019243Y027046D01*
X019261Y027031D01*
X019276Y027013D01*
X019289Y026993D01*
X019298Y026971D01*
X019303Y026948D01*
X019305Y026925D01*
X019305Y025685D01*
X019303Y025662D01*
X019298Y025639D01*
X019289Y025617D01*
X019276Y025597D01*
X019261Y025579D01*
X019243Y025564D01*
X019223Y025551D01*
X019201Y025542D01*
X019178Y025537D01*
X019155Y025535D01*
X017455Y025535D01*
X017432Y025537D01*
X017409Y025542D01*
X017387Y025551D01*
X017367Y025564D01*
X017349Y025579D01*
X017334Y025597D01*
X017321Y025617D01*
X017312Y025639D01*
X017307Y025662D01*
X017305Y025685D01*
X017150Y024835D02*
X016710Y024835D01*
X019305Y026105D02*
X019278Y026107D01*
X019251Y026112D01*
X019225Y026122D01*
X019201Y026134D01*
X019179Y026150D01*
X019159Y026168D01*
X019142Y026190D01*
X019127Y026213D01*
X019117Y026238D01*
X019109Y026264D01*
X019105Y026291D01*
X019105Y026319D01*
X019109Y026346D01*
X019117Y026372D01*
X019127Y026397D01*
X019142Y026420D01*
X019159Y026442D01*
X019179Y026460D01*
X019201Y026476D01*
X019225Y026488D01*
X019251Y026498D01*
X019278Y026503D01*
X019305Y026505D01*
X019533Y027164D02*
X019827Y027164D01*
X019900Y027238D01*
X019900Y027384D01*
X019827Y027458D01*
X019680Y027625D02*
X019680Y027918D01*
X019900Y027845D02*
X019460Y027845D01*
X019680Y027625D01*
X019533Y027458D02*
X019460Y027384D01*
X019460Y027238D01*
X019533Y027164D01*
X019347Y028748D02*
X019347Y028948D01*
X019347Y028748D02*
X017947Y028748D01*
X017947Y028948D01*
X017947Y029548D02*
X017947Y031148D01*
X017947Y031748D02*
X017947Y031948D01*
X019347Y031948D01*
X019347Y031748D01*
X019347Y031148D02*
X019347Y029548D01*
X018897Y029648D02*
X018897Y029898D01*
X018897Y030148D01*
X018747Y030148D02*
X018547Y030148D01*
X018547Y029648D01*
X018747Y029648D01*
X018747Y030148D01*
X018397Y030148D02*
X018397Y029898D01*
X018397Y029648D01*
X017492Y029672D02*
X017345Y029525D01*
X017492Y029452D02*
X017418Y029378D01*
X017125Y029378D01*
X017051Y029452D01*
X017051Y029598D01*
X017125Y029672D01*
X017418Y029672D01*
X017492Y029598D01*
X017492Y029452D01*
X017492Y029839D02*
X017198Y030132D01*
X017125Y030132D01*
X017051Y030059D01*
X017051Y029912D01*
X017125Y029839D01*
X017492Y029839D02*
X017492Y030132D01*
X018547Y031548D02*
X018549Y031568D01*
X018555Y031586D01*
X018564Y031604D01*
X018576Y031619D01*
X018591Y031631D01*
X018609Y031640D01*
X018627Y031646D01*
X018647Y031648D01*
X018667Y031646D01*
X018685Y031640D01*
X018703Y031631D01*
X018718Y031619D01*
X018730Y031604D01*
X018739Y031586D01*
X018745Y031568D01*
X018747Y031548D01*
X018745Y031528D01*
X018739Y031510D01*
X018730Y031492D01*
X018718Y031477D01*
X018703Y031465D01*
X018685Y031456D01*
X018667Y031450D01*
X018647Y031448D01*
X018627Y031450D01*
X018609Y031456D01*
X018591Y031465D01*
X018576Y031477D01*
X018564Y031492D01*
X018555Y031510D01*
X018549Y031528D01*
X018547Y031548D01*
X017198Y032360D02*
X017198Y032800D01*
X017052Y032800D02*
X017345Y032800D01*
X016885Y032654D02*
X016885Y032360D01*
X016885Y032580D02*
X016591Y032580D01*
X016591Y032654D02*
X016738Y032800D01*
X016885Y032654D01*
X016591Y032654D02*
X016591Y032360D01*
X016424Y032433D02*
X016351Y032360D01*
X016131Y032360D01*
X016131Y032800D01*
X016351Y032800D01*
X016424Y032727D01*
X016424Y032654D01*
X016351Y032580D01*
X016131Y032580D01*
X016351Y032580D02*
X016424Y032507D01*
X016424Y032433D01*
X015964Y032287D02*
X015670Y032287D01*
X015504Y032507D02*
X015504Y032800D01*
X015504Y032507D02*
X015357Y032360D01*
X015210Y032507D01*
X015210Y032800D01*
X019558Y025543D02*
X019485Y025470D01*
X019485Y025323D01*
X019558Y025250D01*
X019558Y025083D02*
X019485Y025009D01*
X019485Y024863D01*
X019558Y024789D01*
X019852Y024789D01*
X019925Y024863D01*
X019925Y025009D01*
X019852Y025083D01*
X019925Y025250D02*
X019631Y025543D01*
X019558Y025543D01*
X019925Y025543D02*
X019925Y025250D01*
X019925Y024629D02*
X019925Y024482D01*
X019925Y024556D02*
X019485Y024556D01*
X019485Y024629D02*
X019485Y024482D01*
X023710Y025058D02*
X023783Y024985D01*
X023930Y024985D01*
X024004Y025058D01*
X024004Y025132D01*
X023930Y025205D01*
X023783Y025205D01*
X023710Y025279D01*
X023710Y025352D01*
X023783Y025425D01*
X023930Y025425D01*
X024004Y025352D01*
X024170Y025425D02*
X024170Y024985D01*
X024391Y024985D01*
X024464Y025058D01*
X024464Y025352D01*
X024391Y025425D01*
X024170Y025425D01*
X024631Y025279D02*
X024778Y025425D01*
X024924Y025279D01*
X024924Y024985D01*
X024924Y025205D02*
X024631Y025205D01*
X024631Y025279D02*
X024631Y024985D01*
X025265Y025650D02*
X025265Y026090D01*
X025485Y026090D01*
X025559Y026017D01*
X025559Y025870D01*
X025485Y025797D01*
X025265Y025797D01*
X025412Y025797D02*
X025559Y025650D01*
X025726Y025650D02*
X026019Y026090D01*
X025726Y026090D02*
X026019Y025650D01*
X026265Y025090D02*
X026559Y025090D01*
X026412Y025090D02*
X026412Y024650D01*
X026726Y024650D02*
X027019Y025090D01*
X026726Y025090D02*
X027019Y024650D01*
X028300Y025315D02*
X028440Y025175D01*
X031060Y025175D01*
X031060Y027935D01*
X028300Y027935D01*
X028300Y025315D01*
X028459Y025475D02*
X028461Y025498D01*
X028467Y025521D01*
X028476Y025542D01*
X028489Y025562D01*
X028505Y025579D01*
X028523Y025593D01*
X028543Y025604D01*
X028565Y025612D01*
X028588Y025616D01*
X028612Y025616D01*
X028635Y025612D01*
X028657Y025604D01*
X028677Y025593D01*
X028695Y025579D01*
X028711Y025562D01*
X028724Y025542D01*
X028733Y025521D01*
X028739Y025498D01*
X028741Y025475D01*
X028739Y025452D01*
X028733Y025429D01*
X028724Y025408D01*
X028711Y025388D01*
X028695Y025371D01*
X028677Y025357D01*
X028657Y025346D01*
X028635Y025338D01*
X028612Y025334D01*
X028588Y025334D01*
X028565Y025338D01*
X028543Y025346D01*
X028523Y025357D01*
X028505Y025371D01*
X028489Y025388D01*
X028476Y025408D01*
X028467Y025429D01*
X028461Y025452D01*
X028459Y025475D01*
X030460Y023952D02*
X030460Y023658D01*
X030533Y023585D01*
X030680Y023585D01*
X030754Y023658D01*
X030920Y023585D02*
X031214Y023585D01*
X031067Y023585D02*
X031067Y024025D01*
X030920Y023879D01*
X030754Y023952D02*
X030680Y024025D01*
X030533Y024025D01*
X030460Y023952D01*
X033585Y025283D02*
X033658Y025210D01*
X033952Y025210D01*
X034025Y025283D01*
X034025Y025430D01*
X033952Y025504D01*
X034025Y025670D02*
X033731Y025964D01*
X033658Y025964D01*
X033585Y025891D01*
X033585Y025744D01*
X033658Y025670D01*
X033658Y025504D02*
X033585Y025430D01*
X033585Y025283D01*
X034025Y025670D02*
X034025Y025964D01*
X035625Y027145D02*
X035625Y027585D01*
X035771Y027585D02*
X035478Y027585D01*
X035938Y027512D02*
X035938Y027218D01*
X036012Y027145D01*
X036158Y027145D01*
X036232Y027218D01*
X036232Y027512D01*
X036158Y027585D01*
X036012Y027585D01*
X035938Y027512D01*
X036399Y027585D02*
X036399Y027218D01*
X036472Y027145D01*
X036619Y027145D01*
X036692Y027218D01*
X036692Y027585D01*
X036859Y027512D02*
X036859Y027218D01*
X036932Y027145D01*
X037079Y027145D01*
X037153Y027218D01*
X037319Y027145D02*
X037319Y027585D01*
X037153Y027512D02*
X037079Y027585D01*
X036932Y027585D01*
X036859Y027512D01*
X037319Y027365D02*
X037613Y027365D01*
X037613Y027585D02*
X037613Y027145D01*
X035025Y027914D02*
X034585Y027914D01*
X034585Y028134D01*
X034658Y028208D01*
X034805Y028208D01*
X034878Y028134D01*
X034878Y027914D01*
X034878Y028061D02*
X035025Y028208D01*
X034805Y028375D02*
X034585Y028595D01*
X035025Y028595D01*
X034805Y028668D02*
X034805Y028375D01*
X034900Y029482D02*
X034900Y029629D01*
X034900Y029556D02*
X034460Y029556D01*
X034460Y029629D02*
X034460Y029482D01*
X034533Y029789D02*
X034606Y029789D01*
X034680Y029863D01*
X034680Y030009D01*
X034753Y030083D01*
X034827Y030083D01*
X034900Y030009D01*
X034900Y029863D01*
X034827Y029789D01*
X034533Y029789D02*
X034460Y029863D01*
X034460Y030009D01*
X034533Y030083D01*
X034460Y030250D02*
X034460Y030470D01*
X034533Y030543D01*
X034680Y030543D01*
X034753Y030470D01*
X034753Y030250D01*
X034900Y030250D02*
X034460Y030250D01*
X030339Y030960D02*
X030045Y030960D01*
X030192Y030960D02*
X030192Y031400D01*
X030045Y031254D01*
X029879Y031327D02*
X029805Y031400D01*
X029585Y031400D01*
X029585Y030960D01*
X029585Y031107D02*
X029805Y031107D01*
X029879Y031180D01*
X029879Y031327D01*
X029732Y031107D02*
X029879Y030960D01*
X029202Y029464D02*
X029275Y029391D01*
X029275Y029244D01*
X029202Y029170D01*
X029055Y029170D02*
X028981Y029317D01*
X028981Y029391D01*
X029055Y029464D01*
X029202Y029464D01*
X029055Y029170D02*
X028835Y029170D01*
X028835Y029464D01*
X028908Y029004D02*
X028835Y028930D01*
X028835Y028783D01*
X028908Y028710D01*
X029202Y028710D01*
X029275Y028783D01*
X029275Y028930D01*
X029202Y029004D01*
X028113Y028387D02*
X027819Y028093D01*
X027893Y028020D01*
X028040Y028020D01*
X028113Y028093D01*
X028113Y028387D01*
X028040Y028460D01*
X027893Y028460D01*
X027819Y028387D01*
X027819Y028093D01*
X027653Y028093D02*
X027579Y028020D01*
X027432Y028020D01*
X027359Y028093D01*
X027359Y028387D01*
X027432Y028460D01*
X027579Y028460D01*
X027653Y028387D01*
X027192Y028387D02*
X027192Y028240D01*
X027119Y028167D01*
X026899Y028167D01*
X026899Y028020D02*
X026899Y028460D01*
X027119Y028460D01*
X027192Y028387D01*
X027079Y029520D02*
X027153Y029593D01*
X027079Y029520D02*
X026932Y029520D01*
X026859Y029593D01*
X026859Y029887D01*
X026932Y029960D01*
X027079Y029960D01*
X027153Y029887D01*
X027319Y029960D02*
X027613Y029960D01*
X027613Y029887D01*
X027319Y029593D01*
X027319Y029520D01*
X026692Y029593D02*
X026692Y029887D01*
X026619Y029960D01*
X026399Y029960D01*
X026399Y029520D01*
X026619Y029520D01*
X026692Y029593D01*
X026232Y029520D02*
X026232Y029814D01*
X026085Y029960D01*
X025938Y029814D01*
X025938Y029520D01*
X025938Y029740D02*
X026232Y029740D01*
X024631Y028175D02*
X024631Y027735D01*
X024924Y027735D01*
X024464Y027808D02*
X024391Y027735D01*
X024244Y027735D01*
X024170Y027808D01*
X024170Y028102D01*
X024244Y028175D01*
X024391Y028175D01*
X024464Y028102D01*
X024004Y028102D02*
X023930Y028175D01*
X023783Y028175D01*
X023710Y028102D01*
X023710Y028029D01*
X023783Y027955D01*
X023930Y027955D01*
X024004Y027882D01*
X024004Y027808D01*
X023930Y027735D01*
X023783Y027735D01*
X023710Y027808D01*
X029835Y019964D02*
X029835Y019670D01*
X030055Y019670D01*
X029981Y019817D01*
X029981Y019891D01*
X030055Y019964D01*
X030202Y019964D01*
X030275Y019891D01*
X030275Y019744D01*
X030202Y019670D01*
X030275Y019504D02*
X030128Y019357D01*
X030128Y019430D02*
X030128Y019210D01*
X030275Y019210D02*
X029835Y019210D01*
X029835Y019430D01*
X029908Y019504D01*
X030055Y019504D01*
X030128Y019430D01*
X030220Y016775D02*
X030000Y016555D01*
X030293Y016555D01*
X030220Y016335D02*
X030220Y016775D01*
X029833Y016775D02*
X029539Y016775D01*
X029686Y016775D02*
X029686Y016335D01*
X032539Y016775D02*
X032833Y016775D01*
X032686Y016775D02*
X032686Y016335D01*
X033000Y016408D02*
X033073Y016335D01*
X033220Y016335D01*
X033293Y016408D01*
X033293Y016482D01*
X033220Y016555D01*
X033146Y016555D01*
X033220Y016555D02*
X033293Y016629D01*
X033293Y016702D01*
X033220Y016775D01*
X033073Y016775D01*
X033000Y016702D01*
X035289Y016775D02*
X035583Y016775D01*
X035436Y016775D02*
X035436Y016335D01*
X035750Y016335D02*
X036043Y016629D01*
X036043Y016702D01*
X035970Y016775D01*
X035823Y016775D01*
X035750Y016702D01*
X035750Y016335D02*
X036043Y016335D01*
X037914Y016900D02*
X038208Y016900D01*
X038061Y016900D02*
X038061Y016460D01*
X038375Y016460D02*
X038668Y016460D01*
X038521Y016460D02*
X038521Y016900D01*
X038375Y016754D01*
X038378Y019210D02*
X038378Y019430D01*
X038305Y019504D01*
X038158Y019504D01*
X038085Y019430D01*
X038085Y019210D01*
X038525Y019210D01*
X038378Y019357D02*
X038525Y019504D01*
X038525Y019670D02*
X038525Y019964D01*
X038525Y019817D02*
X038085Y019817D01*
X038231Y019670D01*
X038158Y020131D02*
X038085Y020204D01*
X038085Y020351D01*
X038158Y020424D01*
X038231Y020424D01*
X038305Y020351D01*
X038378Y020424D01*
X038452Y020424D01*
X038525Y020351D01*
X038525Y020204D01*
X038452Y020131D01*
X038305Y020278D02*
X038305Y020351D01*
X036150Y020424D02*
X036150Y020131D01*
X035856Y020424D01*
X035783Y020424D01*
X035710Y020351D01*
X035710Y020204D01*
X035783Y020131D01*
X035710Y019817D02*
X036150Y019817D01*
X036150Y019670D02*
X036150Y019964D01*
X035856Y019670D02*
X035710Y019817D01*
X035783Y019504D02*
X035930Y019504D01*
X036003Y019430D01*
X036003Y019210D01*
X036003Y019357D02*
X036150Y019504D01*
X036150Y019210D02*
X035710Y019210D01*
X035710Y019430D01*
X035783Y019504D01*
X033275Y019629D02*
X033128Y019482D01*
X033128Y019555D02*
X033128Y019335D01*
X033275Y019335D02*
X032835Y019335D01*
X032835Y019555D01*
X032908Y019629D01*
X033055Y019629D01*
X033128Y019555D01*
X032981Y019795D02*
X032835Y019942D01*
X033275Y019942D01*
X033275Y019795D02*
X033275Y020089D01*
X033275Y020256D02*
X033275Y020549D01*
X033275Y020403D02*
X032835Y020403D01*
X032981Y020256D01*
D12*
X027540Y025480D02*
X027540Y025577D01*
X027540Y025528D02*
X027250Y025528D01*
X027250Y025480D02*
X027250Y025577D01*
X027298Y025676D02*
X027250Y025725D01*
X027250Y025822D01*
X027298Y025870D01*
X027347Y025971D02*
X027250Y026068D01*
X027540Y026068D01*
X027540Y025971D02*
X027540Y026165D01*
X027492Y025870D02*
X027540Y025822D01*
X027540Y025725D01*
X027492Y025676D01*
X027298Y025676D01*
D13*
X019305Y026935D02*
X017305Y026935D01*
X017947Y028748D02*
X018036Y028948D01*
X018497Y029198D02*
X018797Y029198D01*
X019147Y029548D02*
X019147Y031148D01*
X019147Y031748D02*
X019147Y031848D01*
X019347Y031948D01*
X019147Y031848D02*
X018147Y031848D01*
X017947Y031948D01*
X018147Y031848D02*
X018147Y031748D01*
X018147Y031148D02*
X018147Y029548D01*
X018247Y029898D02*
X018397Y029898D01*
X018897Y029898D02*
X019047Y029898D01*
X019258Y028948D02*
X019347Y028748D01*
D14*
X014330Y030636D02*
X014330Y021974D01*
X012361Y021974D01*
X012361Y020793D01*
X009999Y020793D01*
X009999Y021974D01*
X008030Y021974D01*
X008030Y029848D01*
X008818Y030636D01*
X009999Y030636D01*
X009999Y031817D01*
X012361Y031817D01*
X012361Y030636D01*
X014330Y030636D01*
X012361Y030636D02*
X009999Y030636D01*
X009999Y021974D02*
X012361Y021974D01*
X019980Y015088D02*
X019980Y014855D01*
X020038Y014796D01*
X020155Y014796D01*
X020214Y014855D01*
X020348Y014796D02*
X020582Y014796D01*
X020465Y014796D02*
X020465Y015146D01*
X020348Y015030D01*
X020214Y015088D02*
X020155Y015146D01*
X020038Y015146D01*
X019980Y015088D01*
X020717Y015146D02*
X020717Y014971D01*
X020833Y015030D01*
X020892Y015030D01*
X020950Y014971D01*
X020950Y014855D01*
X020892Y014796D01*
X020775Y014796D01*
X020717Y014855D01*
X020717Y015146D02*
X020950Y015146D01*
X020833Y014149D02*
X020717Y014149D01*
X020658Y014091D01*
X020658Y013857D01*
X020717Y013799D01*
X020833Y013799D01*
X020892Y013857D01*
X021027Y013857D02*
X021027Y013916D01*
X021085Y013974D01*
X021202Y013974D01*
X021260Y013916D01*
X021260Y013857D01*
X021202Y013799D01*
X021085Y013799D01*
X021027Y013857D01*
X021085Y013974D02*
X021027Y014033D01*
X021027Y014091D01*
X021085Y014149D01*
X021202Y014149D01*
X021260Y014091D01*
X021260Y014033D01*
X021202Y013974D01*
X020892Y014091D02*
X020833Y014149D01*
X022823Y010061D02*
X022765Y010003D01*
X022765Y009769D01*
X022823Y009711D01*
X022940Y009711D01*
X022999Y009769D01*
X023133Y009769D02*
X023133Y009711D01*
X023133Y009769D02*
X023367Y010003D01*
X023367Y010061D01*
X023133Y010061D01*
X022999Y010003D02*
X022940Y010061D01*
X022823Y010061D01*
X022782Y009271D02*
X022723Y009213D01*
X022723Y008980D01*
X022782Y008921D01*
X022898Y008921D01*
X022957Y008980D01*
X023092Y008980D02*
X023150Y008921D01*
X023267Y008921D01*
X023325Y008980D01*
X023325Y009038D01*
X023267Y009096D01*
X023092Y009096D01*
X023092Y008980D01*
X023092Y009096D02*
X023208Y009213D01*
X023325Y009271D01*
X022957Y009213D02*
X022898Y009271D01*
X022782Y009271D01*
X028732Y030140D02*
X028966Y030140D01*
X029024Y030198D01*
X029024Y030315D01*
X028966Y030374D01*
X028966Y030508D02*
X029024Y030567D01*
X029024Y030684D01*
X028966Y030742D01*
X028907Y030742D01*
X028849Y030684D01*
X028849Y030625D01*
X028849Y030684D02*
X028791Y030742D01*
X028732Y030742D01*
X028674Y030684D01*
X028674Y030567D01*
X028732Y030508D01*
X028732Y030374D02*
X028674Y030315D01*
X028674Y030198D01*
X028732Y030140D01*
D15*
X002680Y021203D02*
X002703Y022130D01*
X002771Y023055D01*
X002885Y023976D01*
X003043Y024890D01*
X003246Y025795D01*
X003494Y026689D01*
X003785Y027570D01*
X004119Y028435D01*
X004494Y029283D01*
X004911Y030111D01*
X005369Y030919D01*
X005865Y031702D01*
X006399Y032461D01*
X006970Y033192D01*
X007576Y033894D01*
X008215Y034566D01*
X008887Y035205D01*
X009589Y035811D01*
X010320Y036382D01*
X011079Y036916D01*
X011862Y037412D01*
X012670Y037870D01*
X013498Y038287D01*
X014346Y038662D01*
X015211Y038996D01*
X016092Y039287D01*
X016986Y039535D01*
X017891Y039738D01*
X018805Y039896D01*
X019726Y040010D01*
X020651Y040078D01*
X021578Y040101D01*
X022505Y040078D01*
X023430Y040010D01*
X024351Y039896D01*
X025265Y039738D01*
X026170Y039535D01*
X027064Y039287D01*
X027945Y038996D01*
X028810Y038662D01*
X029658Y038287D01*
X030486Y037870D01*
X031294Y037412D01*
X032077Y036916D01*
X032836Y036382D01*
X033567Y035811D01*
X034269Y035205D01*
X034941Y034566D01*
X035580Y033894D01*
X036186Y033192D01*
X036757Y032461D01*
X037291Y031702D01*
X037787Y030919D01*
X038245Y030111D01*
X038662Y029283D01*
X039037Y028435D01*
X039371Y027570D01*
X039662Y026689D01*
X039910Y025795D01*
X040113Y024890D01*
X040271Y023976D01*
X040385Y023055D01*
X040453Y022130D01*
X040476Y021203D01*
X040453Y020276D01*
X040385Y019351D01*
X040271Y018430D01*
X040113Y017516D01*
X039910Y016611D01*
X039662Y015717D01*
X039371Y014836D01*
X039037Y013971D01*
X038662Y013123D01*
X038245Y012295D01*
X037787Y011487D01*
X037291Y010704D01*
X036757Y009945D01*
X036186Y009214D01*
X035580Y008512D01*
X034941Y007840D01*
X034269Y007201D01*
X033567Y006595D01*
X032836Y006024D01*
X032077Y005490D01*
X031294Y004994D01*
X030486Y004536D01*
X029658Y004119D01*
X028810Y003744D01*
X027945Y003410D01*
X027064Y003119D01*
X026170Y002871D01*
X025265Y002668D01*
X024351Y002510D01*
X023430Y002396D01*
X022505Y002328D01*
X021578Y002305D01*
X020651Y002328D01*
X019726Y002396D01*
X018805Y002510D01*
X017891Y002668D01*
X016986Y002871D01*
X016092Y003119D01*
X015211Y003410D01*
X014346Y003744D01*
X013498Y004119D01*
X012670Y004536D01*
X011862Y004994D01*
X011079Y005490D01*
X010320Y006024D01*
X009589Y006595D01*
X008887Y007201D01*
X008215Y007840D01*
X007576Y008512D01*
X006970Y009214D01*
X006399Y009945D01*
X005865Y010704D01*
X005369Y011487D01*
X004911Y012295D01*
X004494Y013123D01*
X004119Y013971D01*
X003785Y014836D01*
X003494Y015717D01*
X003246Y016611D01*
X003043Y017516D01*
X002885Y018430D01*
X002771Y019351D01*
X002703Y020276D01*
X002680Y021203D01*
D16*
X020496Y005326D02*
X021003Y005326D01*
X022371Y005326D02*
X022878Y005326D01*
X022624Y005579D02*
X022624Y005072D01*
D17*
X030568Y029110D02*
X030568Y029464D01*
X030883Y029464D01*
X030883Y030646D01*
X030568Y030646D01*
X030568Y031000D01*
X034292Y031000D01*
X034292Y029110D01*
X030568Y029110D01*
X030883Y029268D02*
X030883Y029464D01*
X030883Y029268D02*
X033977Y029268D01*
X033977Y030842D01*
X030883Y030842D01*
X030883Y030646D01*
M02*
